SplineFontDB: 3.2
FontName: MFEKglifIconFont
FullName: MFEKglifIconFont
FamilyName: MFEKglifIconFont
Weight: Book
Copyright: (c) 2020-2021 MFEK authors. Tools icons contributed in SVG format by Eli Heuer. Some icons come from Material Design, (c) Google, Apache 2.0 (same license as MFEK). (TransY-=150. Scale uniformly 125%)
Version: 001.000
ItalicAngle: 0
UnderlinePosition: -100
UnderlineWidth: 50
Ascent: 800
Descent: 200
InvalidEm: 0
sfntRevision: 0x00010000
LayerCount: 2
Layer: 0 1 "Back" 1
Layer: 1 1 "Fore" 0
HasVMetrics: 1
XUID: [1021 640 1538074639 10126076]
StyleMap: 0x0000
FSType: 0
OS2Version: 4
OS2_WeightWidthSlopeOnly: 0
OS2_UseTypoMetrics: 1
CreationTime: 1599609708
ModificationTime: 1626209284
PfmFamily: 17
TTFWeight: 400
TTFWidth: 5
LineGap: 90
VLineGap: 0
Panose: 2 0 5 9 0 0 0 0 0 0
OS2TypoAscent: 800
OS2TypoAOffset: 0
OS2TypoDescent: -200
OS2TypoDOffset: 0
OS2TypoLinegap: 90
OS2WinAscent: 666
OS2WinAOffset: 0
OS2WinDescent: 239
OS2WinDOffset: 0
HheadAscent: 666
HheadAOffset: 0
HheadDescent: -239
HheadDOffset: 0
OS2SubXSize: 650
OS2SubYSize: 700
OS2SubXOff: 0
OS2SubYOff: 140
OS2SupXSize: 650
OS2SupYSize: 700
OS2SupXOff: 0
OS2SupYOff: 480
OS2StrikeYSize: 49
OS2StrikeYPos: 258
OS2Vendor: 'PfEd'
OS2CodePages: 80000001.00000000
OS2UnicodeRanges: 00000000.10000000.00000000.00000000
MarkAttachClasses: 1
DEI: 91125
ShortTable: cvt  2
  33
  633
EndShort
ShortTable: maxp 16
  1
  0
  12
  147
  9
  0
  0
  2
  0
  1
  1
  0
  64
  0
  0
  0
EndShort
LangName: 1033 "" "" "Regular"
GaspTable: 1 65535 2 0
Encoding: Custom
Compacted: 1
UnicodeInterp: none
NameList: AGL For New Fonts
DisplaySize: -48
AntiAlias: 1
FitToEm: 0
WinInfo: 0 21 7
BeginPrivate: 0
EndPrivate
Grid
-1000 261.078125 m 0
 2000 261.078125 l 1024
  Named: "venn top"
EndSplineSet
AnchorClass2: "theclass"""  "bottom""" 
BeginChars: 56 47

StartChar: knife
Encoding: 0 61440 0
Width: 700
VWidth: 600
Flags: W
LayerCount: 2
Fore
SplineSet
428.5 430 m 2,0,-1
 429.5 430 l 2,1,2
 435.5 430 435.5 430 440.5 425 c 128,-1,3
 445.5 420 445.5 420 445.5 414 c 2,4,-1
 445.5 48 l 2,5,6
 445.5 41 445.5 41 440.5 37 c 2,7,-1
 429.5 25 l 1,8,-1
 429.5 23 l 1,9,-1
 456.5 -4 l 2,10,11
 461.5 -9 461.5 -9 461.5 -16 c 2,12,-1
 461.5 -47 l 1,13,14
 467.5 -47 467.5 -47 472.5 -52 c 128,-1,15
 477.5 -57 477.5 -57 477.5 -63 c 2,16,-1
 477.5 -159 l 2,17,18
 477.5 -160 477.5 -160 476.5 -162 c 2,19,20
 476.5 -162 476.5 -162 476.5 -163 c 128,-1,21
 476.5 -164 476.5 -164 476 -164.5 c 128,-1,22
 475.5 -165 475.5 -165 475 -166 c 128,-1,23
 474.5 -167 474.5 -167 474.5 -167 c 2,24,25
 469.5 -175 469.5 -175 461.5 -175 c 2,26,-1
 453.5 -175 l 1,27,-1
 453.5 -222 l 2,28,29
 453.5 -229 453.5 -229 448.5 -233.5 c 128,-1,30
 443.5 -238 443.5 -238 437.5 -238 c 2,31,-1
 254.5 -238 l 2,32,33
 247.5 -238 247.5 -238 243 -233.5 c 128,-1,34
 238.5 -229 238.5 -229 238.5 -222 c 2,35,-1
 238.5 -175 l 1,36,37
 231.5 -175 231.5 -175 227 -170 c 128,-1,38
 222.5 -165 222.5 -165 222.5 -159 c 2,39,-1
 222.5 -63 l 2,40,41
 222.5 -62 222.5 -62 222.5 -61 c 256,42,43
 222.5 -60 222.5 -60 223 -59 c 128,-1,44
 223.5 -58 223.5 -58 223.5 -57.5 c 128,-1,45
 223.5 -57 223.5 -57 224 -56 c 128,-1,46
 224.5 -55 224.5 -55 225.5 -55 c 0,47,48
 229.5 -47 229.5 -47 238.5 -47 c 1,49,-1
 238.5 -16 l 2,50,51
 238.5 -9 238.5 -9 243.5 -4 c 2,52,-1
 269.5 22 l 1,53,-1
 247.5 34 l 2,54,55
 238.5 38 238.5 38 238.5 48 c 2,56,-1
 238.5 207 l 2,57,58
 238.5 213 238.5 213 242.5 217 c 2,59,-1
 417.5 424 l 2,60,61
 421.5 430 421.5 430 428.5 430 c 2,0,-1
413.5 370 m 1,62,-1
 270.5 201 l 1,63,-1
 270.5 171 l 1,64,-1
 413.5 340 l 1,65,-1
 413.5 370 l 1,62,-1
413.5 291 m 1,66,-1
 270.5 122 l 1,67,-1
 270.5 58 l 1,68,-1
 293.5 46 l 2,69,70
 302.5 42 302.5 42 302.5 32 c 1,71,-1
 397.5 32 l 1,72,73
 397.5 39 397.5 39 402.5 43 c 2,74,-1
 413.5 55 l 1,75,-1
 413.5 291 l 1,66,-1
292.5 0 m 1,76,-1
 270.5 -22 l 1,77,-1
 270.5 -47 l 1,78,-1
 317.5 -47 l 1,79,-1
 317.5 0 l 1,80,-1
 292.5 0 l 1,76,-1
349.5 0 m 1,81,-1
 349.5 -47 l 1,82,-1
 429.5 -47 l 1,83,-1
 429.5 -22 l 1,84,-1
 406.5 0 l 1,85,-1
 349.5 0 l 1,81,-1
254.5 -79 m 1,86,-1
 254.5 -143 l 1,87,-1
 286.5 -143 l 1,88,-1
 286.5 -79 l 1,89,-1
 254.5 -79 l 1,86,-1
317.5 -79 m 1,90,-1
 317.5 -143 l 1,91,-1
 381.5 -143 l 1,92,-1
 381.5 -79 l 1,93,-1
 317.5 -79 l 1,90,-1
413.5 -79 m 1,94,-1
 413.5 -143 l 1,95,-1
 445.5 -143 l 1,96,-1
 445.5 -79 l 1,97,-1
 444.5 -79 l 1,98,-1
 413.5 -79 l 1,94,-1
270.5 -175 m 1,99,-1
 270.5 -207 l 1,100,-1
 421.5 -207 l 1,101,-1
 421.5 -175 l 1,102,-1
 270.5 -175 l 1,99,-1
EndSplineSet
Validated: 524289
EndChar

StartChar: measure
Encoding: 1 61441 1
Width: 700
VWidth: 600
Flags: W
LayerCount: 2
Fore
SplineSet
366 429 m 2,0,-1
 513 429 l 2,1,2
 520 429 520 429 524.5 424.5 c 128,-1,3
 529 420 529 420 529 413 c 2,4,-1
 529 -222 l 2,5,6
 529 -228 529 -228 524.5 -233 c 128,-1,7
 520 -238 520 -238 513 -238 c 2,8,-1
 187 -238 l 2,9,10
 181 -238 181 -238 176 -233 c 128,-1,11
 171 -228 171 -228 171 -222 c 2,12,-1
 171 -91 l 2,13,14
 171 -85 171 -85 176 -80 c 128,-1,15
 181 -75 181 -75 187 -75 c 2,16,-1
 349 -75 l 1,17,-1
 349 413 l 2,18,19
 349 420 349 420 354 424.5 c 128,-1,20
 359 429 359 429 366 429 c 2,0,-1
382 397 m 1,21,-1
 382 348 l 1,22,23
 382 348 382 348 383 348 c 2,24,-1
 416 348 l 2,25,26
 423 348 423 348 427.5 343.5 c 128,-1,27
 432 339 432 339 432 332 c 128,-1,28
 432 325 432 325 427.5 320 c 128,-1,29
 423 315 423 315 416 315 c 2,30,-1
 383 315 l 2,31,32
 382 315 382 315 382 316 c 1,33,-1
 382 250 l 1,34,35
 382 250 382 250 383 250 c 2,36,-1
 416 250 l 2,37,38
 423 250 423 250 427.5 245.5 c 128,-1,39
 432 241 432 241 432 234 c 128,-1,40
 432 227 432 227 427.5 222.5 c 128,-1,41
 423 218 423 218 416 218 c 2,42,-1
 383 218 l 2,43,44
 382 218 382 218 382 218 c 1,45,-1
 382 153 l 1,46,47
 382 153 382 153 383 153 c 2,48,-1
 416 153 l 2,49,50
 423 153 423 153 427.5 148 c 128,-1,51
 432 143 432 143 432 136.5 c 128,-1,52
 432 130 432 130 427.5 125 c 128,-1,53
 423 120 423 120 416 120 c 2,54,-1
 383 120 l 2,55,56
 382 120 382 120 382 120 c 1,57,-1
 382 55 l 1,58,59
 382 55 382 55 383 55 c 2,60,-1
 416 55 l 2,61,62
 423 55 423 55 427.5 50 c 128,-1,63
 432 45 432 45 432 38.5 c 128,-1,64
 432 32 432 32 427.5 27 c 128,-1,65
 423 22 423 22 416 22 c 2,66,-1
 383 22 l 2,67,68
 382 22 382 22 382 22 c 1,69,-1
 382 -43 l 1,70,71
 382 -43 382 -43 383 -43 c 2,72,-1
 416 -43 l 2,73,74
 423 -43 423 -43 427.5 -47.5 c 128,-1,75
 432 -52 432 -52 432 -59 c 128,-1,76
 432 -66 432 -66 427.5 -70.5 c 128,-1,77
 423 -75 423 -75 416 -75 c 2,78,-1
 383 -75 l 2,79,80
 382 -75 382 -75 382 -75 c 1,81,-1
 382 -91 l 2,82,83
 382 -98 382 -98 377 -103 c 128,-1,84
 372 -108 372 -108 366 -108 c 2,85,-1
 301 -108 l 1,86,-1
 301 -141 l 2,87,88
 301 -148 301 -148 296.5 -152.5 c 128,-1,89
 292 -157 292 -157 285 -157 c 128,-1,90
 278 -157 278 -157 273.5 -152.5 c 128,-1,91
 269 -148 269 -148 269 -141 c 2,92,-1
 269 -108 l 1,93,-1
 204 -108 l 1,94,-1
 204 -205 l 1,95,-1
 497 -205 l 1,96,-1
 497 397 l 1,97,-1
 382 397 l 1,21,-1
EndSplineSet
Validated: 1
EndChar

StartChar: pan
Encoding: 2 61442 2
Width: 700
VWidth: 600
Flags: W
LayerCount: 2
Fore
SplineSet
354.571289062 429 m 2,0,-1
 358.571289062 429 l 2,1,2
 370.571289062 429 370.571289062 429 377.571289062 427 c 0,3,4
 391.571289062 423 391.571289062 423 399.571289062 409.5 c 128,-1,5
 407.571289062 396 407.571289062 396 410.571289062 372 c 1,6,7
 425.571289062 381 425.571289062 381 438.571289062 381 c 0,8,9
 449.571289062 381 449.571289062 381 461.071289062 373.5 c 128,-1,10
 472.571289062 366 472.571289062 366 479.571289062 352 c 0,11,12
 488.571289062 334 488.571289062 334 492.571289062 295 c 1,13,14
 502.571289062 299 502.571289062 299 512.571289062 299 c 0,15,16
 539.571289062 299 539.571289062 299 552.571289062 279 c 0,17,18
 561.571289062 264 561.571289062 264 561.571289062 234 c 2,19,-1
 561.571289062 14 l 2,20,21
 561.571289062 12 561.571289062 12 561.571289062 10 c 2,22,-1
 529.571289062 -110 l 1,23,-1
 529.571289062 -222 l 2,24,25
 529.571289062 -228 529.571289062 -228 524.571289062 -233 c 128,-1,26
 519.571289062 -238 519.571289062 -238 512.571289062 -238 c 2,27,-1
 260.571289062 -238 l 2,28,29
 253.571289062 -238 253.571289062 -238 249.071289062 -233 c 128,-1,30
 244.571289062 -228 244.571289062 -228 244.571289062 -222 c 2,31,-1
 244.571289062 -113 l 1,32,-1
 158.571289062 -4 l 2,33,34
 155.571289062 0 155.571289062 0 154.571289062 5 c 2,35,-1
 138.571289062 200 l 2,36,37
 137.571289062 208 137.571289062 208 143.571289062 213 c 0,38,39
 158.571289062 228 158.571289062 228 179.071289062 230.5 c 128,-1,40
 199.571289062 233 199.571289062 233 214.571289062 224 c 0,41,42
 215.571289062 224 215.571289062 224 217.571289062 222.5 c 128,-1,43
 219.571289062 221 219.571289062 221 219.571289062 220 c 1,44,-1
 219.571289062 234 l 1,45,46
 219.571289062 234 219.571289062 234 219.571289062 235 c 2,47,-1
 219.571289062 299 l 2,48,49
 219.571289062 348 219.571289062 348 242.571289062 368 c 0,50,51
 256.571289062 381 256.571289062 381 276.571289062 381 c 0,52,53
 288.571289062 381 288.571289062 381 304.571289062 373 c 1,54,55
 308.571289062 396 308.571289062 396 316.571289062 409.5 c 128,-1,56
 324.571289062 423 324.571289062 423 338.571289062 427 c 0,57,58
 345.571289062 429 345.571289062 429 354.571289062 429 c 2,0,-1
358.571289062 397 m 0,59,60
 350.571289062 397 350.571289062 397 348.071289062 396 c 128,-1,61
 345.571289062 395 345.571289062 395 343.571289062 392 c 0,62,63
 333.571289062 376 333.571289062 376 333.571289062 315 c 2,64,-1
 333.571289062 136 l 2,65,66
 333.571289062 130 333.571289062 130 329.071289062 125 c 128,-1,67
 324.571289062 120 324.571289062 120 317.571289062 120 c 128,-1,68
 310.571289062 120 310.571289062 120 306.071289062 125 c 128,-1,69
 301.571289062 130 301.571289062 130 301.571289062 136 c 2,70,-1
 301.571289062 316 l 2,71,72
 301.571289062 338 301.571289062 338 291.571289062 345 c 0,73,74
 286.571289062 348 286.571289062 348 276.571289062 348 c 0,75,76
 268.571289062 348 268.571289062 348 264.571289062 344 c 0,77,78
 252.571289062 333 252.571289062 333 252.571289062 299 c 2,79,-1
 252.571289062 169 l 1,80,-1
 252.571289062 120 l 2,81,82
 252.571289062 113 252.571289062 113 247.571289062 108.5 c 128,-1,83
 242.571289062 104 242.571289062 104 236.071289062 104 c 128,-1,84
 229.571289062 104 229.571289062 104 224.571289062 108.5 c 128,-1,85
 219.571289062 113 219.571289062 113 219.571289062 120 c 2,86,-1
 219.571289062 169 l 2,87,88
 219.571289062 176 219.571289062 176 214.071289062 183.5 c 128,-1,89
 208.571289062 191 208.571289062 191 200.571289062 195 c 0,90,91
 185.571289062 202 185.571289062 202 171.571289062 193 c 1,92,-1
 186.571289062 12 l 1,93,-1
 273.571289062 -98 l 2,94,95
 276.571289062 -102 276.571289062 -102 276.571289062 -108 c 2,96,-1
 276.571289062 -205 l 1,97,-1
 496.571289062 -205 l 1,98,-1
 496.571289062 -108 l 2,99,100
 496.571289062 -106 496.571289062 -106 497.571289062 -104 c 2,101,-1
 529.571289062 16 l 1,102,-1
 529.571289062 234 l 2,103,104
 529.571289062 255 529.571289062 255 524.571289062 262 c 0,105,106
 521.571289062 267 521.571289062 267 512.571289062 267 c 0,107,108
 504.571289062 267 504.571289062 267 501.571289062 263 c 0,109,110
 496.571289062 257 496.571289062 257 496.571289062 240 c 0,111,112
 496.571289062 149 496.571289062 149 496.571289062 104 c 0,113,114
 496.571289062 97 496.571289062 97 492.071289062 92 c 128,-1,115
 487.571289062 87 487.571289062 87 480.571289062 87 c 128,-1,116
 473.571289062 87 473.571289062 87 468.571289062 92 c 128,-1,117
 463.571289062 97 463.571289062 97 464.571289062 104 c 2,118,-1
 464.571289062 241 l 2,119,120
 463.571289062 311 463.571289062 311 450.571289062 337 c 0,121,122
 446.571289062 345 446.571289062 345 445.071289062 346.5 c 128,-1,123
 443.571289062 348 443.571289062 348 440.571289062 348 c 0,124,125
 439.571289062 348 439.571289062 348 438.571289062 348 c 0,126,127
 429.571289062 348 429.571289062 348 423.571289062 342 c 0,128,129
 415.571289062 335 415.571289062 335 415.571289062 319 c 2,130,-1
 415.571289062 318 l 2,131,132
 415.571289062 317 415.571289062 317 415.571289062 316 c 256,133,134
 415.571289062 315 415.571289062 315 415.571289062 315 c 1,135,-1
 415.571289062 120 l 2,136,137
 415.571289062 113 415.571289062 113 410.571289062 108.5 c 128,-1,138
 405.571289062 104 405.571289062 104 399.071289062 104 c 128,-1,139
 392.571289062 104 392.571289062 104 387.571289062 108.5 c 128,-1,140
 382.571289062 113 382.571289062 113 382.571289062 120 c 2,141,-1
 382.571289062 316 l 2,142,143
 381.571289062 376 381.571289062 376 371.571289062 392 c 0,144,145
 369.571289062 396 369.571289062 396 367.571289062 396.5 c 128,-1,146
 365.571289062 397 365.571289062 397 358.571289062 397 c 0,59,60
EndSplineSet
Validated: 524321
EndChar

StartChar: pen
Encoding: 3 61443 3
Width: 700
VWidth: 600
Flags: W
LayerCount: 2
Fore
SplineSet
350 430 m 260,0,1
 351 430 351 430 352 430 c 6,2,-1
 395 430 l 6,3,4
 408 430 408 430 411 418 c 6,5,-1
 460 213 l 5,6,-1
 523 87 l 6,7,8
 525 84 525 84 525 80 c 4,9,10
 525 75 525 75 522 71 c 6,11,-1
 461 -20 l 5,12,-1
 461 -95 l 5,13,-1
 461 -222 l 6,14,15
 461 -223 461 -223 461 -223 c 5,16,-1
 461 -224 l 5,17,18
 461 -224 461 -224 461 -225 c 4,19,20
 459 -238 459 -238 445 -238 c 6,21,-1
 255 -238 l 6,22,23
 250 -238 250 -238 247 -236 c 4,24,25
 246 -236 246 -236 246 -236 c 5,26,27
 239 -231 239 -231 239 -222 c 6,28,-1
 239 -95 l 5,29,30
 239 -95 239 -95 239 -94 c 6,31,-1
 239 -20 l 5,32,-1
 178 71 l 6,33,34
 175 75 175 75 175 80 c 4,35,36
 175 84 175 84 177 87 c 6,37,-1
 239 212 l 5,38,-1
 287 417 l 6,39,40
 290 430 290 430 302 430 c 6,41,-1
 348 430 l 6,42,43
 349 430 349 430 350 430 c 260,0,1
315 398 m 5,44,-1
 270 204 l 6,45,46
 270 202 270 202 269 200 c 6,47,-1
 209 81 l 5,48,-1
 268 -7 l 6,49,50
 270 -11 270 -11 270 -16 c 6,51,-1
 270 -79 l 5,52,-1
 430 -79 l 5,53,-1
 430 -16 l 6,54,55
 430 -11 430 -11 432 -7 c 6,56,-1
 491 81 l 5,57,-1
 431 200 l 6,58,59
 430 202 430 202 430 203 c 6,60,-1
 383 398 l 5,61,-1
 366 398 l 5,62,-1
 366 91 l 5,63,64
 382 82 382 82 382 64 c 4,65,66
 382 51 382 51 372.5 41.5 c 132,-1,67
 363 32 363 32 350 32 c 132,-1,68
 337 32 337 32 327.5 41.5 c 132,-1,69
 318 51 318 51 318 64 c 4,70,71
 318 82 318 82 334 91 c 5,72,-1
 334 398 l 5,73,-1
 315 398 l 5,44,-1
270 -111 m 5,74,-1
 270 -207 l 5,75,-1
 430 -207 l 5,76,-1
 430 -111 l 5,77,-1
 270 -111 l 5,74,-1
EndSplineSet
Validated: 1
EndChar

StartChar: pencil
Encoding: 4 61444 4
Width: 700
VWidth: 600
Flags: W
LayerCount: 2
Fore
SplineSet
350.75 414 m 0,0,1
 358.75 414 358.75 414 363.75 407 c 2,2,-1
 518.75 147 l 2,3,4
 520.75 143 520.75 143 520.75 139 c 2,5,-1
 520.75 130 l 2,6,7
 521.75 127 521.75 127 520.75 125 c 2,8,-1
 520.75 -223 l 2,9,10
 520.75 -229 520.75 -229 516.25 -233.5 c 128,-1,11
 511.75 -238 511.75 -238 505.75 -238 c 2,12,-1
 194.75 -238 l 2,13,14
 187.75 -238 187.75 -238 183.25 -233.5 c 128,-1,15
 178.75 -229 178.75 -229 178.75 -223 c 2,16,-1
 178.75 124 l 2,17,18
 178.75 127 178.75 127 178.75 130 c 2,19,-1
 178.75 139 l 2,20,21
 178.75 143 178.75 143 180.75 147 c 2,22,-1
 336.75 407 l 2,23,24
 341.75 415 341.75 415 350.75 414 c 0,0,1
265.75 228 m 1,25,-1
 209.75 135 l 1,26,-1
 209.75 133 l 1,27,-1
 263.75 79 l 1,28,-1
 338.75 161 l 2,29,30
 343.75 166 343.75 166 350.75 166 c 0,31,32
 356.75 165 356.75 165 361.75 161 c 2,33,-1
 435.75 79 l 1,34,-1
 489.75 133 l 1,35,-1
 489.75 135 l 1,36,-1
 433.75 228 l 1,37,-1
 265.75 228 l 1,25,-1
349.75 127 m 1,38,-1
 279.75 51 l 1,39,-1
 279.75 -207 l 1,40,-1
 419.75 -207 l 1,41,-1
 419.75 51 l 1,42,-1
 349.75 127 l 1,38,-1
489.75 89 m 1,43,-1
 450.75 50 l 1,44,-1
 450.75 -207 l 1,45,-1
 489.75 -207 l 1,46,-1
 489.75 89 l 1,43,-1
209.75 89 m 1,47,-1
 209.75 -207 l 1,48,-1
 248.75 -207 l 1,49,-1
 248.75 50 l 1,50,-1
 209.75 89 l 1,47,-1
EndSplineSet
Validated: 524289
EndChar

StartChar: select
Encoding: 5 61445 5
Width: 700
VWidth: 600
Flags: W
LayerCount: 2
Fore
SplineSet
179.440429688 428 m 0,0,1
 187.440429688 428 187.440429688 428 192.440429688 422 c 2,2,-1
 533.440429688 63 l 2,3,4
 541.440429688 55 541.440429688 55 536.940429688 44 c 128,-1,5
 532.440429688 33 532.440429688 33 520.440429688 33 c 2,6,-1
 409.440429688 33 l 1,7,8
 427.440429688 5 427.440429688 5 463.440429688 -52 c 128,-1,9
 499.440429688 -109 499.440429688 -109 517.440429688 -137 c 0,10,11
 521.440429688 -144 521.440429688 -144 519.440429688 -151 c 0,12,13
 518.440429688 -158 518.440429688 -158 511.440429688 -162 c 2,14,-1
 385.440429688 -234 l 2,15,16
 378.440429688 -238 378.440429688 -238 370.940429688 -235.5 c 128,-1,17
 363.440429688 -233 363.440429688 -233 360.440429688 -225 c 2,18,-1
 280.440429688 -35 l 1,19,-1
 192.440429688 -123 l 2,20,21
 183.440429688 -132 183.440429688 -132 172.440429688 -127.5 c 128,-1,22
 161.440429688 -123 161.440429688 -123 161.440429688 -111 c 2,23,-1
 161.440429688 410 l 2,24,25
 161.440429688 422 161.440429688 422 172.440429688 426 c 0,26,27
 175.440429688 428 175.440429688 428 179.440429688 428 c 0,0,1
197.440429688 365 m 1,28,-1
 197.440429688 -67 l 1,29,-1
 274.440429688 10 l 2,30,31
 281.440429688 16 281.440429688 16 290.440429688 14.5 c 128,-1,32
 299.440429688 13 299.440429688 13 303.440429688 4 c 2,33,-1
 385.440429688 -193 l 1,34,-1
 477.440429688 -140 l 1,35,-1
 361.440429688 41 l 2,36,37
 356.440429688 50 356.440429688 50 361.440429688 59 c 0,38,39
 366.440429688 69 366.440429688 69 376.440429688 69 c 2,40,-1
 478.440429688 69 l 1,41,-1
 197.440429688 365 l 1,28,-1
EndSplineSet
Validated: 524289
EndChar

StartChar: shapes
Encoding: 6 61446 6
Width: 700
VWidth: 600
Flags: W
LayerCount: 2
Fore
SplineSet
242 428 m 2,0,-1
 566 428 l 2,1,2
 595 428 595 428 616 407 c 128,-1,3
 637 386 637 386 637 356 c 2,4,-1
 637 33 l 2,5,6
 637 3 637 3 616 -18 c 128,-1,7
 595 -39 595 -39 566 -39 c 2,8,-1
 527 -39 l 1,9,10
 514 -123 514 -123 448.5 -179.5 c 128,-1,11
 383 -236 383 -236 296 -236 c 0,12,13
 200 -236 200 -236 131.5 -167.5 c 128,-1,14
 63 -99 63 -99 63 -3 c 0,15,16
 63 58 63 58 92 110 c 128,-1,17
 121 162 121 162 171 194 c 1,18,-1
 171 356 l 2,19,20
 171 386 171 386 192 407 c 128,-1,21
 213 428 213 428 242 428 c 2,0,-1
242 392 m 2,22,23
 227 392 227 392 217 381.5 c 128,-1,24
 207 371 207 371 207 356 c 2,25,-1
 207 212 l 1,26,27
 250 230 250 230 296 230 c 0,28,29
 393 230 393 230 461.5 161.5 c 128,-1,30
 530 93 530 93 530 -3 c 1,31,-1
 566 -3 l 2,32,33
 581 -3 581 -3 591 7.5 c 128,-1,34
 601 18 601 18 601 33 c 2,35,-1
 601 356 l 2,36,37
 601 371 601 371 591 381.5 c 128,-1,38
 581 392 581 392 566 392 c 2,39,-1
 242 392 l 2,22,23
296 194 m 128,-1,41
 214 194 214 194 156.5 136.5 c 128,-1,42
 99 79 99 79 99 -3 c 128,-1,43
 99 -85 99 -85 156.5 -142.5 c 128,-1,44
 214 -200 214 -200 296 -200 c 0,45,46
 374 -200 374 -200 430 -148 c 128,-1,47
 486 -96 486 -96 493 -20 c 1,48,-1
 493 -19 l 2,49,50
 494 -11 494 -11 494 -3 c 0,51,52
 494 79 494 79 436 136.5 c 128,-1,40
 378 194 378 194 296 194 c 128,-1,41
EndSplineSet
Validated: 1
EndChar

StartChar: text
Encoding: 7 61447 7
Width: 700
VWidth: 600
Flags: W
LayerCount: 2
Fore
SplineSet
114 429 m 2,0,-1
 586 429 l 2,1,2
 600 429 600 429 602 416 c 2,3,-1
 635 204 l 2,4,5
 635 203 635 203 635 202 c 0,6,7
 635 195 635 195 630 190 c 128,-1,8
 625 185 625 185 618 185 c 2,9,-1
 570 185 l 2,10,11
 559 185 559 185 555 195 c 2,12,-1
 494 332 l 1,13,-1
 423 332 l 1,14,-1
 423 -134 l 1,15,-1
 432 -143 l 1,16,-1
 511 -174 l 2,17,18
 521 -178 521 -178 521 -189 c 2,19,-1
 521 -222 l 2,20,21
 521 -228 521 -228 516 -233 c 128,-1,22
 511 -238 511 -238 505 -238 c 2,23,-1
 195 -238 l 2,24,25
 188 -238 188 -238 183.5 -233 c 128,-1,26
 179 -228 179 -228 179 -222 c 2,27,-1
 179 -189 l 2,28,29
 179 -178 179 -178 189 -174 c 2,30,-1
 267 -143 l 1,31,-1
 277 -134 l 1,32,-1
 277 332 l 1,33,-1
 206 332 l 1,34,-1
 145 195 l 2,35,36
 141 185 141 185 130 185 c 2,37,-1
 81 185 l 2,38,39
 75 185 75 185 70 190 c 128,-1,40
 65 195 65 195 65 202 c 0,41,42
 65 203 65 203 65 204 c 2,43,-1
 98 416 l 2,44,45
 100 429 100 429 114 429 c 2,0,-1
128 397 m 1,46,-1
 100 218 l 1,47,-1
 120 218 l 1,48,-1
 180 355 l 2,49,50
 185 364 185 364 195 364 c 2,51,-1
 293 364 l 2,52,53
 300 364 300 364 304.5 359.5 c 128,-1,54
 309 355 309 355 309 348 c 2,55,-1
 309 -140 l 2,56,57
 309 -147 309 -147 304 -152 c 2,58,-1
 288 -168 l 2,59,60
 286 -170 286 -170 283 -172 c 2,61,-1
 212 -200 l 1,62,-1
 212 -205 l 1,63,-1
 488 -205 l 1,64,-1
 488 -200 l 1,65,-1
 417 -172 l 2,66,67
 414 -170 414 -170 412 -168 c 2,68,-1
 395 -152 l 2,69,70
 391 -147 391 -147 391 -140 c 2,71,-1
 391 348 l 2,72,73
 391 355 391 355 395.5 359.5 c 128,-1,74
 400 364 400 364 407 364 c 2,75,-1
 505 364 l 2,76,77
 515 364 515 364 519 355 c 2,78,-1
 580 218 l 1,79,-1
 600 218 l 1,80,-1
 572 397 l 1,81,-1
 128 397 l 1,46,-1
EndSplineSet
Validated: 1
EndChar

StartChar: zoom
Encoding: 8 61448 8
Width: 700
VWidth: 600
Flags: W
LayerCount: 2
Fore
SplineSet
350 381 m 128,-1,1
 404 381 404 381 442 342.5 c 128,-1,2
 480 304 480 304 480 250.5 c 128,-1,3
 480 197 480 197 442 158.5 c 128,-1,4
 404 120 404 120 350 120 c 128,-1,5
 296 120 296 120 258 158.5 c 128,-1,6
 220 197 220 197 220 250.5 c 128,-1,7
 220 304 220 304 258 342.5 c 128,-1,0
 296 381 296 381 350 381 c 128,-1,1
350 348 m 128,-1,9
 309 348 309 348 280.5 319.5 c 128,-1,10
 252 291 252 291 252 250.5 c 128,-1,11
 252 210 252 210 280.5 181.5 c 128,-1,12
 309 153 309 153 350 153 c 128,-1,13
 391 153 391 153 419.5 181.5 c 128,-1,14
 448 210 448 210 448 250.5 c 128,-1,15
 448 291 448 291 419.5 319.5 c 128,-1,8
 391 348 391 348 350 348 c 128,-1,9
318 267 m 1,16,-1
 383 267 l 2,17,18
 390 267 390 267 394.5 262 c 128,-1,19
 399 257 399 257 399 250.5 c 128,-1,20
 399 244 399 244 394.5 239 c 128,-1,21
 390 234 390 234 383 234 c 2,22,-1
 318 234 l 1,23,-1
 317 234 l 2,24,25
 311 234 311 234 306 239 c 128,-1,26
 301 244 301 244 301 250.5 c 128,-1,27
 301 257 301 257 306 262 c 128,-1,28
 311 267 311 267 317 267 c 2,29,-1
 318 267 l 1,16,-1
350 299 m 256,30,31
 357 299 357 299 361.5 294.5 c 128,-1,32
 366 290 366 290 366 283 c 2,33,-1
 366 218 l 2,34,35
 366 211 366 211 361.5 206 c 128,-1,36
 357 201 357 201 350 201 c 128,-1,37
 343 201 343 201 338.5 206 c 128,-1,38
 334 211 334 211 334 218 c 2,39,-1
 334 283 l 2,40,41
 334 290 334 290 338.5 294.5 c 128,-1,42
 343 299 343 299 350 299 c 256,30,31
350 429 m 128,-1,44
 424 429 424 429 476.5 376.5 c 128,-1,45
 529 324 529 324 529 250 c 128,-1,46
 529 176 529 176 476.5 123.5 c 128,-1,47
 424 71 424 71 350 71 c 128,-1,48
 276 71 276 71 223.5 123.5 c 128,-1,49
 171 176 171 176 171 250 c 128,-1,50
 171 324 171 324 223.5 376.5 c 128,-1,43
 276 429 276 429 350 429 c 128,-1,44
350 397 m 128,-1,52
 289 397 289 397 246.5 354 c 128,-1,53
 204 311 204 311 204 250.5 c 128,-1,54
 204 190 204 190 246.5 147 c 128,-1,55
 289 104 289 104 350 104 c 128,-1,56
 411 104 411 104 454 147 c 128,-1,57
 497 190 497 190 497 250.5 c 128,-1,58
 497 311 497 311 454 354 c 128,-1,51
 411 397 411 397 350 397 c 128,-1,52
318 55 m 2,59,-1
 383 55 l 2,60,61
 403 55 403 55 417 40.5 c 128,-1,62
 431 26 431 26 431 6 c 2,63,-1
 431 -189 l 2,64,65
 431 -209 431 -209 417 -223.5 c 128,-1,66
 403 -238 403 -238 383 -238 c 2,67,-1
 318 -238 l 2,68,69
 297 -238 297 -238 283 -223.5 c 128,-1,70
 269 -209 269 -209 269 -189 c 2,71,-1
 269 6 l 2,72,73
 269 26 269 26 283 40.5 c 128,-1,74
 297 55 297 55 318 55 c 2,59,-1
318 22 m 2,75,76
 311 22 311 22 306 17.5 c 128,-1,77
 301 13 301 13 301 6 c 2,78,-1
 301 -189 l 2,79,80
 301 -196 301 -196 306 -200.5 c 128,-1,81
 311 -205 311 -205 318 -205 c 2,82,-1
 383 -205 l 2,83,84
 390 -205 390 -205 394.5 -200.5 c 128,-1,85
 399 -196 399 -196 399 -189 c 2,86,-1
 399 6 l 2,87,88
 399 13 399 13 394.5 17.5 c 128,-1,89
 390 22 390 22 383 22 c 2,90,-1
 318 22 l 2,75,76
317 27 m 1,91,-1
 317 148 l 1,92,-1
 383 148 l 1,93,-1
 383 27 l 1,94,-1
 317 27 l 1,91,-1
EndSplineSet
Validated: 5
EndChar

StartChar: vws
Encoding: 9 61449 9
Width: 700
VWidth: 600
Flags: W
LayerCount: 2
Fore
SplineSet
90.1591796875 -26.8779296875 m 1,0,-1
 90.18359375 -25.1533203125 l 2,1,2
 90.18359375 -24.8193359375 90.18359375 -24.8193359375 90.158203125 -24.625 c 0,3,4
 90.158203125 36.6708984375 90.158203125 36.6708984375 122.426757812 113.6953125 c 0,5,6
 155.025390625 192.758789062 155.025390625 192.758789062 195.697265625 249.474609375 c 0,7,8
 236.625976562 308.026367188 236.625976562 308.026367188 305.497070312 357.368164062 c 128,-1,9
 374.368164062 406.709960938 374.368164062 406.709960938 439.619140625 406.709960938 c 2,10,-1
 440.051757812 406.709960938 l 2,11,12
 515.890625 406.709960938 515.890625 406.709960938 562.86328125 345.489257812 c 128,-1,13
 609.834960938 284.26953125 609.834960938 284.26953125 609.834960938 208.073242188 c 0,14,15
 609.841796875 207.120117188 609.841796875 207.120117188 609.841796875 206.162109375 c 0,16,17
 609.841796875 147.89453125 609.841796875 147.89453125 583.9375 71.380859375 c 128,-1,18
 558.034179688 -5.1337890625 558.034179688 -5.1337890625 524.387695312 -66.818359375 c 128,-1,19
 490.741210938 -128.502929688 490.741210938 -128.502929688 428.99609375 -181.5 c 0,20,21
 366.59765625 -236.106445312 366.59765625 -236.106445312 302.3359375 -236.22265625 c 0,22,23
 207.750976562 -236.108398438 207.750976562 -236.108398438 149.76171875 -179.29296875 c 0,24,25
 90.1591796875 -121.665039062 90.1591796875 -121.665039062 90.1591796875 -26.8779296875 c 1,0,-1
440.077148438 369.88671875 m 0,26,27
 399.365234375 369.88671875 399.365234375 369.88671875 357.889648438 336.517578125 c 128,-1,28
 316.4140625 303.1484375 316.4140625 303.1484375 290.627929688 262.282226562 c 128,-1,29
 264.841796875 221.416015625 264.841796875 221.416015625 245.12890625 168.71484375 c 0,30,31
 224.489257812 116.109375 224.489257812 116.109375 215.083007812 66.1640625 c 0,32,33
 203.834960938 9.888671875 203.834960938 9.888671875 203.834960938 -22.5771484375 c 128,-1,34
 203.834960938 -55.04296875 203.834960938 -55.04296875 209.140625 -80.6083984375 c 128,-1,35
 214.447265625 -106.174804688 214.447265625 -106.174804688 224.713867188 -130.451171875 c 128,-1,36
 234.98046875 -154.727539062 234.98046875 -154.727539062 256.051757812 -170.420898438 c 128,-1,37
 277.123046875 -186.11328125 277.123046875 -186.11328125 302.34765625 -186.11328125 c 0,38,39
 353.037109375 -186.11328125 353.037109375 -186.11328125 405.350585938 -139.623046875 c 0,40,41
 459.971679688 -91.7119140625 459.971679688 -91.7119140625 491.334960938 -36.3349609375 c 128,-1,42
 522.697265625 19.041015625 522.697265625 19.041015625 548.111328125 90.4677734375 c 0,43,44
 571.84765625 155.6875 571.84765625 155.6875 572.208007812 208.0703125 c 0,45,46
 571.853515625 270.610351562 571.853515625 270.610351562 534.9609375 321.309570312 c 0,47,48
 498.813476562 369.88671875 498.813476562 369.88671875 440.077148438 369.88671875 c 0,26,27
EndSplineSet
Validated: 524289
EndChar

StartChar: anchor
Encoding: 10 61450 10
Width: 700
VWidth: 600
LayerCount: 2
Fore
SplineSet
349.709960938 301.984375 m 132,-1,1
 364.516601562 301.984375 364.516601562 301.984375 374.971679688 312.432617188 c 132,-1,2
 385.427734375 322.88671875 385.427734375 322.88671875 385.430664062 337.655273438 c 132,-1,3
 385.432617188 352.504882812 385.432617188 352.504882812 374.997070312 362.940429688 c 132,-1,4
 364.560546875 373.375976562 364.560546875 373.375976562 349.818359375 373.375976562 c 132,-1,5
 335.045898438 373.375976562 335.045898438 373.375976562 324.618164062 362.926757812 c 132,-1,6
 314.190429688 352.477539062 314.190429688 352.477539062 314.190429688 337.642578125 c 132,-1,7
 314.190429688 322.918945312 314.190429688 322.918945312 324.626953125 312.452148438 c 132,-1,0
 335.0625 301.984375 335.0625 301.984375 349.709960938 301.984375 c 132,-1,1
449.7265625 206.251953125 m 6,8,9
 461.426757812 206.251953125 461.426757812 206.251953125 468.626953125 199.952148438 c 4,10,11
 476.7265625 192.751953125 476.7265625 192.751953125 476.7265625 183.751953125 c 132,-1,12
 476.7265625 174.751953125 476.7265625 174.751953125 468.626953125 167.551757812 c 132,-1,13
 460.526367188 160.3515625 460.526367188 160.3515625 449.7265625 160.3515625 c 6,14,-1
 385.583007812 160.3515625 l 5,15,-1
 385.479492188 -131.266601562 l 5,16,17
 432.626953125 -122.248046875 432.626953125 -122.248046875 469.534179688 -90.099609375 c 4,18,19
 506.426757812 -58.34765625 506.426757812 -58.34765625 522.075195312 -13.2236328125 c 5,20,-1
 500.076171875 -5.916015625 l 6,21,22
 498.326171875 -5.248046875 498.326171875 -5.248046875 493.247070312 -2.3251953125 c 4,23,24
 483.026367188 5.5517578125 483.026367188 5.5517578125 483 18.162109375 c 4,25,26
 483.026367188 28.9521484375 483.026367188 28.9521484375 487.892578125 33.1884765625 c 4,27,28
 489.326171875 34.3515625 489.326171875 34.3515625 491.987304688 37.5732421875 c 6,29,-1
 579.575195312 119.794921875 l 6,30,31
 588.326171875 127.952148438 588.326171875 127.952148438 597.341796875 127.543945312 c 4,32,33
 606.326171875 127.952148438 606.326171875 127.952148438 612.494140625 121.981445312 c 4,34,35
 619.529296875 115.62109375 619.529296875 115.62109375 620.747070312 108.032226562 c 6,36,-1
 639.759765625 -10.4580078125 l 6,37,38
 640.526367188 -15.1484375 640.526367188 -15.1484375 640.421875 -16.240234375 c 4,39,40
 640.526367188 -26.84765625 640.526367188 -26.84765625 632.974609375 -34.373046875 c 4,41,42
 626.126953125 -41.248046875 626.126953125 -41.248046875 615.020507812 -41.8125 c 4,43,44
 611.86328125 -42.1337890625 611.86328125 -42.1337890625 607.485351562 -40.6787109375 c 6,45,-1
 586.946289062 -33.849609375 l 5,46,47
 562.2265625 -109.6484375 562.2265625 -109.6484375 496.9765625 -157.508789062 c 4,48,49
 431.7265625 -205.047851562 431.7265625 -205.047851562 349.984375 -205.48046875 c 4,50,51
 267.926757812 -205.047851562 267.926757812 -205.047851562 203.03515625 -157.543945312 c 4,52,53
 138.326171875 -109.6484375 138.326171875 -109.6484375 113.048828125 -34.0078125 c 5,54,-1
 92.447265625 -40.6982421875 l 6,55,56
 73.5263671875 -46.6484375 73.5263671875 -46.6484375 64.30078125 -34.34765625 c 4,57,58
 57.8955078125 -24.541015625 57.8955078125 -24.541015625 60.1533203125 -10.4580078125 c 6,59,-1
 79.1484375 108.032226562 l 6,60,61
 80.7265625 116.251953125 80.7265625 116.251953125 87.380859375 121.97265625 c 4,62,63
 94.2265625 127.952148438 94.2265625 127.952148438 102.709960938 127.537109375 c 4,64,65
 111.57421875 127.963867188 111.57421875 127.963867188 120.337890625 119.745117188 c 6,66,-1
 207.95703125 37.5732421875 l 6,67,68
 211.2265625 34.3515625 211.2265625 34.3515625 212.002929688 33.181640625 c 4,69,70
 218.426757812 24.4521484375 218.426757812 24.4521484375 216.734375 14.36328125 c 4,71,72
 214.826171875 1.9521484375 214.826171875 1.9521484375 206.7109375 -2.3251953125 c 4,73,74
 196.826171875 -7.0478515625 196.826171875 -7.0478515625 177.661132812 -13.2353515625 c 5,75,76
 194.126953125 -59.248046875 194.126953125 -59.248046875 231.780273438 -91.130859375 c 4,77,78
 269.7265625 -123.1484375 269.7265625 -123.1484375 318.150390625 -131.876953125 c 5,79,-1
 318.046875 160.3515625 l 5,80,-1
 249.926757812 160.3515625 l 6,81,82
 239.126953125 160.3515625 239.126953125 160.3515625 231.026367188 167.551757812 c 132,-1,83
 222.926757812 174.751953125 222.926757812 174.751953125 222.926757812 183.751953125 c 132,-1,84
 222.926757812 192.751953125 222.926757812 192.751953125 231.026367188 199.952148438 c 4,85,86
 238.2265625 206.251953125 238.2265625 206.251953125 249.926757812 206.251953125 c 6,87,-1
 318.03125 206.251953125 l 5,88,-1
 318.012695312 257.696289062 l 5,89,90
 294.026367188 267.452148438 294.026367188 267.452148438 279.487304688 289.536132812 c 4,91,92
 264.326171875 311.551757812 264.326171875 311.551757812 264.669921875 337.642578125 c 4,93,94
 264.326171875 373.65234375 264.326171875 373.65234375 290.12109375 399.086914062 c 4,95,96
 315.626953125 424.952148438 315.626953125 424.952148438 351.484375 424.51953125 c 4,97,98
 387.626953125 424.952148438 387.626953125 424.952148438 412.935546875 399.103515625 c 4,99,100
 438.026367188 373.65234375 438.026367188 373.65234375 438.348632812 337.655273438 c 4,101,102
 438.026367188 310.65234375 438.026367188 310.65234375 423.827148438 289.400390625 c 4,103,104
 409.2265625 267.452148438 409.2265625 267.452148438 385.6171875 257.696289062 c 5,105,-1
 385.599609375 206.251953125 l 5,106,-1
 449.7265625 206.251953125 l 6,8,9
EndSplineSet
Validated: 524321
EndChar

StartChar: pap
Encoding: 11 61451 11
Width: 700
VWidth: 600
Flags: W
LayerCount: 2
Back
SplineSet
209.272460938 102.28515625 m 261,0,-1
 234.138671875 186.25 l 261,1,-1
 233.959960938 191.958007812 l 5,2,-1
 229.213867188 195.685546875 l 5,3,-1
 140.530273438 221.169921875 l 261,4,-1
 133.526367188 219.83203125 l 5,5,-1
 128.151367188 213.505859375 l 5,6,-1
 95.5322265625 104.209960938 l 261,7,-1
 96.861328125 97.310546875 l 5,8,-1
 102.475585938 94.470703125 l 261,9,-1
 199.056640625 94.359375 l 261,10,-1
 205.662109375 96.69140625 l 5,11,-1
 209.272460938 102.28515625 l 261,0,-1
214.755859375 182.780273438 m 261,12,-1
 193.478515625 110.763671875 l 261,13,-1
 114.8828125 113.392578125 l 261,14,-1
 140.494140625 199.76953125 l 261,15,-1
 214.755859375 182.780273438 l 261,12,-1
164.131835938 151.895507812 m 261,16,-1
 181.14453125 199.877929688 l 261,17,-1
 136.278320312 211.416015625 l 261,18,-1
 117.146484375 157.499023438 l 261,19,-1
 164.131835938 151.895507812 l 261,16,-1
200.552734375 102.43359375 m 261,20,-1
 211.1171875 146.291992188 l 261,21,-1
 164.131835938 151.895507812 l 261,22,-1
 152.40234375 103.248046875 l 261,23,-1
 200.552734375 102.43359375 l 261,20,-1
240.504882812 200.399414062 m 261,24,-1
 286.459960938 268.619140625 l 261,25,-1
 288.259765625 273.818359375 l 5,26,-1
 285.727539062 279.283203125 l 5,27,-1
 222.991210938 341.685546875 l 261,28,-1
 216.379882812 343.120117188 l 5,29,-1
 208.711914062 338.627929688 l 5,30,-1
 137.119140625 233.432617188 l 261,31,-1
 136.22265625 225.682617188 l 5,32,-1
 140.530273438 221.169921875 l 261,33,-1
 229.213867188 195.685546875 l 261,34,-1
 235.840820312 196.138671875 l 5,35,-1
 240.504882812 200.399414062 l 261,24,-1
269.1875 273.547851562 m 261,36,-1
 228.291992188 212.836914062 l 261,37,-1
 157.6484375 237.83203125 l 261,38,-1
 212.931640625 319.533203125 l 261,39,-1
 269.1875 273.547851562 l 261,36,-1
214.607421875 262.26171875 m 261,40,-1
 247.5859375 303.623046875 l 261,41,-1
 214.672851562 333.259765625 l 261,42,-1
 175.08984375 283.674804688 l 261,43,-1
 214.607421875 262.26171875 l 261,40,-1
232.578125 202.931640625 m 261,44,-1
 254.125976562 240.848632812 l 261,45,-1
 214.607421875 262.26171875 l 261,46,-1
 188.8125 216.916015625 l 261,47,-1
 232.578125 202.931640625 l 261,44,-1
296.473632812 278.41015625 m 261,48,-1
 358.475585938 314.290039062 l 261,49,-1
 362.396484375 317.864257812 l 5,50,-1
 363.758789062 324.297851562 l 5,51,-1
 357.66015625 418.203125 l 261,52,-1
 353.69921875 423.36328125 l 5,53,-1
 345.077148438 423.608398438 l 5,54,-1
 226.276367188 355.794921875 l 261,55,-1
 221.57421875 348.12109375 l 5,56,-1
 222.991210938 341.685546875 l 5,57,-1
 285.727539062 279.283203125 l 261,58,-1
 291.240234375 276.733398438 l 5,59,-1
 296.473632812 278.41015625 l 261,48,-1
349.672851562 328.959960938 m 261,60,-1
 291.525390625 295.375 l 261,61,-1
 245.73046875 351.543945312 l 261,62,-1
 336.124023438 403.427734375 l 261,63,-1
 349.672851562 328.959960938 l 261,60,-1
304.0859375 348.4609375 m 261,64,-1
 351.776367188 368.94921875 l 261,65,-1
 346.10546875 415.2265625 l 261,66,-1
 285.03515625 389.034179688 l 261,67,-1
 304.0859375 348.4609375 l 261,64,-1
291.091796875 284.34375 m 261,68,-1
 323.138671875 307.887695312 l 261,69,-1
 304.0859375 348.4609375 l 261,70,-1
 261.374023438 317.102539062 l 261,71,-1
 291.091796875 284.34375 l 261,68,-1
370.185546875 317 m 261,72,-1
 431.435546875 310.295898438 l 261,73,-1
 436.423828125 310.884765625 l 5,74,-1
 441.608398438 315.649414062 l 5,75,-1
 499.817382812 402.174804688 l 261,76,-1
 500.684570312 409.241210938 l 261,77,-1
 495.284179688 414.974609375 l 5,78,-1
 369.159179688 429.18359375 l 261,79,-1
 360.760742188 424.9375 l 5,80,-1
 357.66015625 418.203125 l 5,81,-1
 363.758789062 324.297851562 l 261,82,-1
 365.904296875 318.67578125 l 5,83,-1
 370.185546875 317 l 261,72,-1
435.432617188 328.858398438 m 261,84,-1
 376.885742188 335.258789062 l 261,85,-1
 380.393554688 413.686523438 l 261,86,-1
 476.063476562 403.006835938 l 261,87,-1
 435.432617188 328.858398438 l 261,84,-1
418.58203125 375.051757812 m 261,88,-1
 463.360351562 362.635742188 l 261,89,-1
 490.388671875 406.94921875 l 261,90,-1
 432.131835938 423.083984375 l 261,91,-1
 418.58203125 375.051757812 l 261,88,-1
370.106445312 325.6015625 m 261,92,-1
 405.032226562 327.01953125 l 261,93,-1
 418.58203125 375.051757812 l 261,94,-1
 369.672851562 373.091796875 l 261,95,-1
 370.106445312 325.6015625 l 261,92,-1
441.149414062 305.01171875 m 261,96,-1
 481.530273438 257.53125 l 261,97,-1
 485.6796875 254.819335938 l 5,98,-1
 492.28125 256.16796875 l 5,99,-1
 584.64453125 303.995117188 l 261,100,-1
 589.423828125 309.890625 l 5,101,-1
 589.032226562 317.810546875 l 5,102,-1
 514.444335938 404.56640625 l 261,103,-1
 506.263671875 406.1328125 l 5,104,-1
 499.817382812 402.174804688 l 5,105,-1
 441.608398438 315.649414062 l 261,106,-1
 439.329101562 309.303710938 l 5,107,-1
 441.149414062 305.01171875 l 261,96,-1
495.139648438 272.83984375 m 261,108,-1
 457.751953125 316.734375 l 261,109,-1
 511.458984375 383.846679688 l 261,110,-1
 568.40234375 317.309570312 l 261,111,-1
 495.139648438 272.83984375 l 261,108,-1
511.627929688 325.688476562 m 261,112,-1
 535.28125 287.670898438 l 261,113,-1
 580.790039062 313.188476562 l 261,114,-1
 551.4453125 360.26953125 l 261,115,-1
 511.627929688 325.688476562 l 261,112,-1
446.76953125 312.64453125 m 261,116,-1
 471.810546875 291.107421875 l 261,117,-1
 511.627929688 325.688476562 l 261,118,-1
 477.796875 354.7890625 l 261,119,-1
 446.76953125 312.64453125 l 261,116,-1
486.09765625 245.9296875 m 261,120,-1
 496.427734375 170.814453125 l 261,121,-1
 498.889648438 165.89453125 l 5,122,-1
 505.0859375 164.513671875 l 5,123,-1
 603.099609375 177.516601562 l 261,124,-1
 609.487304688 181.328125 l 5,125,-1
 612.267578125 188.693359375 l 5,126,-1
 596.553710938 298.725585938 l 261,127,-1
 591.572265625 304.252929688 l 5,128,-1
 584.64453125 303.995117188 l 5,129,-1
 492.28125 256.16796875 l 261,130,-1
 487.03515625 251.373046875 l 5,131,-1
 486.09765625 245.9296875 l 261,120,-1
514.236328125 181.3515625 m 261,132,-1
 505.186523438 247.372070312 l 261,133,-1
 582.573242188 281.479492188 l 261,134,-1
 594.55859375 195.571289062 l 261,135,-1
 514.236328125 181.3515625 l 261,132,-1
551.796875 227.2421875 m 261,136,-1
 554.34765625 179.75390625 l 261,137,-1
 603.384765625 187.322265625 l 261,138,-1
 600.452148438 241.551757812 l 261,139,-1
 551.796875 227.2421875 l 261,136,-1
494.56640625 249.977539062 m 261,140,-1
 503.142578125 212.932617188 l 261,141,-1
 551.796875 227.2421875 l 261,142,-1
 541.325195312 272.327148438 l 261,143,-1
 494.56640625 249.977539062 l 261,140,-1
495.821289062 155.77734375 m 261,144,-1
 481.80078125 69.232421875 l 261,145,-1
 482.88671875 63.5166015625 l 5,146,-1
 488.330078125 60.6533203125 l 5,147,-1
 582.872070312 51.4658203125 l 261,148,-1
 589.719726562 53.8212890625 l 5,149,-1
 594.01953125 60.4873046875 l 5,150,-1
 611.462890625 168.721679688 l 261,151,-1
 609.186523438 175.434570312 l 5,152,-1
 603.099609375 177.516601562 l 5,153,-1
 505.0859375 164.513671875 l 261,154,-1
 498.7109375 161.459960938 l 5,155,-1
 495.821289062 155.77734375 l 261,144,-1
500.9921875 76.0078125 m 261,156,-1
 512.974609375 149.77734375 l 261,157,-1
 593.034179688 157.150390625 l 261,158,-1
 579.133789062 71.337890625 l 261,159,-1
 500.9921875 76.0078125 l 261,156,-1
548.021484375 113.590820312 m 261,160,-1
 537.911132812 64.859375 l 261,161,-1
 585.415039062 61.158203125 l 261,162,-1
 596.420898438 114.172851562 l 261,163,-1
 548.021484375 113.590820312 l 261,160,-1
504.6875 156.770507812 m 261,164,-1
 499.622070312 113.008789062 l 261,165,-1
 548.021484375 113.590820312 l 261,166,-1
 553.641601562 162.25 l 261,167,-1
 504.6875 156.770507812 l 261,164,-1
477.60546875 53.806640625 m 261,168,-1
 444.284179688 -24.017578125 l 261,169,-1
 443.65625 -29.4833984375 l 5,170,-1
 447.580078125 -33.9765625 l 5,171,-1
 527.240234375 -75.8642578125 l 261,172,-1
 534.25 -75.6162109375 l 5,173,-1
 540.73828125 -69.76953125 l 5,174,-1
 588.647460938 40.7421875 l 261,175,-1
 588.076171875 48.005859375 l 5,176,-1
 582.872070312 51.4658203125 l 5,177,-1
 488.330078125 60.6533203125 l 261,178,-1
 481.651367188 58.9716796875 l 5,179,-1
 477.60546875 53.806640625 l 261,168,-1
463.170898438 -24.1337890625 m 261,180,-1
 492.23046875 43.8447265625 l 261,181,-1
 568.73046875 33.17578125 l 261,182,-1
 531.529296875 -53.3505859375 l 261,183,-1
 463.170898438 -24.1337890625 l 261,180,-1
516.149414062 -0.712890625 m 261,184,-1
 492.51171875 -46.8935546875 l 261,185,-1
 533.342773438 -66.26171875 l 261,186,-1
 560.98828125 -12.3173828125 l 261,187,-1
 516.149414062 -0.712890625 l 261,184,-1
486.119140625 52.8046875 m 261,188,-1
 471.310546875 10.892578125 l 261,189,-1
 516.149414062 -0.712890625 l 261,190,-1
 533.126953125 47.2744140625 l 261,191,-1
 486.119140625 52.8046875 l 261,188,-1
436.297851562 -36.1611328125 m 261,192,-1
 381.94921875 -88.0693359375 l 261,193,-1
 378.91015625 -92.583984375 l 5,194,-1
 379.470703125 -98.8271484375 l 5,195,-1
 415.0390625 -181.40234375 l 261,196,-1
 420.557617188 -184.888671875 l 5,197,-1
 429.116210938 -182.633789062 l 5,198,-1
 527.787109375 -89.453125 l 261,199,-1
 530.396484375 -81.373046875 l 5,200,-1
 527.240234375 -75.8642578125 l 5,201,-1
 447.580078125 -33.9765625 l 261,202,-1
 441.286132812 -33.0888671875 l 5,203,-1
 436.297851562 -36.1611328125 l 261,192,-1
395.5234375 -98.564453125 m 261,204,-1
 445.672851562 -50.712890625 l 261,205,-1
 507.133789062 -90.359375 l 261,206,-1
 431.743164062 -161.90234375 l 261,207,-1
 395.5234375 -98.564453125 l 261,204,-1
447.576171875 -103.044921875 m 261,208,-1
 405.533203125 -135.3515625 l 261,209,-1
 425.5 -175.3828125 l 261,210,-1
 478.48046875 -134.694335938 l 261,211,-1
 447.576171875 -103.044921875 l 261,208,-1
443.3125 -40.248046875 m 261,212,-1
 416.671875 -71.3955078125 l 261,213,-1
 447.576171875 -103.044921875 l 261,214,-1
 482.041992188 -62.8076171875 l 261,215,-1
 443.3125 -40.248046875 l 261,212,-1
370.401367188 -94.40234375 m 261,216,-1
 304.739257812 -108.452148438 l 261,217,-1
 299.841796875 -110.666015625 l 5,218,-1
 296.321289062 -116.630859375 l 5,219,-1
 268.7421875 -212.641601562 l 261,220,-1
 270.353515625 -219.146484375 l 5,221,-1
 277.658203125 -222.333984375 l 5,222,-1
 407.2421875 -194.6328125 l 261,223,-1
 414.116210938 -188.356445312 l 5,224,-1
 415.0390625 -181.40234375 l 5,225,-1
 379.470703125 -98.8271484375 l 261,226,-1
 375.463867188 -94.4736328125 l 6,227,228
 372.846679688 -93.162109375 372.846679688 -93.162109375 370.401367188 -94.40234375 c 5,229,-1
 370.401367188 -94.40234375 l 261,216,-1
307.465820312 -126.174804688 m 261,230,-1
 369.309570312 -112.946289062 l 261,231,-1
 391.1953125 -184.158203125 l 261,232,-1
 292.467773438 -205.271484375 l 261,233,-1
 307.465820312 -126.174804688 l 261,230,-1
340.319335938 -161.69921875 m 261,234,-1
 291.198242188 -165.393554688 l 261,235,-1
 279.735351562 -213.602539062 l 261,236,-1
 342.486328125 -208.84765625 l 261,237,-1
 340.319335938 -161.69921875 l 261,234,-1
373.225585938 -102.086914062 m 261,238,-1
 338.15234375 -114.549804688 l 261,239,-1
 340.319335938 -161.69921875 l 261,240,-1
 388.821289062 -144.517578125 l 261,241,-1
 373.225585938 -102.086914062 l 261,238,-1
293.0546875 -107.130859375 m 261,242,-1
 238.600585938 -78.9892578125 l 261,243,-1
 233.771484375 -78.005859375 l 5,244,-1
 227.616210938 -81.283203125 l 5,245,-1
 149.284179688 -151.9375 l 261,246,-1
 146.369140625 -158.770507812 l 5,247,-1
 149.427734375 -165.974609375 l 5,248,-1
 254.927734375 -219.754882812 l 261,249,-1
 263.705078125 -218.33203125 l 5,250,-1
 268.7421875 -212.641601562 l 5,251,-1
 296.321289062 -116.630859375 l 261,252,-1
 296.34765625 -110.271484375 l 5,253,-1
 293.0546875 -107.130859375 l 261,242,-1
229.580078125 -96.7236328125 m 261,254,-1
 280.7421875 -123.140625 l 261,255,-1
 250.458984375 -200.471679688 l 261,256,-1
 170.217773438 -159.354492188 l 261,257,-1
 229.580078125 -96.7236328125 l 261,254,-1
230.15625 -148.940429688 m 261,258,-1
 194.014648438 -122.481445312 l 261,259,-1
 156.264648438 -159.3046875 l 261,260,-1
 201.712890625 -192.5546875 l 261,261,-1
 230.15625 -148.940429688 l 261,258,-1
290.130859375 -115.765625 m 261,262,-1
 258.599609375 -105.326171875 l 261,263,-1
 230.15625 -148.940429688 l 261,264,-1
 273.991210938 -163.442382812 l 261,265,-1
 290.130859375 -115.765625 l 261,262,-1
231.040039062 -70.5537109375 m 261,266,-1
 204.87890625 -8.68359375 l 261,267,-1
 201.540039062 -4.7958984375 l 5,268,-1
 195.0234375 -4.681640625 l 5,269,-1
 97.7890625 -33.84375 l 262,270,271
 94.1396484375 -34.9384765625 94.1396484375 -34.9384765625 92 -38.724609375 c 6,272,-1
 90.580078125 -46.5966796875 l 5,273,-1
 135.3984375 -150.325195312 l 261,274,-1
 142.303710938 -154.133789062 l 5,275,-1
 149.284179688 -151.9375 l 5,276,-1
 227.616210938 -81.283203125 l 261,277,-1
 231.514648438 -75.4892578125 l 5,278,-1
 231.040039062 -70.5537109375 l 261,266,-1
188.72265625 -21.541015625 m 261,279,-1
 212.478515625 -77.646484375 l 261,280,-1
 144.176757812 -130.323242188 l 261,281,-1
 109.961914062 -50.3017578125 l 261,282,-1
 188.72265625 -21.541015625 l 261,279,-1
160.483398438 -71.7861328125 m 261,283,-1
 147.729492188 -27.6396484375 l 261,284,-1
 99.34375 -43.689453125 l 261,285,-1
 114.638671875 -96.5263671875 l 261,286,-1
 160.483398438 -71.7861328125 l 261,283,-1
223.706054688 -76.669921875 m 261,287,-1
 206.328125 -47.044921875 l 261,288,-1
 160.483398438 -71.7861328125 l 261,289,-1
 183.219726562 -110.439453125 l 261,290,-1
 223.706054688 -76.669921875 l 261,287,-1
202.993164062 4.7421875 m 261,291,-1
 206.48046875 86.5146484375 l 261,292,-1
 204.837890625 92.041015625 l 5,293,-1
 199.056640625 94.359375 l 5,294,-1
 102.475585938 94.470703125 l 261,295,-1
 95.7783203125 91.5478515625 l 5,296,-1
 92.0703125 84.6494140625 l 5,297,-1
 87.732421875 -26.3447265625 l 261,298,-1
 91.2255859375 -32.75 l 5,299,-1
 97.7890625 -33.84375 l 5,300,-1
 195.0234375 -4.681640625 l 261,301,-1
 200.982421875 -0.8193359375 l 5,302,-1
 202.993164062 4.7421875 l 261,291,-1
187.712890625 78.123046875 m 261,303,-1
 184.64453125 7.384765625 l 261,304,-1
 104.528320312 -11.9208984375 l 261,305,-1
 108.172851562 75.3798828125 l 261,306,-1
 187.712890625 78.123046875 l 261,303,-1
144.127929688 36.9580078125 m 261,307,-1
 149.274414062 85.58203125 l 261,308,-1
 100.842773438 84.7919921875 l 261,309,-1
 95.1328125 30.73046875 l 261,310,-1
 144.127929688 36.9580078125 l 261,307,-1
194.15625 2.3583984375 m 261,311,-1
 193.123046875 43.185546875 l 261,312,-1
 144.127929688 36.9580078125 l 261,313,-1
 145.362304688 -10.8017578125 l 261,314,-1
 194.15625 2.3583984375 l 261,311,-1
EndSplineSet
Fore
SplineSet
202.993164062 4.7421875 m 1,0,-1
 206.48046875 86.5146484375 l 1,1,-1
 204.837890625 92.041015625 l 1,2,-1
 199.056640625 94.359375 l 1,3,-1
 205.662109375 96.69140625 l 1,4,-1
 209.272460938 102.28515625 l 1,5,-1
 234.138671875 186.25 l 1,6,-1
 233.959960938 191.958007812 l 1,7,-1
 229.213867188 195.685546875 l 1,8,-1
 235.840820312 196.138671875 l 1,9,-1
 240.504882812 200.399414062 l 1,10,-1
 286.459960938 268.619140625 l 1,11,-1
 288.259765625 273.818359375 l 1,12,-1
 285.727539062 279.283203125 l 1,13,-1
 291.240234375 276.733398438 l 1,14,-1
 296.473632812 278.41015625 l 1,15,-1
 358.475585938 314.290039062 l 1,16,-1
 362.396484375 317.864257812 l 1,17,-1
 363.758789062 324.297851562 l 1,18,-1
 365.904296875 318.67578125 l 1,19,-1
 370.185546875 317 l 1,20,-1
 431.435546875 310.295898438 l 1,21,-1
 436.423828125 310.884765625 l 1,22,-1
 441.608398438 315.649414062 l 1,23,-1
 439.329101562 309.303710938 l 1,24,-1
 441.149414062 305.01171875 l 1,25,-1
 481.530273438 257.53125 l 1,26,-1
 485.6796875 254.819335938 l 1,27,-1
 492.28125 256.16796875 l 1,28,-1
 487.03515625 251.373046875 l 1,29,-1
 486.09765625 245.9296875 l 1,30,-1
 496.427734375 170.814453125 l 1,31,-1
 498.889648438 165.89453125 l 1,32,-1
 505.0859375 164.513671875 l 1,33,-1
 498.7109375 161.459960938 l 1,34,-1
 495.821289062 155.77734375 l 1,35,-1
 481.80078125 69.232421875 l 1,36,-1
 482.88671875 63.5166015625 l 1,37,-1
 488.330078125 60.6533203125 l 1,38,-1
 481.651367188 58.9716796875 l 1,39,-1
 477.60546875 53.806640625 l 1,40,-1
 444.284179688 -24.017578125 l 1,41,-1
 443.65625 -29.4833984375 l 1,42,-1
 447.580078125 -33.9765625 l 1,43,-1
 441.286132812 -33.0888671875 l 1,44,-1
 436.297851562 -36.1611328125 l 1,45,-1
 381.94921875 -88.0693359375 l 1,46,-1
 378.91015625 -92.583984375 l 1,47,-1
 379.470703125 -98.8271484375 l 1,48,-1
 375.463867188 -94.4736328125 l 2,49,50
 372.846679688 -93.162109375 372.846679688 -93.162109375 370.401367188 -94.40234375 c 2,51,-1
 304.739257812 -108.452148438 l 1,52,-1
 299.841796875 -110.666015625 l 1,53,-1
 296.321289062 -116.630859375 l 1,54,-1
 296.34765625 -110.271484375 l 1,55,-1
 293.0546875 -107.130859375 l 1,56,-1
 238.600585938 -78.9892578125 l 1,57,-1
 233.771484375 -78.005859375 l 1,58,-1
 227.616210938 -81.283203125 l 1,59,-1
 231.514648438 -75.4892578125 l 1,60,-1
 231.040039062 -70.5537109375 l 1,61,-1
 204.87890625 -8.68359375 l 1,62,-1
 201.540039062 -4.7958984375 l 1,63,-1
 195.0234375 -4.681640625 l 1,64,-1
 200.982421875 -0.8193359375 l 1,65,-1
 202.993164062 4.7421875 l 1,0,-1
144.127929688 36.9580078125 m 1,66,-1
 145.138671875 -2.134765625 l 1,67,-1
 104.528320312 -11.9208984375 l 1,68,-1
 106.368164062 32.158203125 l 1,69,-1
 144.127929688 36.9580078125 l 1,66,-1
144.127929688 36.9580078125 m 1,70,-1
 148.340820312 76.765625 l 1,71,-1
 187.712890625 78.123046875 l 1,72,-1
 186.159179688 42.30078125 l 1,73,-1
 144.127929688 36.9580078125 l 1,70,-1
160.483398438 -71.7861328125 m 1,74,-1
 179.081054688 -103.403320312 l 1,75,-1
 144.176757812 -130.323242188 l 1,76,-1
 126.897460938 -89.9111328125 l 1,77,-1
 160.483398438 -71.7861328125 l 1,74,-1
160.483398438 -71.7861328125 m 1,78,-1
 150.047851562 -35.6640625 l 1,79,-1
 188.72265625 -21.541015625 l 1,80,-1
 200.787109375 -50.03515625 l 1,81,-1
 160.483398438 -71.7861328125 l 1,78,-1
97.7890625 -33.84375 m 1,82,83
 94.1396484375 -34.9384765625 94.1396484375 -34.9384765625 92 -38.724609375 c 2,84,-1
 90.580078125 -46.5966796875 l 1,85,-1
 135.3984375 -150.325195312 l 1,86,-1
 142.303710938 -154.133789062 l 1,87,-1
 149.284179688 -151.9375 l 1,88,-1
 146.369140625 -158.770507812 l 1,89,-1
 149.427734375 -165.974609375 l 1,90,-1
 254.927734375 -219.754882812 l 1,91,-1
 263.705078125 -218.33203125 l 1,92,-1
 268.7421875 -212.641601562 l 1,93,-1
 270.353515625 -219.146484375 l 1,94,-1
 277.658203125 -222.333984375 l 1,95,-1
 339.791015625 -209.051757812 l 1,96,-1
 342.486328125 -208.84765625 l 1,97,-1
 342.469726562 -208.479492188 l 1,98,-1
 407.2421875 -194.6328125 l 1,99,-1
 414.116210938 -188.356445312 l 1,100,-1
 415.0390625 -181.40234375 l 1,101,-1
 420.557617188 -184.888671875 l 1,102,-1
 429.116210938 -182.633789062 l 1,103,-1
 527.787109375 -89.453125 l 1,104,-1
 530.396484375 -81.373046875 l 1,105,-1
 527.240234375 -75.8642578125 l 1,106,-1
 534.25 -75.6162109375 l 1,107,-1
 540.73828125 -69.76953125 l 1,108,-1
 588.647460938 40.7421875 l 1,109,-1
 588.076171875 48.005859375 l 1,110,-1
 582.872070312 51.4658203125 l 1,111,-1
 589.719726562 53.8212890625 l 1,112,-1
 594.01953125 60.4873046875 l 1,113,-1
 611.462890625 168.721679688 l 1,114,-1
 609.186523438 175.434570312 l 1,115,-1
 603.099609375 177.516601562 l 1,116,-1
 609.487304688 181.328125 l 1,117,-1
 612.267578125 188.693359375 l 1,118,-1
 596.553710938 298.725585938 l 1,119,-1
 591.572265625 304.252929688 l 1,120,-1
 584.64453125 303.995117188 l 1,121,-1
 589.423828125 309.890625 l 1,122,-1
 589.032226562 317.810546875 l 1,123,-1
 514.444335938 404.56640625 l 1,124,-1
 506.263671875 406.1328125 l 1,125,-1
 499.817382812 402.174804688 l 1,126,-1
 500.684570312 409.241210938 l 1,127,-1
 495.284179688 414.974609375 l 1,128,-1
 438.186523438 421.407226562 l 1,129,-1
 432.131835938 423.083984375 l 1,130,-1
 431.859375 422.120117188 l 1,131,-1
 369.159179688 429.18359375 l 1,132,-1
 360.760742188 424.9375 l 1,133,-1
 357.66015625 418.203125 l 1,134,-1
 353.69921875 423.36328125 l 1,135,-1
 345.077148438 423.608398438 l 1,136,-1
 226.276367188 355.794921875 l 1,137,-1
 221.57421875 348.12109375 l 1,138,-1
 222.991210938 341.685546875 l 1,139,-1
 216.379882812 343.120117188 l 1,140,-1
 208.711914062 338.627929688 l 1,141,-1
 137.119140625 233.432617188 l 1,142,-1
 136.22265625 225.682617188 l 1,143,-1
 140.530273438 221.169921875 l 1,144,-1
 133.526367188 219.83203125 l 1,145,-1
 128.151367188 213.505859375 l 1,146,-1
 95.5322265625 104.209960938 l 1,147,-1
 96.861328125 97.310546875 l 1,148,-1
 102.475585938 94.470703125 l 1,149,-1
 95.7783203125 91.5478515625 l 1,150,-1
 92.0703125 84.6494140625 l 1,151,-1
 87.732421875 -26.3447265625 l 1,152,-1
 91.2255859375 -32.75 l 1,153,-1
 97.7890625 -33.84375 l 1,82,83
230.15625 -148.940429688 m 1,154,-1
 265.99609375 -160.796875 l 1,155,-1
 250.458984375 -200.471679688 l 1,156,-1
 210.052734375 -179.766601562 l 1,157,-1
 230.15625 -148.940429688 l 1,154,-1
230.15625 -148.940429688 m 1,158,-1
 200.598632812 -127.30078125 l 1,159,-1
 229.580078125 -96.7236328125 l 1,160,-1
 255.486328125 -110.099609375 l 1,161,-1
 230.15625 -148.940429688 l 1,158,-1
340.319335938 -161.69921875 m 1,162,-1
 379.975585938 -147.651367188 l 1,163,-1
 391.1953125 -184.158203125 l 1,164,-1
 341.836914062 -194.713867188 l 1,165,-1
 340.319335938 -161.69921875 l 1,162,-1
340.319335938 -161.69921875 m 1,166,-1
 300.157226562 -164.719726562 l 1,167,-1
 307.465820312 -126.174804688 l 1,168,-1
 338.3828125 -119.561523438 l 1,169,-1
 340.319335938 -161.69921875 l 1,166,-1
447.576171875 -103.044921875 m 1,170,-1
 475.771484375 -70.1279296875 l 1,171,-1
 507.133789062 -90.359375 l 1,172,-1
 469.791015625 -125.795898438 l 1,173,-1
 447.576171875 -103.044921875 l 1,170,-1
447.576171875 -103.044921875 m 1,174,-1
 413.194335938 -129.46484375 l 1,175,-1
 395.5234375 -98.564453125 l 1,176,-1
 420.205078125 -75.013671875 l 1,177,-1
 447.576171875 -103.044921875 l 1,174,-1
516.149414062 -0.712890625 m 1,178,-1
 530.047851562 38.5703125 l 1,179,-1
 568.73046875 33.17578125 l 1,180,-1
 550.354492188 -9.5654296875 l 1,181,-1
 516.149414062 -0.712890625 l 1,178,-1
516.149414062 -0.712890625 m 1,182,-1
 496.803710938 -38.5087890625 l 1,183,-1
 463.170898438 -24.1337890625 l 1,184,-1
 477.462890625 9.2998046875 l 1,185,-1
 516.149414062 -0.712890625 l 1,182,-1
548.021484375 113.590820312 m 1,186,-1
 552.623046875 153.428710938 l 1,187,-1
 593.034179688 157.150390625 l 1,188,-1
 586.051757812 114.047851562 l 1,189,-1
 548.021484375 113.590820312 l 1,186,-1
548.021484375 113.590820312 m 1,190,-1
 539.743164062 73.6923828125 l 1,191,-1
 500.9921875 76.0078125 l 1,192,-1
 507.016601562 113.09765625 l 1,193,-1
 548.021484375 113.590820312 l 1,190,-1
551.796875 227.2421875 m 1,194,-1
 543.227539062 264.137695312 l 1,195,-1
 582.573242188 281.479492188 l 1,196,-1
 588.62890625 238.07421875 l 1,197,-1
 551.796875 227.2421875 l 1,194,-1
551.796875 227.2421875 m 1,198,-1
 553.884765625 188.37109375 l 1,199,-1
 514.236328125 181.3515625 l 1,200,-1
 509.645507812 214.844726562 l 1,201,-1
 551.796875 227.2421875 l 1,198,-1
511.627929688 325.688476562 m 1,202,-1
 483.961914062 349.486328125 l 1,203,-1
 511.458984375 383.846679688 l 1,204,-1
 540.08203125 350.401367188 l 1,205,-1
 511.627929688 325.688476562 l 1,202,-1
511.627929688 325.688476562 m 1,206,-1
 530.975585938 294.591796875 l 1,207,-1
 495.139648438 272.83984375 l 1,208,-1
 476.276367188 294.986328125 l 1,209,-1
 511.627929688 325.688476562 l 1,206,-1
418.58203125 375.051757812 m 1,210,-1
 378.59375 373.44921875 l 1,211,-1
 380.393554688 413.686523438 l 1,212,-1
 427.982421875 408.374023438 l 1,213,-1
 418.58203125 375.051757812 l 1,210,-1
418.58203125 375.051757812 m 1,214,-1
 455.18359375 364.903320312 l 1,215,-1
 435.432617188 328.858398438 l 1,216,-1
 406.4453125 332.02734375 l 1,217,-1
 418.58203125 375.051757812 l 1,214,-1
304.0859375 348.4609375 m 1,218,-1
 269.154296875 322.814453125 l 1,219,-1
 245.73046875 351.543945312 l 1,220,-1
 290.557617188 377.2734375 l 1,221,-1
 304.0859375 348.4609375 l 1,218,-1
304.0859375 348.4609375 m 1,222,-1
 343.077148438 365.211914062 l 1,223,-1
 349.672851562 328.959960938 l 1,224,-1
 321.015625 312.408203125 l 1,225,-1
 304.0859375 348.4609375 l 1,222,-1
214.607421875 262.26171875 m 1,226,-1
 193.495117188 225.1484375 l 1,227,-1
 157.6484375 237.83203125 l 1,228,-1
 185.025390625 278.291015625 l 1,229,-1
 214.607421875 262.26171875 l 1,226,-1
214.607421875 262.26171875 m 1,230,-1
 241.591796875 296.10546875 l 1,231,-1
 269.1875 273.547851562 l 1,232,-1
 249.0234375 243.61328125 l 1,233,-1
 214.607421875 262.26171875 l 1,230,-1
164.131835938 151.895507812 m 1,234,-1
 154.528320312 112.06640625 l 1,235,-1
 114.8828125 113.392578125 l 1,236,-1
 127.591796875 156.252929688 l 1,237,-1
 164.131835938 151.895507812 l 1,234,-1
164.131835938 151.895507812 m 1,238,-1
 178.05859375 191.17578125 l 1,239,-1
 214.755859375 182.780273438 l 1,240,-1
 204.21875 147.114257812 l 1,241,-1
 164.131835938 151.895507812 l 1,238,-1
EndSplineSet
Validated: 527365
EndChar

StartChar: openeye
Encoding: 12 61452 12
Width: 700
VWidth: 600
LayerCount: 2
Fore
SplineSet
664.4375 81.490234375 m 0,0,-1
 668.069335938 76 l 1,1,-1
 664.443359375 70.560546875 l 2,2,3
 611.918945312 -9.07421875 611.918945312 -9.07421875 528.538085938 -54.037109375 c 128,-1,4
 445.157226562 -99 445.157226562 -99 350.03515625 -99 c 128,-1,5
 254.897460938 -99 254.897460938 -99 171.498046875 -54.04296875 c 128,-1,6
 88.09765625 -9.0859375 88.09765625 -9.0859375 35.556640625 70.529296875 c 2,7,-1
 31.9306640625 76 l 1,8,-1
 35.556640625 81.490234375 l 2,9,10
 88.1484375 161.095703125 88.1484375 161.095703125 171.543945312 206.047851562 c 128,-1,11
 254.938476562 251 254.938476562 251 350.041015625 251 c 128,-1,12
 445.15625 251 445.15625 251 528.532226562 206.046875 c 128,-1,13
 611.908203125 161.09375 611.908203125 161.09375 664.4375 81.490234375 c 0,0,-1
70.314453125 76 m 1,14,15
 109.301757812 21.98828125 109.301757812 21.98828125 164.887695312 -13.37109375 c 128,-1,16
 220.47265625 -48.728515625 220.47265625 -48.728515625 285.142578125 -61.07421875 c 1,17,18
 261.994140625 -49.880859375 261.994140625 -49.880859375 243.762695312 -31.748046875 c 0,19,20
 222.587890625 -10.703125 222.587890625 -10.703125 210.764648438 17.134765625 c 128,-1,21
 198.940429688 44.9736328125 198.940429688 44.9736328125 198.940429688 75.98828125 c 0,22,23
 198.940429688 76.19140625 198.940429688 76.19140625 198.940429688 76.39453125 c 0,24,25
 198.940429688 107.006835938 198.940429688 107.006835938 210.514648438 134.922851562 c 128,-1,26
 222.088867188 162.838867188 222.088867188 162.838867188 243.762695312 184.499023438 c 0,27,28
 260.967773438 201.659179688 260.967773438 201.659179688 282.655273438 212.616210938 c 1,29,30
 218.723632812 199.920898438 218.723632812 199.920898438 163.823242188 164.708007812 c 128,-1,31
 108.922851562 129.49609375 108.922851562 129.49609375 70.314453125 76 c 1,14,15
351.612304688 -18.3134765625 m 0,32,33
 351.665039062 -18.236328125 351.665039062 -18.236328125 351.736328125 -18.244140625 c 0,34,35
 390.826171875 -18.2509765625 390.826171875 -18.2509765625 418.380859375 9.390625 c 128,-1,36
 445.989257812 37.0185546875 445.989257812 37.0185546875 445.989257812 76.1337890625 c 0,37,38
 445.989257812 76.169921875 445.989257812 76.169921875 445.99609375 76.2451171875 c 0,39,40
 446.002929688 115.328125 446.002929688 115.328125 418.362304688 142.864257812 c 128,-1,41
 390.684570312 170.471679688 390.684570312 170.471679688 351.606445312 170.471679688 c 0,42,43
 351.348632812 170.486328125 351.348632812 170.486328125 351.297851562 170.486328125 c 0,44,45
 312.346679688 170.486328125 312.346679688 170.486328125 284.837890625 142.844726562 c 128,-1,46
 257.229492188 115.087890625 257.229492188 115.087890625 257.229492188 76.0888671875 c 128,-1,47
 257.229492188 37.0537109375 257.229492188 37.0537109375 284.897460938 9.3701171875 c 128,-1,48
 312.565429688 -18.3134765625 312.565429688 -18.3134765625 351.612304688 -18.3134765625 c 0,32,33
420.9765625 -59.9345703125 m 1,49,50
 483.828125 -46.7548828125 483.828125 -46.7548828125 537.739257812 -11.7451171875 c 128,-1,51
 591.650390625 23.2646484375 591.650390625 23.2646484375 629.704101562 76 c 1,52,53
 591.970703125 128.3359375 591.970703125 128.3359375 538.590820312 163.251953125 c 128,-1,54
 485.209960938 198.16796875 485.209960938 198.16796875 422.973632812 211.629882812 c 1,55,56
 460.021484375 192.091796875 460.021484375 192.091796875 482.387695312 155.890625 c 128,-1,57
 504.754882812 119.689453125 504.754882812 119.689453125 504.754882812 76.451171875 c 0,58,59
 504.778320312 76.1142578125 504.778320312 76.1142578125 504.778320312 76.048828125 c 0,60,61
 504.778320312 45.0439453125 504.778320312 45.0439453125 492.95703125 17.208984375 c 128,-1,62
 481.135742188 -10.6259765625 481.135742188 -10.6259765625 459.971679688 -31.69140625 c 0,63,64
 442.729492188 -48.927734375 442.729492188 -48.927734375 420.9765625 -59.9345703125 c 1,49,50
318.826171875 70.7841796875 m 128,-1,66
 305.866210938 70.7841796875 305.866210938 70.7841796875 296.765625 79.8671875 c 128,-1,67
 287.665039062 88.9501953125 287.665039062 88.9501953125 287.604492188 101.986328125 c 128,-1,68
 287.665039062 114.849609375 287.665039062 114.849609375 296.762695312 124.012695312 c 128,-1,69
 305.860351562 133.17578125 305.860351562 133.17578125 318.8203125 133.17578125 c 260,70,71
 331.760742188 133.17578125 331.760742188 133.17578125 340.862304688 124.012695312 c 128,-1,72
 349.96484375 114.849609375 349.96484375 114.849609375 350.053710938 101.966796875 c 128,-1,73
 349.96484375 88.9501953125 349.96484375 88.9501953125 340.875976562 79.8671875 c 128,-1,74
 331.786132812 70.7841796875 331.786132812 70.7841796875 318.826171875 70.7841796875 c 128,-1,66
EndSplineSet
Validated: 524321
EndChar

StartChar: closedeye
Encoding: 13 61453 13
Width: 700
VWidth: 600
Flags: W
LayerCount: 2
Back
SplineSet
697.6953125 116 m 5,0,-1
 697.6953125 79 l 5,1,-1
 629.6953125 79 l 5,2,-1
 629.6953125 116 l 5,3,-1
 697.6953125 116 l 5,0,-1
70.3046875 116 m 5,4,-1
 70.3046875 79 l 5,5,-1
 2.3046875 79 l 5,6,-1
 2.3046875 116 l 5,7,-1
 70.3046875 116 l 5,4,-1
158.350585938 13.123046875 m 5,8,-1
 184.513671875 -13.0400390625 l 5,9,-1
 136.4296875 -61.123046875 l 5,10,-1
 110.267578125 -34.9599609375 l 5,11,-1
 158.350585938 13.123046875 l 5,8,-1
516.267578125 -13.0400390625 m 5,12,-1
 542.4296875 13.123046875 l 5,13,-1
 590.513671875 -34.9599609375 l 5,14,-1
 564.350585938 -61.123046875 l 5,15,-1
 516.267578125 -13.0400390625 l 5,12,-1
331.890625 -50 m 5,16,-1
 368.890625 -50 l 5,17,-1
 368.890625 -118 l 5,18,-1
 331.890625 -118 l 5,19,-1
 331.890625 -50 l 5,16,-1
668.060546875 116 m 5,20,-1
 664.43359375 110.560546875 l 6,21,22
 610.64453125 29.8681640625 610.64453125 29.8681640625 527.8359375 -14.4638671875 c 4,23,24
 444.890625 -59 444.890625 -59 349.890625 -59 c 132,-1,25
 254.890625 -59 254.890625 -59 171.3984375 -13.7333984375 c 4,26,27
 87.890625 32 87.890625 32 35.546875 110.529296875 c 6,28,-1
 31.921875 116 l 5,29,-1
 70.3046875 116 l 5,30,31
 108.890625 62 108.890625 62 166.390625 25.5 c 132,-1,32
 223.890625 -11 223.890625 -11 285.1328125 -21.07421875 c 4,33,34
 314.890625 -26 314.890625 -26 350.890625 -26 c 4,35,36
 389.890625 -26 389.890625 -26 420.967773438 -19.9345703125 c 4,37,38
 487.890625 -5 487.890625 -5 537.73046875 28.2548828125 c 4,39,40
 591.890625 63 591.890625 63 629.6953125 116 c 5,41,-1
 668.060546875 116 l 5,20,-1
EndSplineSet
Fore
SplineSet
697.6953125 116 m 1,0,-1
 697.6953125 79 l 1,1,-1
 641.157226562 79 l 1,2,3
 603.528320312 32.8701171875 603.528320312 32.8701171875 554.387695312 1.166015625 c 1,4,-1
 590.513671875 -34.9599609375 l 1,5,-1
 564.350585938 -61.123046875 l 1,6,-1
 521.181640625 -17.955078125 l 1,7,8
 449.487304688 -54.697265625 449.487304688 -54.697265625 368.890625 -58.548828125 c 1,9,-1
 368.890625 -118 l 1,10,-1
 331.890625 -118 l 1,11,-1
 331.890625 -58.5888671875 l 1,12,13
 251.493164062 -54.896484375 251.493164062 -54.896484375 179.53125 -18.021484375 c 1,14,-1
 136.4296875 -61.123046875 l 1,15,-1
 110.267578125 -34.9599609375 l 1,16,-1
 146.380859375 1.1533203125 l 1,17,18
 96.3408203125 33.447265625 96.3408203125 33.447265625 58.900390625 79 c 1,19,-1
 2.3046875 79 l 1,20,-1
 2.3046875 116 l 1,21,-1
 70.3046875 116 l 1,22,23
 108.890625 62 108.890625 62 166.390625 25.5 c 128,-1,24
 223.890625 -11 223.890625 -11 285.1328125 -21.07421875 c 0,25,26
 314.890625 -26 314.890625 -26 350.890625 -26 c 0,27,28
 389.890625 -26 389.890625 -26 420.967773438 -19.9345703125 c 0,29,30
 487.890625 -5 487.890625 -5 537.73046875 28.2548828125 c 0,31,32
 591.890625 63 591.890625 63 629.6953125 116 c 1,33,-1
 697.6953125 116 l 1,0,-1
EndSplineSet
Validated: 524289
EndChar

StartChar: minus
Encoding: 14 61454 14
Width: 576
VWidth: 600
Flags: W
LayerCount: 2
Fore
SplineSet
474.25 79.75 m 1,0,-1
 474.25 132.25 l 1,1,-1
 101.75 132.25 l 1,2,-1
 101.75 79.75 l 1,3,-1
 474.25 79.75 l 1,0,-1
EndSplineSet
Validated: 524289
EndChar

StartChar: plus
Encoding: 15 61455 15
Width: 576
VWidth: 600
Flags: W
LayerCount: 2
Back
SplineSet
435 192 m 6,0,-1
 435 -66 l 6,1,2
 435 -78 435 -78 426 -87 c 132,-1,3
 417 -96 417 -96 405 -96 c 6,4,-1
 359 -96 l 6,5,6
 347 -96 347 -96 338 -87 c 132,-1,7
 329 -78 329 -78 329 -66 c 6,8,-1
 329 192 l 6,9,10
 329 204 329 204 338 213 c 132,-1,11
 347 222 347 222 359 222 c 6,12,-1
 405 222 l 6,13,14
 417 222 417 222 426 213 c 132,-1,15
 435 204 435 204 435 192 c 6,0,-1
253 116 m 6,16,-1
 511 116 l 6,17,18
 523 116 523 116 532 107 c 132,-1,19
 541 98 541 98 541 86 c 6,20,-1
 541 40 l 6,21,22
 541 28 541 28 532 19 c 132,-1,23
 523 10 523 10 511 10 c 6,24,-1
 253 10 l 6,25,26
 241 10 241 10 232 19 c 132,-1,27
 223 28 223 28 223 40 c 6,28,-1
 223 86 l 6,29,30
 223 98 223 98 232 107 c 132,-1,31
 241 116 241 116 253 116 c 6,16,-1
EndSplineSet
Fore
SplineSet
474.25 79.75 m 1,0,-1
 474.25 132.25 l 1,1,-1
 314.25 132.25 l 1,2,-1
 314.25 292.25 l 1,3,-1
 261.75 292.25 l 1,4,-1
 261.75 132.25 l 1,5,-1
 101.75 132.25 l 1,6,-1
 101.75 79.75 l 1,7,-1
 261.75 79.75 l 1,8,-1
 261.75 -80.25 l 1,9,-1
 314.25 -80.25 l 1,10,-1
 314.25 79.75 l 1,11,-1
 474.25 79.75 l 1,0,-1
EndSplineSet
Validated: 524297
EndChar

StartChar: left
Encoding: 16 61456 16
Width: 576
VWidth: 600
Flags: W
LayerCount: 2
Back
SplineSet
108 72 m 29,0,-1
 216 180 l 5,1,-1
 216 -36 l 5,2,-1
 108 72 l 29,0,-1
184 88 m 5,3,-1
 618 88 l 5,4,-1
 618 55 l 5,5,-1
 184 55 l 5,6,-1
 184 88 l 5,3,-1
EndSplineSet
Fore
SplineSet
501.75 132.25 m 1,0,-1
 501.75 79.75 l 1,1,-1
 176.75 79.75 l 1,2,-1
 325.5 -70.25 l 1,3,-1
 288 -107.75 l 1,4,-1
 74.25 106 l 1,5,-1
 288 319.75 l 1,6,-1
 325.5 282.25 l 1,7,-1
 176.75 132.25 l 1,8,-1
 501.75 132.25 l 1,0,-1
EndSplineSet
Validated: 524289
EndChar

StartChar: down
Encoding: 17 61457 17
Width: 576
VWidth: 600
Flags: W
LayerCount: 2
Back
SplineSet
363 -183 m 29,0,-1
 471 -75 l 5,1,-1
 255 -75 l 5,2,-1
 363 -183 l 29,0,-1
379 -107 m 5,3,-1
 379 327 l 5,4,-1
 346 327 l 5,5,-1
 346 -107 l 5,6,-1
 379 -107 l 5,3,-1
EndSplineSet
Fore
SplineSet
501.75 106 m 1,0,-1
 288 -107.75 l 1,1,-1
 74.25 106 l 1,2,-1
 113 143.5 l 1,3,-1
 261.75 -5.25 l 1,4,-1
 261.75 319.75 l 1,5,-1
 314.25 319.75 l 1,6,-1
 314.25 -5.25 l 1,7,-1
 464.25 143.5 l 1,8,-1
 501.75 106 l 1,0,-1
EndSplineSet
Validated: 524289
EndChar

StartChar: up
Encoding: 18 61458 18
Width: 576
VWidth: 600
Flags: W
LayerCount: 2
Back
SplineSet
363 327 m 29,0,-1
 471 219 l 5,1,-1
 255 219 l 5,2,-1
 363 327 l 29,0,-1
379 251 m 5,3,-1
 379 -183 l 5,4,-1
 346 -183 l 5,5,-1
 346 251 l 5,6,-1
 379 251 l 5,3,-1
EndSplineSet
Fore
SplineSet
74.25 106 m 1,0,-1
 288 319.75 l 1,1,-1
 501.75 106 l 1,2,-1
 463 68.5 l 1,3,-1
 314.25 217.25 l 1,4,-1
 314.25 -107.75 l 1,5,-1
 261.75 -107.75 l 1,6,-1
 261.75 217.25 l 1,7,-1
 111.75 68.5 l 1,8,-1
 74.25 106 l 1,0,-1
EndSplineSet
Validated: 524289
EndChar

StartChar: right
Encoding: 19 61460 19
Width: 576
VWidth: 600
Flags: W
LayerCount: 2
Back
SplineSet
618 72 m 29,0,-1
 510 180 l 5,1,-1
 510 -36 l 5,2,-1
 618 72 l 29,0,-1
542 88 m 5,3,-1
 108 88 l 5,4,-1
 108 55 l 5,5,-1
 542 55 l 5,6,-1
 542 88 l 5,3,-1
EndSplineSet
Fore
SplineSet
288 319.75 m 5,0,-1
 501.75 106 l 5,1,-1
 288 -107.75 l 5,2,-1
 250.5 -70.25 l 5,3,-1
 399.25 79.75 l 5,4,-1
 74.25 79.75 l 5,5,-1
 74.25 132.25 l 5,6,-1
 399.25 132.25 l 5,7,-1
 250.5 282.25 l 5,8,-1
 288 319.75 l 5,0,-1
EndSplineSet
Validated: 524289
EndChar

StartChar: rename
Encoding: 20 61461 20
Width: 789
VWidth: 600
Flags: W
LayerCount: 2
Fore
SplineSet
245.9453125 -5.1552734375 m 5,0,-1
 146.702148438 -5.1552734375 l 5,1,-1
 130.955078125 -54.9599609375 l 5,2,-1
 67.234375 -54.9599609375 l 5,3,-1
 158.420898438 218.416015625 l 5,4,-1
 234.04296875 218.416015625 l 5,5,-1
 325.23046875 -54.9599609375 l 5,6,-1
 261.326171875 -54.9599609375 l 5,7,-1
 245.9453125 -5.1552734375 l 5,0,-1
162.44921875 45.564453125 m 5,8,-1
 229.83203125 45.564453125 l 5,9,-1
 196.32421875 154.329101562 l 5,10,-1
 162.44921875 45.564453125 l 5,8,-1
442.112304688 -12.6630859375 m 132,-1,12
 461.155273438 -12.6630859375 461.155273438 -12.6630859375 471.134765625 2.7177734375 c 132,-1,13
 481.11328125 18.0986328125 481.11328125 18.0986328125 481.11328125 47.3955078125 c 260,14,15
 481.11328125 76.6923828125 481.11328125 76.6923828125 471.134765625 92.0732421875 c 132,-1,16
 461.155273438 107.454101562 461.155273438 107.454101562 442.112304688 107.454101562 c 132,-1,17
 423.251953125 107.454101562 423.251953125 107.454101562 413.08984375 91.982421875 c 132,-1,18
 402.927734375 76.509765625 402.927734375 76.509765625 402.927734375 47.3955078125 c 260,19,20
 402.927734375 18.2822265625 402.927734375 18.2822265625 413.08984375 2.8095703125 c 132,-1,11
 423.251953125 -12.6630859375 423.251953125 -12.6630859375 442.112304688 -12.6630859375 c 132,-1,12
402.927734375 120.088867188 m 5,21,22
 415.1953125 138.033203125 415.1953125 138.033203125 430.02734375 146.546875 c 132,-1,23
 444.859375 155.061523438 444.859375 155.061523438 464.084960938 155.061523438 c 4,24,25
 498.142578125 155.061523438 498.142578125 155.061523438 520.115234375 124.94140625 c 132,-1,26
 542.087890625 94.8203125 542.087890625 94.8203125 542.087890625 47.3955078125 c 260,27,28
 542.087890625 -0.0283203125 542.087890625 -0.0283203125 520.115234375 -30.1494140625 c 132,-1,29
 498.142578125 -60.2705078125 498.142578125 -60.2705078125 464.084960938 -60.2705078125 c 4,30,31
 444.859375 -60.2705078125 444.859375 -60.2705078125 430.02734375 -51.755859375 c 132,-1,32
 415.1953125 -43.2412109375 415.1953125 -43.2412109375 402.927734375 -25.296875 c 5,33,-1
 402.927734375 -54.9599609375 l 5,34,-1
 343.967773438 -54.9599609375 l 5,35,-1
 343.967773438 229.952148438 l 5,36,-1
 402.927734375 229.952148438 l 5,37,-1
 402.927734375 120.088867188 l 5,21,22
721.765625 143.708984375 m 5,38,-1
 721.765625 90.2421875 l 5,39,40
 709.3359375 98.7900390625 709.3359375 98.7900390625 697.6875 103.791992188 c 4,41,42
 685.5859375 108.790039062 685.5859375 108.790039062 672.509765625 108.186523438 c 4,43,44
 648.0859375 108.790039062 648.0859375 108.790039062 634.05859375 92.1650390625 c 4,45,46
 620.5859375 76.2900390625 620.5859375 76.2900390625 620.325195312 47.3955078125 c 260,47,48
 620.5859375 18.7900390625 620.5859375 18.7900390625 634.05859375 2.626953125 c 4,49,50
 648.0859375 -13.7099609375 648.0859375 -13.7099609375 672.509765625 -13.3955078125 c 4,51,52
 686.8359375 -13.7099609375 686.8359375 -13.7099609375 698.876953125 -8.8173828125 c 4,53,54
 711.8359375 -3.7099609375 711.8359375 -3.7099609375 721.765625 4.732421875 c 5,55,-1
 721.765625 -48.91796875 l 5,56,57
 708.0859375 -54.9599609375 708.0859375 -54.9599609375 693.75 -57.431640625 c 132,-1,58
 679.3359375 -59.9599609375 679.3359375 -59.9599609375 665.185546875 -60.2705078125 c 4,59,60
 615.5859375 -59.9599609375 615.5859375 -59.9599609375 587 -31.796875 c 4,61,62
 559.3359375 -3.7099609375 559.3359375 -3.7099609375 558.801757812 47.3955078125 c 260,63,64
 559.3359375 97.5400390625 559.3359375 97.5400390625 587 126.588867188 c 4,65,66
 615.5859375 155.040039062 615.5859375 155.040039062 665.185546875 155.061523438 c 4,67,68
 679.3359375 155.040039062 679.3359375 155.040039062 693.75 152.223632812 c 4,69,70
 708.0859375 148.790039062 708.0859375 148.790039062 721.765625 143.708984375 c 5,38,-1
EndSplineSet
Validated: 524321
EndChar

StartChar: union
Encoding: 21 61462 21
Width: 700
VWidth: 600
Flags: W
LayerCount: 2
Back
SplineSet
248.51953125 229.5625 m 0,0,1
 299.813476562 229.5625 299.813476562 229.5625 340.28515625 199.78515625 c 2,2,-1
 350.141601562 192.533203125 l 1,3,-1
 360.012695312 199.767578125 l 2,4,5
 383.608398438 217.0625 383.608398438 217.0625 412.188476562 224.568359375 c 0,6,7
 430.610351562 229.751953125 430.610351562 229.751953125 450.2890625 229.751953125 c 0,8,9
 497.3203125 229.751953125 497.3203125 229.751953125 537.45703125 203.006835938 c 0,10,11
 569.567382812 181.610351562 569.567382812 181.610351562 586.5859375 148.920898438 c 1,12,13
 605.12109375 116.12890625 605.12109375 116.12890625 605.12109375 76.6181640625 c 0,14,15
 605.12109375 42.634765625 605.12109375 42.634765625 591.155273438 11.306640625 c 128,-1,16
 577.188476562 -20.0205078125 577.188476562 -20.0205078125 551.940429688 -41.06640625 c 1,17,18
 531.752929688 -59.2265625 531.752929688 -59.2265625 505.411132812 -68.841796875 c 128,-1,19
 479.071289062 -78.45703125 479.071289062 -78.45703125 450.920898438 -78.45703125 c 0,20,21
 426.157226562 -78.45703125 426.157226562 -78.45703125 402.715820312 -70.9609375 c 128,-1,22
 379.274414062 -63.46484375 379.274414062 -63.46484375 360.235351562 -49.017578125 c 2,23,-1
 350.239257812 -41.431640625 l 1,24,-1
 340.186523438 -48.9423828125 l 2,25,26
 320.868164062 -63.375 320.868164062 -63.375 297.166992188 -70.9853515625 c 128,-1,27
 273.465820312 -78.595703125 273.465820312 -78.595703125 248.71875 -78.595703125 c 0,28,29
 213.122070312 -78.595703125 213.122070312 -78.595703125 182.36328125 -63.4208984375 c 0,30,31
 147.493164062 -47.328125 147.493164062 -47.328125 124.163085938 -14.41796875 c 0,32,33
 110.116210938 5.396484375 110.116210938 5.396484375 102.499023438 28.73046875 c 128,-1,34
 94.8798828125 52.06640625 94.8798828125 52.06640625 94.8798828125 75.826171875 c 0,35,36
 94.8798828125 91.345703125 94.8798828125 91.345703125 98.251953125 106.458007812 c 0,37,38
 106.77734375 152.11328125 106.77734375 152.11328125 142.264648438 186.15625 c 0,39,40
 163.538085938 206.5625 163.538085938 206.5625 190.69140625 218.072265625 c 128,-1,41
 217.844726562 229.58203125 217.844726562 229.58203125 246.243164062 229.58203125 c 0,42,43
 246.622070312 229.58203125 246.622070312 229.58203125 247.379882812 229.572265625 c 128,-1,44
 248.139648438 229.5625 248.139648438 229.5625 248.51953125 229.5625 c 0,0,1
246.243164062 262.958984375 m 0,45,46
 210.924804688 262.958984375 210.924804688 262.958984375 177.946289062 248.9765625 c 128,-1,47
 144.969726562 234.994140625 144.969726562 234.994140625 119.166992188 210.241210938 c 0,48,49
 98.5732421875 190.486328125 98.5732421875 190.486328125 84.6708984375 165.6796875 c 128,-1,50
 70.7685546875 140.873046875 70.7685546875 140.873046875 65.548828125 113.182617188 c 0,51,52
 61.5029296875 94.900390625 61.5029296875 94.900390625 61.5029296875 75.826171875 c 0,53,54
 61.5029296875 46.62109375 61.5029296875 46.62109375 70.6904296875 18.482421875 c 128,-1,55
 79.8779296875 -9.65625 79.8779296875 -9.65625 96.9150390625 -33.689453125 c 0,56,57
 125.356445312 -73.810546875 125.356445312 -73.810546875 168.014648438 -93.5634765625 c 0,58,59
 205.446289062 -111.973632812 205.446289062 -111.973632812 248.71875 -111.973632812 c 0,60,61
 304.571289062 -111.973632812 304.571289062 -111.973632812 350.096679688 -82.6650390625 c 1,62,63
 394.883789062 -111.833984375 394.883789062 -111.833984375 450.920898438 -111.833984375 c 0,64,65
 484.899414062 -111.833984375 484.899414062 -111.833984375 516.833007812 -100.278320312 c 128,-1,66
 548.766601562 -88.72265625 548.766601562 -88.72265625 573.77734375 -66.30859375 c 1,67,68
 604.965820312 -40.212890625 604.965820312 -40.212890625 621.731445312 -2.31640625 c 128,-1,69
 638.497070312 35.580078125 638.497070312 35.580078125 638.497070312 76.6181640625 c 0,70,71
 638.497070312 124.751953125 638.497070312 124.751953125 615.946289062 164.809570312 c 1,72,73
 595.084960938 204.711914062 595.084960938 204.711914062 555.932617188 230.802734375 c 0,74,75
 507.41796875 263.129882812 507.41796875 263.129882812 450.2890625 263.129882812 c 0,76,77
 426.055664062 263.129882812 426.055664062 263.129882812 403.282226562 256.7421875 c 0,78,79
 374.942382812 249.28125 374.942382812 249.28125 350.172851562 233.458984375 c 1,80,81
 303.889648438 263.07421875 303.889648438 263.07421875 249.096679688 262.935546875 c 0,82,83
 248.620117188 262.935546875 248.620117188 262.935546875 247.668945312 262.947265625 c 128,-1,84
 246.71875 262.958984375 246.71875 262.958984375 246.243164062 262.958984375 c 0,45,46
632.078125 100.243164062 m 4,85,86
 632.078125 102.030273438 632.078125 102.030273438 630.813476562 103.295898438 c 132,-1,87
 629.547851562 104.561523438 629.547851562 104.561523438 627.760742188 104.561523438 c 132,-1,88
 625.979492188 104.561523438 625.979492188 104.561523438 624.71484375 103.303710938 c 132,-1,89
 623.450195312 102.045898438 623.450195312 102.045898438 623.442382812 100.265625 c 4,90,91
 622.604492188 93.712890625 622.604492188 93.712890625 622.317382812 84.6015625 c 5,92,93
 621.075195312 115.974609375 621.075195312 115.974609375 620.2578125 127.919921875 c 4,94,95
 619.670898438 136.490234375 619.670898438 136.490234375 619.018554688 141.278320312 c 132,-1,96
 618.370117188 146.044921875 618.370117188 146.044921875 617.467773438 147.967773438 c 4,97,98
 616.094726562 150.892578125 616.094726562 150.892578125 613.153320312 150.892578125 c 4,99,100
 610.885742188 150.892578125 610.885742188 150.892578125 609.471679688 149.018554688 c 4,101,102
 608.713867188 148.012695312 608.713867188 148.012695312 608.286132812 146.26953125 c 132,-1,103
 607.825195312 144.39453125 607.825195312 144.39453125 607.426757812 140.586914062 c 4,104,105
 606.676757812 133.41796875 606.676757812 133.41796875 605.963867188 117.724609375 c 4,106,107
 605.338867188 103.936523438 605.338867188 103.936523438 604.235351562 69.2041015625 c 5,108,109
 604.1953125 70.859375 604.1953125 70.859375 603.809570312 74.19140625 c 132,-1,110
 603.422851562 77.5244140625 603.422851562 77.5244140625 603.381835938 79.197265625 c 4,111,112
 602.10546875 131.982421875 602.10546875 131.982421875 601.266601562 150.913085938 c 4,113,114
 600.670898438 164.40234375 600.670898438 164.40234375 600.00390625 171.141601562 c 4,115,116
 599.493164062 176.296875 599.493164062 176.296875 598.829101562 178.258789062 c 4,117,118
 598.479492188 179.29296875 598.479492188 179.29296875 597.93359375 180.020507812 c 4,119,120
 596.538085938 181.881835938 596.538085938 181.881835938 594.282226562 181.881835938 c 4,121,122
 592.825195312 181.881835938 592.825195312 181.881835938 591.641601562 181.01953125 c 132,-1,123
 590.614257812 180.26953125 590.614257812 180.26953125 590.043945312 179.006835938 c 132,-1,124
 589.508789062 177.818359375 589.508789062 177.818359375 589.153320312 175.337890625 c 4,125,126
 588.649414062 171.81640625 588.649414062 171.81640625 588.203125 164.27734375 c 4,127,128
 587.637695312 154.743164062 587.637695312 154.743164062 587.110351562 137.77734375 c 4,129,130
 586.524414062 118.845703125 586.524414062 118.845703125 585.541992188 71.435546875 c 5,131,132
 585.520507812 72.521484375 585.520507812 72.521484375 585.249023438 74.6953125 c 132,-1,133
 584.977539062 76.869140625 584.977539062 76.869140625 584.956054688 77.95703125 c 4,134,135
 583.672851562 143.637695312 583.672851562 143.637695312 582.831054688 166.841796875 c 4,136,137
 582.233398438 183.328125 582.233398438 183.328125 581.565429688 191.28125 c 4,138,139
 581.229492188 195.275390625 581.229492188 195.275390625 580.854492188 197.372070312 c 4,140,141
 580.641601562 198.556640625 580.641601562 198.556640625 580.37890625 199.333984375 c 4,142,143
 579.905273438 200.73828125 579.905273438 200.73828125 578.981445312 201.609375 c 4,144,145
 577.674804688 202.837890625 577.674804688 202.837890625 575.905273438 202.837890625 c 4,146,147
 573.049804688 202.837890625 573.049804688 202.837890625 571.756835938 200.115234375 c 4,148,149
 571.249023438 199.044921875 571.249023438 199.044921875 570.93359375 196.94140625 c 4,150,151
 569.145507812 185.018554688 569.145507812 185.018554688 567.59375 73.31640625 c 5,152,153
 566.24609375 151.436523438 566.24609375 151.436523438 565.34765625 179.43359375 c 4,154,155
 564.749023438 198.090820312 564.749023438 198.090820312 564.079101562 206.931640625 c 4,156,157
 563.745117188 211.3515625 563.745117188 211.3515625 563.372070312 213.592773438 c 4,158,159
 562.793945312 217.068359375 562.793945312 217.068359375 561.014648438 218.323242188 c 4,160,161
 559.858398438 219.137695312 559.858398438 219.137695312 558.450195312 219.137695312 c 132,-1,162
 556.94921875 219.137695312 556.94921875 219.137695312 555.749023438 218.220703125 c 4,163,164
 554.765625 217.470703125 554.765625 217.470703125 554.235351562 216.244140625 c 132,-1,165
 553.762695312 215.150390625 553.762695312 215.150390625 553.446289062 212.91015625 c 4,166,167
 551.5625 199.494140625 551.5625 199.494140625 549.2578125 73.5625 c 4,168,169
 548.9765625 58.162109375 548.9765625 58.162109375 548.782226562 47.8916015625 c 5,170,171
 546.852539062 164.8203125 546.852539062 164.8203125 546.18359375 187.506835938 c 4,172,173
 545.584960938 207.803710938 545.584960938 207.803710938 544.915039062 217.32421875 c 4,174,175
 544.583007812 222.068359375 544.583007812 222.068359375 544.211914062 224.416992188 c 132,-1,176
 543.852539062 226.693359375 543.852539062 226.693359375 543.172851562 227.809570312 c 132,-1,177
 542.497070312 228.919921875 542.497070312 228.919921875 541.387695312 229.510742188 c 132,-1,178
 540.413085938 230.029296875 540.413085938 230.029296875 539.307617188 230.029296875 c 4,179,180
 537.721679688 230.029296875 537.721679688 230.029296875 536.487304688 229.017578125 c 4,181,182
 535.543945312 228.244140625 535.543945312 228.244140625 535.047851562 227.013671875 c 132,-1,183
 534.600585938 225.90234375 534.600585938 225.90234375 534.295898438 223.564453125 c 4,184,185
 532.411132812 209.141601562 532.411132812 209.141601562 530.153320312 73.55078125 c 4,186,187
 529.889648438 57.6318359375 529.889648438 57.6318359375 529.706054688 46.982421875 c 5,188,189
 527.829101562 168.578125 527.829101562 168.578125 527.133789062 193.5546875 c 4,190,191
 526.534179688 215.068359375 526.534179688 215.068359375 525.864257812 225.09375 c 4,192,193
 525.532226562 230.079101562 525.532226562 230.079101562 525.163085938 232.504882812 c 132,-1,194
 524.797851562 234.890625 524.797851562 234.890625 524.07421875 236.030273438 c 132,-1,195
 523.254882812 237.31640625 523.254882812 237.31640625 521.883789062 237.853515625 c 4,196,197
 519.403320312 238.829101562 519.403320312 238.829101562 517.368164062 237.078125 c 4,198,199
 516.456054688 236.291015625 516.456054688 236.291015625 515.983398438 235.056640625 c 132,-1,200
 515.551757812 233.931640625 515.551757812 233.931640625 515.254882812 231.5234375 c 4,201,202
 513.387695312 216.37890625 513.387695312 216.37890625 511.280273438 73.8447265625 c 5,203,204
 511.274414062 74.162109375 511.274414062 74.162109375 510.920898438 74.796875 c 132,-1,205
 510.56640625 75.431640625 510.56640625 75.431640625 510.561523438 75.7490234375 c 4,206,207
 509.270507812 166.623046875 509.270507812 166.623046875 508.426757812 198.165039062 c 4,208,209
 507.827148438 220.552734375 507.827148438 220.552734375 507.157226562 230.90625 c 4,210,211
 506.825195312 236.0546875 506.825195312 236.0546875 506.456054688 238.529296875 c 132,-1,212
 506.086914062 241.005859375 506.086914062 241.005859375 505.315429688 242.163085938 c 4,213,214
 504.350585938 243.608398438 504.350585938 243.608398438 502.725585938 244.046875 c 4,215,216
 500.418945312 244.66796875 500.418945312 244.66796875 498.622070312 243.0703125 c 4,217,218
 497.727539062 242.275390625 497.727539062 242.275390625 497.270507812 241.04296875 c 132,-1,219
 496.848632812 239.90625 496.848632812 239.90625 496.5546875 237.443359375 c 4,220,221
 494.67578125 221.760742188 494.67578125 221.760742188 492.502929688 74.1240234375 c 5,222,223
 492.500976562 74.3125 492.500976562 74.3125 492.109375 74.689453125 c 132,-1,224
 491.71875 75.06640625 491.71875 75.06640625 491.715820312 75.2548828125 c 4,225,226
 490.682617188 149.927734375 490.682617188 149.927734375 490.063476562 179.93359375 c 4,227,228
 489.362304688 213.939453125 489.362304688 213.939453125 488.588867188 229.48046875 c 4,229,230
 488.196289062 237.361328125 488.196289062 237.361328125 487.762695312 241.0546875 c 132,-1,231
 487.33203125 244.7265625 487.33203125 244.7265625 486.32421875 246.075195312 c 4,232,233
 484.961914062 247.897460938 484.961914062 247.897460938 482.735351562 247.897460938 c 4,234,235
 481.028320312 247.897460938 481.028320312 247.897460938 479.750976562 246.740234375 c 4,236,237
 478.868164062 245.939453125 478.868164062 245.939453125 478.420898438 244.701171875 c 132,-1,238
 478.008789062 243.55859375 478.008789062 243.55859375 477.725585938 241.068359375 c 4,239,240
 475.913085938 225.138671875 475.913085938 225.138671875 474.375976562 75.125 c 5,241,242
 472.296875 227.3203125 472.296875 227.3203125 470.358398438 244.046875 c 4,243,244
 470.067382812 246.5546875 470.067382812 246.5546875 469.657226562 247.703125 c 132,-1,245
 469.231445312 248.904296875 469.231445312 248.904296875 468.399414062 249.6953125 c 4,246,247
 467.104492188 250.930664062 467.104492188 250.930664062 465.33203125 250.930664062 c 132,-1,248
 463.6171875 250.930664062 463.6171875 250.930664062 462.336914062 249.764648438 c 4,249,250
 461.461914062 248.96484375 461.461914062 248.96484375 461.015625 247.731445312 c 132,-1,251
 460.6015625 246.583984375 460.6015625 246.583984375 460.309570312 244.073242188 c 4,252,253
 458.430664062 227.935546875 458.430664062 227.935546875 456.333007812 76.021484375 c 4,254,255
 456.333007812 75.9990234375 456.333007812 75.9990234375 455.985351562 75.955078125 c 132,-1,256
 455.635742188 75.912109375 455.635742188 75.912109375 455.635742188 75.8896484375 c 5,257,258
 453.567382812 227.633789062 453.567382812 227.633789062 451.692382812 243.752929688 c 4,259,260
 451.401367188 246.26171875 451.401367188 246.26171875 450.987304688 247.408203125 c 132,-1,261
 450.541992188 248.642578125 450.541992188 248.642578125 449.6640625 249.44140625 c 4,262,263
 448.249023438 250.731445312 448.249023438 250.731445312 446.352539062 250.595703125 c 132,-1,264
 444.383789062 250.455078125 444.383789062 250.455078125 443.143554688 248.86328125 c 4,265,266
 442.081054688 247.501953125 442.081054688 247.501953125 441.637695312 243.711914062 c 4,267,268
 439.741210938 227.505859375 439.741210938 227.505859375 437.458007812 76.091796875 c 4,269,270
 437.170898438 57.017578125 437.170898438 57.017578125 436.977539062 44.6357421875 c 5,271,272
 436.805664062 56.6630859375 436.805664062 56.6630859375 436.551757812 75.0712890625 c 4,273,274
 434.485351562 224.953125 434.485351562 224.953125 432.6171875 240.873046875 c 4,275,276
 432.325195312 243.360351562 432.325195312 243.360351562 431.909179688 244.501953125 c 132,-1,277
 431.458007812 245.736328125 431.458007812 245.736328125 430.575195312 246.533203125 c 4,278,279
 428.92578125 248.022460938 428.92578125 248.022460938 426.758789062 247.604492188 c 4,280,281
 423.450195312 246.966796875 423.450195312 246.966796875 422.723632812 242.014648438 c 4,282,283
 422.356445312 239.517578125 422.356445312 239.517578125 422.032226562 234.296875 c 4,284,285
 421.375976562 223.7890625 421.375976562 223.7890625 420.8046875 200.995117188 c 4,286,287
 420.000976562 168.881835938 420.000976562 168.881835938 418.827148438 76.23046875 c 5,288,289
 416.844726562 216.740234375 416.844726562 216.740234375 414.4453125 236.70703125 c 4,290,291
 414.151367188 239.155273438 414.151367188 239.155273438 413.727539062 240.2890625 c 132,-1,292
 413.266601562 241.5234375 413.266601562 241.5234375 412.368164062 242.315429688 c 4,293,294
 410.504882812 243.95703125 410.504882812 243.95703125 408.147460938 243.2421875 c 4,295,296
 406.59375 242.771484375 406.59375 242.771484375 405.670898438 241.372070312 c 4,297,298
 404.911132812 240.220703125 404.911132812 240.220703125 404.541992188 237.768554688 c 132,-1,299
 404.170898438 235.305664062 404.170898438 235.305664062 403.83203125 230.196289062 c 4,300,301
 403.151367188 219.91796875 403.151367188 219.91796875 402.528320312 197.749023438 c 4,302,303
 401.649414062 166.48046875 401.649414062 166.48046875 400.262695312 76.546875 c 4,304,305
 400.256835938 76.158203125 400.256835938 76.158203125 399.840820312 75.37890625 c 132,-1,306
 399.426757812 74.6005859375 399.426757812 74.6005859375 399.420898438 74.2109375 c 5,307,308
 397.359375 214.712890625 397.359375 214.712890625 395.497070312 229.643554688 c 4,309,310
 395.200195312 232.03125 395.200195312 232.03125 394.765625 233.15234375 c 132,-1,311
 394.286132812 234.38671875 394.286132812 234.38671875 393.364257812 235.169921875 c 4,312,313
 392.114257812 236.232421875 392.114257812 236.232421875 390.485351562 236.232421875 c 4,314,315
 389.5625 236.232421875 389.5625 236.232421875 388.721679688 235.865234375 c 4,316,317
 387.434570312 235.305664062 387.434570312 235.305664062 386.663085938 234.076171875 c 132,-1,318
 385.953125 232.9453125 385.953125 232.9453125 385.586914062 230.592773438 c 132,-1,319
 385.213867188 228.185546875 385.213867188 228.185546875 384.872070312 223.264648438 c 4,320,321
 384.186523438 213.384765625 384.186523438 213.384765625 383.55078125 192.1796875 c 4,322,323
 382.833007812 168.255859375 382.833007812 168.255859375 380.696289062 46.21484375 c 5,324,325
 380.526367188 56.6640625 380.526367188 56.6640625 380.270507812 73.1640625 c 4,326,327
 378.211914062 205.69140625 378.211914062 205.69140625 376.354492188 219.791992188 c 4,328,329
 376.049804688 222.099609375 376.049804688 222.099609375 375.596679688 223.203125 c 132,-1,330
 375.090820312 224.435546875 375.090820312 224.435546875 374.135742188 225.204101562 c 4,331,332
 372.911132812 226.189453125 372.911132812 226.189453125 371.348632812 226.189453125 c 4,333,334
 370.139648438 226.189453125 370.139648438 226.189453125 369.096679688 225.57421875 c 4,335,336
 367.040039062 224.361328125 367.040039062 224.361328125 366.438476562 220.588867188 c 4,337,338
 366.069335938 218.26953125 366.069335938 218.26953125 365.739257812 213.619140625 c 4,339,340
 365.081054688 204.291015625 365.081054688 204.291015625 364.500976562 184.485351562 c 4,341,342
 363.686523438 156.559570312 363.686523438 156.559570312 362.481445312 76.7431640625 c 5,343,344
 361.854492188 114.294921875 361.854492188 114.294921875 359.80859375 179.771484375 c 4,345,346
 359.208007812 198.994140625 359.208007812 198.994140625 358.53515625 208.067382812 c 4,347,348
 358.200195312 212.599609375 358.200195312 212.599609375 357.825195312 214.877929688 c 4,349,350
 357.231445312 218.486328125 357.231445312 218.486328125 355.331054688 219.724609375 c 4,351,352
 354.223632812 220.447265625 354.223632812 220.447265625 352.903320312 220.447265625 c 132,-1,353
 351.387695312 220.447265625 351.387695312 220.447265625 350.182617188 219.513671875 c 4,354,355
 349.200195312 218.755859375 349.200195312 218.755859375 348.678710938 217.5234375 c 132,-1,356
 348.213867188 216.426757812 348.213867188 216.426757812 347.911132812 214.1796875 c 4,357,358
 346.08984375 200.6796875 346.08984375 200.6796875 344.340820312 73.8671875 c 5,359,360
 344.331054688 74.4609375 344.331054688 74.4609375 344.176757812 75.6494140625 c 132,-1,361
 344.024414062 76.837890625 344.024414062 76.837890625 344.014648438 77.431640625 c 4,362,363
 342.725585938 160.24609375 342.725585938 160.24609375 341.881835938 189.168945312 c 4,364,365
 341.282226562 209.681640625 341.282226562 209.681640625 340.614257812 219.2890625 c 4,366,367
 340.280273438 224.07421875 340.280273438 224.07421875 339.909179688 226.440429688 c 132,-1,368
 339.549804688 228.735351562 339.549804688 228.735351562 338.86328125 229.854492188 c 132,-1,369
 338.166992188 230.991210938 338.166992188 230.991210938 337.022460938 231.577148438 c 132,-1,370
 336.075195312 232.0625 336.075195312 232.0625 335.004882812 232.0625 c 4,371,372
 333.41015625 232.0625 333.41015625 232.0625 332.171875 231.038085938 c 4,373,374
 331.231445312 230.259765625 331.231445312 230.259765625 330.741210938 229.025390625 c 132,-1,375
 330.297851562 227.912109375 330.297851562 227.912109375 330 225.56640625 c 4,376,377
 328.155273438 211.064453125 328.155273438 211.064453125 326.231445312 74.650390625 c 5,378,379
 326.223632812 75.0966796875 326.223632812 75.0966796875 325.973632812 75.990234375 c 132,-1,380
 325.723632812 76.8828125 325.723632812 76.8828125 325.717773438 77.330078125 c 4,381,382
 324.426757812 165.1328125 324.426757812 165.1328125 323.583007812 195.681640625 c 4,383,384
 322.983398438 217.357421875 322.983398438 217.357421875 322.313476562 227.432617188 c 4,385,386
 321.981445312 232.446289062 321.981445312 232.446289062 321.610351562 234.879882812 c 132,-1,387
 321.247070312 237.283203125 321.247070312 237.283203125 320.512695312 238.42578125 c 132,-1,388
 319.668945312 239.740234375 319.668945312 239.740234375 318.254882812 240.26171875 c 4,389,390
 315.80078125 241.169921875 315.80078125 241.169921875 313.809570312 239.4453125 c 4,391,392
 312.899414062 238.65625 312.899414062 238.65625 312.430664062 237.422851562 c 132,-1,393
 312.002929688 236.296875 312.002929688 236.296875 311.70703125 233.877929688 c 4,394,395
 309.844726562 218.639648438 309.844726562 218.639648438 307.799804688 75.2451171875 c 5,396,397
 307.795898438 75.5390625 307.795898438 75.5390625 307.4765625 76.1279296875 c 132,-1,398
 307.157226562 76.716796875 307.157226562 76.716796875 307.153320312 77.0107421875 c 4,399,400
 305.862304688 168.375 305.862304688 168.375 305.016601562 200.076171875 c 4,401,402
 304.416992188 222.578125 304.416992188 222.578125 303.747070312 232.97265625 c 4,403,404
 303.415039062 238.143554688 303.415039062 238.143554688 303.045898438 240.62109375 c 4,405,406
 302.202148438 246.287109375 302.202148438 246.287109375 298.165039062 246.287109375 c 4,407,408
 296.477539062 246.287109375 296.477539062 246.287109375 295.206054688 245.153320312 c 4,409,410
 294.317382812 244.359375 294.317382812 244.359375 293.860351562 243.12890625 c 132,-1,411
 293.440429688 241.991210938 293.440429688 241.991210938 293.140625 239.517578125 c 4,412,413
 291.23046875 223.732421875 291.23046875 223.732421875 288.78125 75.1171875 c 4,414,415
 288.426757812 53.5625 288.426757812 53.5625 288.192382812 39.9462890625 c 5,416,417
 286.411132812 162.526367188 286.411132812 162.526367188 286.03515625 180.837890625 c 4,418,419
 285.333007812 214.931640625 285.333007812 214.931640625 284.559570312 230.501953125 c 4,420,421
 284.166992188 238.40234375 284.166992188 238.40234375 283.733398438 242.090820312 c 132,-1,422
 283.30078125 245.780273438 283.30078125 245.780273438 282.274414062 247.131835938 c 4,423,424
 280.915039062 248.924804688 280.915039062 248.924804688 278.708007812 248.924804688 c 4,425,426
 276.999023438 248.924804688 276.999023438 248.924804688 275.721679688 247.765625 c 4,427,428
 274.840820312 246.966796875 274.840820312 246.966796875 274.393554688 245.73046875 c 132,-1,429
 273.979492188 244.5859375 273.979492188 244.5859375 273.69140625 242.088867188 c 4,430,431
 271.840820312 226.081054688 271.840820312 226.081054688 269.965820312 75.3583984375 c 5,432,433
 269.965820312 75.46484375 269.965820312 75.46484375 269.741210938 75.6796875 c 132,-1,434
 269.516601562 75.8935546875 269.516601562 75.8935546875 269.515625 76.0009765625 c 4,435,436
 267.4453125 227.73828125 267.4453125 227.73828125 265.5703125 243.891601562 c 4,437,438
 265.278320312 246.400390625 265.278320312 246.400390625 264.8671875 247.548828125 c 4,439,440
 263.737304688 250.697265625 263.737304688 250.697265625 260.545898438 250.76171875 c 4,441,442
 258.831054688 250.76171875 258.831054688 250.76171875 257.551757812 249.595703125 c 4,443,444
 256.674804688 248.794921875 256.674804688 248.794921875 256.229492188 247.560546875 c 132,-1,445
 255.815429688 246.412109375 255.815429688 246.412109375 255.524414062 243.90234375 c 4,446,447
 253.661132812 227.776367188 253.661132812 227.776367188 251.696289062 75.95703125 c 4,448,449
 251.696289062 75.9541015625 251.696289062 75.9541015625 251.420898438 75.947265625 c 132,-1,450
 251.147460938 75.9404296875 251.147460938 75.9404296875 251.147460938 75.9375 c 5,451,452
 249.079101562 227.588867188 249.079101562 227.588867188 247.204101562 243.696289062 c 4,453,454
 246.913085938 246.203125 246.913085938 246.203125 246.499023438 247.350585938 c 132,-1,455
 246.053710938 248.583984375 246.053710938 248.583984375 245.17578125 249.383789062 c 4,456,457
 243.745117188 250.6875 243.745117188 250.6875 241.827148438 250.534179688 c 132,-1,458
 239.874023438 250.376953125 239.874023438 250.376953125 238.645507812 248.79296875 c 4,459,460
 237.590820312 247.431640625 237.590820312 247.431640625 237.155273438 243.649414062 c 4,461,462
 235.290039062 227.4765625 235.290039062 227.4765625 233.305664062 76.568359375 c 5,463,464
 231.327148438 219.81640625 231.327148438 219.81640625 228.797851562 241.310546875 c 4,465,466
 228.506835938 243.793945312 228.506835938 243.793945312 228.08984375 244.935546875 c 132,-1,467
 227.639648438 246.169921875 227.639648438 246.169921875 226.75390625 246.966796875 c 4,468,469
 225.0859375 248.469726562 225.0859375 248.469726562 222.899414062 248.02734375 c 4,470,471
 219.6328125 247.365234375 219.6328125 247.365234375 218.903320312 242.450195312 c 4,472,473
 218.532226562 239.955078125 218.532226562 239.955078125 218.196289062 234.739257812 c 4,474,475
 217.522460938 224.243164062 217.522460938 224.243164062 216.911132812 201.48046875 c 4,476,477
 216.047851562 169.396484375 216.047851562 169.396484375 214.70703125 76.9013671875 c 5,478,479
 212.772460938 213.486328125 212.772460938 213.486328125 210.022460938 236.290039062 c 4,480,481
 209.727539062 238.731445312 209.727539062 238.731445312 209.303710938 239.86328125 c 132,-1,482
 208.840820312 241.09765625 208.840820312 241.09765625 207.938476562 241.889648438 c 4,483,484
 206.026367188 243.5703125 206.026367188 243.5703125 203.622070312 242.779296875 c 4,485,486
 202.12109375 242.283203125 202.12109375 242.283203125 201.231445312 240.913085938 c 4,487,488
 200.483398438 239.763671875 200.483398438 239.763671875 200.120117188 237.328125 c 132,-1,489
 199.752929688 234.87109375 199.752929688 234.87109375 199.422851562 229.7890625 c 4,490,491
 198.762695312 219.56640625 198.762695312 219.56640625 198.180664062 197.54296875 c 4,492,493
 197.360351562 166.50390625 197.360351562 166.50390625 196.140625 77.1943359375 c 5,494,495
 194.190429688 209.329101562 194.190429688 209.329101562 191.680664062 229.305664062 c 4,496,497
 191.3828125 231.681640625 191.3828125 231.681640625 190.946289062 232.80078125 c 132,-1,498
 190.463867188 234.03515625 190.463867188 234.03515625 189.538085938 234.81640625 c 4,499,500
 188.290039062 235.869140625 188.290039062 235.869140625 186.670898438 235.869140625 c 4,501,502
 185.686523438 235.869140625 185.686523438 235.869140625 184.80078125 235.455078125 c 4,503,504
 183.571289062 234.880859375 183.571289062 234.880859375 182.831054688 233.6875 c 132,-1,505
 182.1328125 232.5625 182.1328125 232.5625 181.768554688 230.228515625 c 132,-1,506
 181.395507812 227.833007812 181.395507812 227.833007812 181.0546875 222.9453125 c 4,507,508
 180.368164062 213.12890625 180.368164062 213.12890625 179.734375 192.119140625 c 4,509,510
 179.016601562 168.376953125 179.016601562 168.376953125 176.891601562 47.634765625 c 5,511,512
 176.729492188 57.5458984375 176.729492188 57.5458984375 176.471679688 73.9453125 c 4,513,514
 174.415039062 204.928710938 174.415039062 204.928710938 172.555664062 218.866210938 c 4,515,516
 172.250976562 221.15625 172.250976562 221.15625 171.793945312 222.258789062 c 132,-1,517
 171.28515625 223.490234375 171.28515625 223.490234375 170.321289062 224.255859375 c 4,518,519
 169.102539062 225.225585938 169.102539062 225.225585938 167.553710938 225.225585938 c 4,520,521
 164.264648438 225.225585938 164.264648438 225.225585938 163.118164062 221.755859375 c 4,522,523
 162.850585938 220.9453125 162.850585938 220.9453125 162.63671875 219.641601562 c 4,524,525
 162.258789062 217.334960938 162.258789062 217.334960938 161.909179688 212.725585938 c 4,526,527
 161.209960938 203.483398438 161.209960938 203.483398438 160.543945312 183.880859375 c 4,528,529
 159.889648438 164.576171875 159.889648438 164.576171875 157.368164062 43.796875 c 5,530,531
 157.16796875 54.904296875 157.16796875 54.904296875 156.870117188 72.318359375 c 4,532,533
 154.819335938 192.0078125 154.819335938 192.0078125 152.965820312 204.771484375 c 4,534,535
 152.463867188 208.241210938 152.463867188 208.241210938 151.1015625 209.5703125 c 132,-1,536
 149.788085938 210.852539062 149.788085938 210.852539062 147.975585938 210.852539062 c 4,537,538
 146.381835938 210.852539062 146.381835938 210.852539062 145.141601562 209.833007812 c 132,-1,539
 144.038085938 208.926757812 144.038085938 208.926757812 143.514648438 207.3515625 c 4,540,541
 143.250976562 206.556640625 143.250976562 206.556640625 143.04296875 205.32421875 c 4,542,543
 142.674804688 203.146484375 142.674804688 203.146484375 142.352539062 198.915039062 c 4,544,545
 141.709960938 190.474609375 141.709960938 190.474609375 141.170898438 172.801757812 c 4,546,547
 140.411132812 147.923828125 140.411132812 147.923828125 139.3671875 77.267578125 c 5,548,549
 137.465820312 175.00390625 137.465820312 175.00390625 135.268554688 188.354492188 c 4,550,551
 134.72265625 191.666015625 134.72265625 191.666015625 133.219726562 192.958984375 c 4,552,553
 131.952148438 194.049804688 131.952148438 194.049804688 130.296875 194.049804688 c 4,554,555
 127.006835938 194.049804688 127.006835938 194.049804688 125.799804688 190.51953125 c 4,556,557
 125.122070312 188.541015625 125.122070312 188.541015625 124.598632812 182.900390625 c 4,558,559
 123.91015625 175.50390625 123.91015625 175.50390625 123.266601562 160.37109375 c 4,560,561
 122.364257812 139.11328125 122.364257812 139.11328125 120.899414062 79.1513671875 c 4,562,563
 120.864257812 77.771484375 120.864257812 77.771484375 120.395507812 75.017578125 c 132,-1,564
 119.924804688 72.263671875 119.924804688 72.263671875 119.891601562 70.890625 c 5,565,566
 118.879882812 112.802734375 118.879882812 112.802734375 118.28515625 129.487304688 c 4,567,568
 117.750976562 144.455078125 117.750976562 144.455078125 117.184570312 152.881835938 c 4,569,570
 116.735351562 159.567382812 116.735351562 159.567382812 116.2265625 162.711914062 c 4,571,572
 115.633789062 166.377929688 115.633789062 166.377929688 114.081054688 167.727539062 c 4,573,574
 112.797851562 168.841796875 112.797851562 168.841796875 111.118164062 168.841796875 c 4,575,576
 108.598632812 168.841796875 108.598632812 168.841796875 107.196289062 166.600585938 c 4,577,578
 106.497070312 165.481445312 106.497070312 165.481445312 106.063476562 163.420898438 c 4,579,580
 105.688476562 161.631835938 105.688476562 161.631835938 105.356445312 158.60546875 c 4,581,582
 104.706054688 152.65625 104.706054688 152.65625 104.141601562 141.130859375 c 4,583,584
 103.354492188 124.99609375 103.354492188 124.99609375 102.215820312 80.751953125 c 5,585,586
 102.045898438 84.986328125 102.045898438 84.986328125 101.305664062 92.1904296875 c 132,-1,587
 100.567382812 99.3935546875 100.567382812 99.3935546875 100.420898438 102.029296875 c 4,588,589
 99.8046875 113.069335938 99.8046875 113.069335938 99.1396484375 118.133789062 c 4,590,591
 98.6787109375 121.647460938 98.6787109375 121.647460938 98.0390625 123.177734375 c 132,-1,592
 97.4560546875 124.572265625 97.4560546875 124.572265625 96.408203125 125.389648438 c 132,-1,593
 95.1640625 126.359375 95.1640625 126.359375 93.603515625 126.359375 c 4,594,595
 91.353515625 126.359375 91.353515625 126.359375 89.9169921875 124.505859375 c 4,596,597
 89.1044921875 123.458984375 89.1044921875 123.458984375 88.58203125 121.521484375 c 4,598,599
 85.86328125 111.458984375 85.86328125 111.458984375 84.64453125 84.21875 c 4,600,601
 83.8310546875 66.03515625 83.8310546875 66.03515625 83.8310546875 47.9306640625 c 4,602,603
 83.8330078125 46.14453125 83.8330078125 46.14453125 85.0986328125 44.880859375 c 132,-1,604
 86.36328125 43.6171875 86.36328125 43.6171875 88.1494140625 43.6171875 c 132,-1,605
 89.9423828125 43.6171875 89.9423828125 43.6171875 91.2060546875 44.89453125 c 132,-1,606
 92.4677734375 46.171875 92.4677734375 46.171875 92.4677734375 48.0107421875 c 4,607,608
 92.4677734375 48.2119140625 92.4677734375 48.2119140625 92.6162109375 50.828125 c 132,-1,609
 92.763671875 53.4443359375 92.763671875 53.4443359375 92.9677734375 58.103515625 c 132,-1,610
 93.1728515625 62.7626953125 93.1728515625 62.7626953125 93.28125 67.4013671875 c 5,611,612
 94.525390625 35.17578125 94.525390625 35.17578125 95.345703125 22.9248046875 c 4,613,614
 95.9326171875 14.142578125 95.9326171875 14.142578125 96.5859375 9.24609375 c 132,-1,615
 97.2333984375 4.3876953125 97.2333984375 4.3876953125 98.1318359375 2.443359375 c 4,616,617
 99.4990234375 -0.517578125 99.4990234375 -0.517578125 102.459960938 -0.517578125 c 4,618,619
 104.747070312 -0.517578125 104.747070312 -0.517578125 106.15625 1.3828125 c 4,620,621
 106.90234375 2.388671875 106.90234375 2.388671875 107.313476562 4.12109375 c 132,-1,622
 107.752929688 5.978515625 107.752929688 5.978515625 108.122070312 9.7470703125 c 4,623,624
 108.817382812 16.8447265625 108.817382812 16.8447265625 109.426757812 32.384765625 c 4,625,626
 109.963867188 46.07421875 109.963867188 46.07421875 110.848632812 80.525390625 c 5,627,628
 110.889648438 78.904296875 110.889648438 78.904296875 111.053710938 75.619140625 c 132,-1,629
 111.217773438 72.3359375 111.217773438 72.3359375 111.256835938 70.677734375 c 4,630,631
 112.534179688 17.72265625 112.534179688 17.72265625 113.372070312 -1.275390625 c 4,632,633
 113.969726562 -14.8046875 113.969726562 -14.8046875 114.63671875 -21.5703125 c 4,634,635
 115.147460938 -26.740234375 115.147460938 -26.740234375 115.809570312 -28.7060546875 c 4,636,637
 116.157226562 -29.7373046875 116.157226562 -29.7373046875 116.700195312 -30.4658203125 c 4,638,639
 118.096679688 -32.337890625 118.096679688 -32.337890625 120.358398438 -32.337890625 c 4,640,641
 123.295898438 -32.337890625 123.295898438 -32.337890625 124.594726562 -29.46875 c 4,642,643
 125.135742188 -28.2783203125 125.135742188 -28.2783203125 125.502929688 -25.7822265625 c 4,644,645
 126.024414062 -22.2314453125 126.024414062 -22.2314453125 126.502929688 -14.6279296875 c 4,646,647
 127.108398438 -4.9921875 127.108398438 -4.9921875 127.702148438 12.09375 c 4,648,649
 128.168945312 25.533203125 128.168945312 25.533203125 130.004882812 98.005859375 c 5,650,651
 132.043945312 -0.087890625 132.043945312 -0.087890625 132.645507812 -16.689453125 c 132,-1,652
 133.243164062 -33.212890625 133.243164062 -33.212890625 133.911132812 -41.17578125 c 4,653,654
 134.247070312 -45.1787109375 134.247070312 -45.1787109375 134.622070312 -47.283203125 c 4,655,656
 134.833007812 -48.470703125 134.833007812 -48.470703125 135.09375 -49.24609375 c 4,657,658
 135.561523438 -50.6396484375 135.561523438 -50.6396484375 136.461914062 -51.5048828125 c 4,659,660
 137.77734375 -52.767578125 137.77734375 -52.767578125 139.573242188 -52.767578125 c 4,661,662
 142.428710938 -52.767578125 142.428710938 -52.767578125 143.721679688 -50.04296875 c 4,663,664
 144.23046875 -48.970703125 144.23046875 -48.970703125 144.546875 -46.865234375 c 4,665,666
 146.346679688 -34.9052734375 146.346679688 -34.9052734375 148.002929688 77.1376953125 c 5,667,668
 148.016601562 76.3095703125 148.016601562 76.3095703125 148.118164062 74.65234375 c 132,-1,669
 148.219726562 72.99609375 148.219726562 72.99609375 148.234375 72.16796875 c 4,670,671
 149.522460938 -2.9541015625 149.522460938 -2.9541015625 150.364257812 -29.2705078125 c 4,672,673
 150.961914062 -47.9716796875 150.961914062 -47.9716796875 151.631835938 -56.833984375 c 4,674,675
 151.965820312 -61.2646484375 151.965820312 -61.2646484375 152.338867188 -63.509765625 c 4,676,677
 152.915039062 -66.984375 152.915039062 -66.984375 154.686523438 -68.240234375 c 4,678,679
 155.844726562 -69.0634765625 155.844726562 -69.0634765625 157.26171875 -69.0634765625 c 132,-1,680
 158.764648438 -69.0634765625 158.764648438 -69.0634765625 159.965820312 -68.14453125 c 4,681,682
 160.948242188 -67.3935546875 160.948242188 -67.3935546875 161.477539062 -66.169921875 c 132,-1,683
 161.952148438 -65.07421875 161.952148438 -65.07421875 162.26953125 -62.830078125 c 4,684,685
 164.178710938 -49.3564453125 164.178710938 -49.3564453125 166.678710938 77.083984375 c 4,686,687
 167.059570312 96.287109375 167.059570312 96.287109375 167.29296875 107.59375 c 5,688,689
 169.360351562 -16.25390625 169.360351562 -16.25390625 169.967773438 -36.876953125 c 4,690,691
 170.567382812 -57.2001953125 170.567382812 -57.2001953125 171.235351562 -66.7236328125 c 4,692,693
 171.569335938 -71.4736328125 171.569335938 -71.4736328125 171.940429688 -73.818359375 c 132,-1,694
 172.30078125 -76.1015625 172.30078125 -76.1015625 172.987304688 -77.21875 c 132,-1,695
 173.678710938 -78.34375 173.678710938 -78.34375 174.805664062 -78.927734375 c 132,-1,696
 175.762695312 -79.423828125 175.762695312 -79.423828125 176.842773438 -79.423828125 c 4,697,698
 178.4296875 -79.423828125 178.4296875 -79.423828125 179.665039062 -78.41015625 c 4,699,700
 180.608398438 -77.6357421875 180.608398438 -77.6357421875 181.102539062 -76.4052734375 c 132,-1,701
 181.55078125 -75.29296875 181.55078125 -75.29296875 181.856445312 -72.953125 c 4,702,703
 183.743164062 -58.4990234375 183.743164062 -58.4990234375 186.040039062 77.388671875 c 4,704,705
 186.317382812 93.875 186.317382812 93.875 186.512695312 105.0703125 c 5,706,707
 188.416992188 -18.11328125 188.416992188 -18.11328125 189.1015625 -42.7412109375 c 4,708,709
 189.700195312 -64.298828125 189.700195312 -64.298828125 190.370117188 -74.330078125 c 4,710,711
 190.702148438 -79.3193359375 190.702148438 -79.3193359375 191.071289062 -81.751953125 c 132,-1,712
 191.436523438 -84.140625 191.436523438 -84.140625 192.161132812 -85.279296875 c 132,-1,713
 192.981445312 -86.568359375 192.981445312 -86.568359375 194.356445312 -87.1064453125 c 4,714,715
 196.838867188 -88.076171875 196.838867188 -88.076171875 198.868164062 -86.32421875 c 4,716,717
 199.782226562 -85.53515625 199.782226562 -85.53515625 200.252929688 -84.30078125 c 132,-1,718
 200.682617188 -83.1748046875 200.682617188 -83.1748046875 200.9765625 -80.7646484375 c 4,719,720
 202.827148438 -65.6064453125 202.827148438 -65.6064453125 204.776367188 77.07421875 c 5,721,722
 204.780273438 76.744140625 204.780273438 76.744140625 205.045898438 76.083984375 c 132,-1,723
 205.311523438 75.423828125 205.311523438 75.423828125 205.31640625 75.09375 c 4,724,725
 206.606445312 -15.9697265625 206.606445312 -15.9697265625 207.452148438 -47.572265625 c 4,726,727
 208.049804688 -69.9921875 208.049804688 -69.9921875 208.719726562 -80.3701171875 c 4,728,729
 209.051757812 -85.525390625 209.051757812 -85.525390625 209.420898438 -88.001953125 c 4,730,731
 210.265625 -93.66796875 210.265625 -93.66796875 214.301757812 -93.66796875 c 4,732,733
 215.989257812 -93.66796875 215.989257812 -93.66796875 217.258789062 -92.5361328125 c 4,734,735
 218.149414062 -91.7421875 218.149414062 -91.7421875 218.606445312 -90.5087890625 c 132,-1,736
 219.026367188 -89.37109375 219.026367188 -89.37109375 219.321289062 -86.904296875 c 4,737,738
 221.198242188 -71.189453125 221.198242188 -71.189453125 223.342773438 76.7744140625 c 5,739,740
 223.344726562 76.599609375 223.344726562 76.599609375 223.719726562 76.251953125 c 132,-1,741
 224.094726562 75.904296875 224.094726562 75.904296875 224.09765625 75.73046875 c 4,742,743
 225.129882812 0.92578125 225.129882812 0.92578125 225.75 -29.1298828125 c 4,744,745
 226.450195312 -63.1865234375 226.450195312 -63.1865234375 227.223632812 -78.7509765625 c 4,746,747
 227.6171875 -86.646484375 227.6171875 -86.646484375 228.05078125 -90.3349609375 c 132,-1,748
 228.483398438 -94.017578125 228.483398438 -94.017578125 229.502929688 -95.3681640625 c 4,749,750
 230.862304688 -97.171875 230.862304688 -97.171875 233.077148438 -97.171875 c 4,751,752
 234.786132812 -97.171875 234.786132812 -97.171875 236.0625 -96.013671875 c 4,753,754
 236.942382812 -95.21484375 236.942382812 -95.21484375 237.391601562 -93.98046875 c 132,-1,755
 237.805664062 -92.8359375 237.805664062 -92.8359375 238.096679688 -90.337890625 c 4,756,757
 239.958007812 -74.32421875 239.958007812 -74.32421875 241.94140625 76.4521484375 c 5,758,759
 241.942382812 76.345703125 241.942382812 76.345703125 242.2265625 76.134765625 c 132,-1,760
 242.510742188 75.9228515625 242.510742188 75.9228515625 242.51171875 75.8173828125 c 4,761,762
 244.581054688 -75.89453125 244.581054688 -75.89453125 246.456054688 -92.06640625 c 4,763,764
 246.747070312 -94.5751953125 246.747070312 -94.5751953125 247.157226562 -95.7236328125 c 4,765,766
 248.276367188 -98.849609375 248.276367188 -98.849609375 251.481445312 -98.943359375 c 4,767,768
 253.196289062 -98.943359375 253.196289062 -98.943359375 254.475585938 -97.77734375 c 4,769,770
 255.354492188 -96.9765625 255.354492188 -96.9765625 255.797851562 -95.7421875 c 132,-1,771
 256.211914062 -94.59375 256.211914062 -94.59375 256.502929688 -92.083984375 c 4,772,773
 258.366210938 -75.9599609375 258.366210938 -75.9599609375 260.331054688 75.84375 c 4,774,775
 260.331054688 75.849609375 260.331054688 75.849609375 260.60546875 75.8623046875 c 132,-1,776
 260.879882812 75.875 260.879882812 75.875 260.879882812 75.880859375 c 5,777,778
 262.948242188 -75.79296875 262.948242188 -75.79296875 264.821289062 -91.90234375 c 4,779,780
 265.114257812 -94.41015625 265.114257812 -94.41015625 265.528320312 -95.5576171875 c 132,-1,781
 265.973632812 -96.791015625 265.973632812 -96.791015625 266.8515625 -97.5908203125 c 4,782,783
 268.276367188 -98.8876953125 268.276367188 -98.8876953125 270.182617188 -98.7421875 c 132,-1,784
 272.143554688 -98.59375 272.143554688 -98.59375 273.377929688 -97.0048828125 c 4,785,786
 274.436523438 -95.640625 274.436523438 -95.640625 274.870117188 -91.8564453125 c 4,787,788
 276.725585938 -75.689453125 276.725585938 -75.689453125 278.602539062 75.2490234375 c 5,789,790
 280.6015625 -69.6494140625 280.6015625 -69.6494140625 282.98828125 -89.958984375 c 4,791,792
 283.280273438 -92.4462890625 283.280273438 -92.4462890625 283.696289062 -93.587890625 c 132,-1,793
 284.147460938 -94.8212890625 284.147460938 -94.8212890625 285.032226562 -95.619140625 c 4,794,795
 286.666992188 -97.091796875 286.666992188 -97.091796875 288.813476562 -96.6943359375 c 4,796,797
 292.139648438 -96.078125 292.139648438 -96.078125 292.885742188 -91.115234375 c 4,798,799
 293.260742188 -88.619140625 293.260742188 -88.619140625 293.606445312 -83.390625 c 4,800,801
 294.301757812 -72.865234375 294.301757812 -72.865234375 294.959960938 -50.0361328125 c 4,802,803
 295.668945312 -25.40625 295.668945312 -25.40625 298.0234375 111.171875 c 5,804,805
 298.217773438 98.0986328125 298.217773438 98.0986328125 298.516601562 76.88671875 c 4,806,807
 300.581054688 -69.16015625 300.581054688 -69.16015625 302.446289062 -84.6728515625 c 4,808,809
 302.741210938 -87.119140625 302.741210938 -87.119140625 303.165039062 -88.251953125 c 132,-1,810
 303.625976562 -89.486328125 303.625976562 -89.486328125 304.524414062 -90.2783203125 c 4,811,812
 306.383789062 -91.916015625 306.383789062 -91.916015625 308.741210938 -91.205078125 c 4,813,814
 310.295898438 -90.734375 310.295898438 -90.734375 311.219726562 -89.3349609375 c 4,815,816
 311.979492188 -88.1826171875 311.979492188 -88.1826171875 312.34765625 -85.7314453125 c 132,-1,817
 312.717773438 -83.2705078125 312.717773438 -83.2705078125 313.049804688 -78.173828125 c 4,818,819
 313.717773438 -67.92578125 313.717773438 -67.92578125 314.313476562 -45.798828125 c 4,820,821
 315.155273438 -14.62109375 315.155273438 -14.62109375 316.434570312 75.1201171875 c 5,822,823
 318.374023438 -56.951171875 318.374023438 -56.951171875 321.006835938 -78.01953125 c 4,824,825
 321.3046875 -80.40625 321.3046875 -80.40625 321.739257812 -81.5263671875 c 132,-1,826
 322.21875 -82.759765625 322.21875 -82.759765625 323.141601562 -83.5439453125 c 4,827,828
 324.391601562 -84.603515625 324.391601562 -84.603515625 326.018554688 -84.603515625 c 4,829,830
 326.940429688 -84.603515625 326.940429688 -84.603515625 327.782226562 -84.2373046875 c 4,831,832
 329.067382812 -83.677734375 329.067382812 -83.677734375 329.840820312 -82.447265625 c 132,-1,833
 330.551757812 -81.314453125 330.551757812 -81.314453125 330.913085938 -78.9619140625 c 132,-1,834
 331.28125 -76.5625 331.28125 -76.5625 331.609375 -71.65625 c 4,835,836
 332.26953125 -61.7958984375 332.26953125 -61.7958984375 332.846679688 -40.6806640625 c 4,837,838
 333.661132812 -10.908203125 333.661132812 -10.908203125 334.8671875 74.525390625 c 5,839,840
 336.803710938 -50.1240234375 336.803710938 -50.1240234375 339.293945312 -68.978515625 c 4,841,842
 339.598632812 -71.279296875 339.598632812 -71.279296875 340.051757812 -72.384765625 c 132,-1,843
 340.557617188 -73.6171875 340.557617188 -73.6171875 341.514648438 -74.384765625 c 4,844,845
 342.739257812 -75.3671875 342.739257812 -75.3671875 344.297851562 -75.3671875 c 4,846,847
 345.520507812 -75.3671875 345.520507812 -75.3671875 346.5703125 -74.7412109375 c 4,848,849
 348.612304688 -73.5234375 348.612304688 -73.5234375 349.208007812 -69.7626953125 c 4,850,851
 349.575195312 -67.447265625 349.575195312 -67.447265625 349.8984375 -62.8037109375 c 4,852,853
 350.545898438 -53.4990234375 350.545898438 -53.4990234375 351.098632812 -33.7314453125 c 4,854,855
 351.877929688 -5.880859375 351.877929688 -5.880859375 352.975585938 73.7451171875 c 5,856,857
 353.838867188 22.02734375 353.838867188 22.02734375 355.452148438 -29.64453125 c 4,858,859
 356.053710938 -48.8837890625 356.053710938 -48.8837890625 356.723632812 -57.9755859375 c 4,860,861
 357.059570312 -62.515625 357.059570312 -62.515625 357.43359375 -64.80859375 c 4,862,863
 358.010742188 -68.349609375 358.010742188 -68.349609375 359.8125 -69.609375 c 4,864,865
 360.961914062 -70.412109375 360.961914062 -70.412109375 362.360351562 -70.412109375 c 132,-1,866
 363.87890625 -70.412109375 363.87890625 -70.412109375 365.0859375 -69.4765625 c 4,867,868
 366.063476562 -68.71875 366.063476562 -68.71875 366.5859375 -67.48828125 c 132,-1,869
 367.05078125 -66.392578125 367.05078125 -66.392578125 367.356445312 -64.140625 c 4,870,871
 369.196289062 -50.59765625 369.196289062 -50.59765625 371.116210938 76.6103515625 c 5,872,873
 371.125976562 76.013671875 371.125976562 76.013671875 371.375976562 74.8193359375 c 132,-1,874
 371.625976562 73.625 371.625976562 73.625 371.635742188 73.02734375 c 4,875,876
 372.922851562 -9.95703125 372.922851562 -9.95703125 373.766601562 -38.9169921875 c 4,877,878
 374.366210938 -59.46484375 374.366210938 -59.46484375 375.03515625 -69.0869140625 c 4,879,880
 375.368164062 -73.880859375 375.368164062 -73.880859375 375.739257812 -76.2470703125 c 132,-1,881
 376.098632812 -78.544921875 376.098632812 -78.544921875 376.78515625 -79.6640625 c 132,-1,882
 377.485351562 -80.8046875 377.485351562 -80.8046875 378.633789062 -81.390625 c 4,883,884
 379.579101562 -81.87109375 379.579101562 -81.87109375 380.641601562 -81.87109375 c 4,885,886
 382.239257812 -81.87109375 382.239257812 -81.87109375 383.477539062 -80.8447265625 c 4,887,888
 384.415039062 -80.068359375 384.415039062 -80.068359375 384.90625 -78.8369140625 c 132,-1,889
 385.350585938 -77.72265625 385.350585938 -77.72265625 385.655273438 -75.369140625 c 4,890,891
 387.543945312 -60.783203125 387.543945312 -60.783203125 389.848632812 76.3818359375 c 4,892,893
 390.137695312 93.62890625 390.137695312 93.62890625 390.329101562 104.61328125 c 5,894,895
 392.235351562 -19.673828125 392.235351562 -19.673828125 392.918945312 -44.4619140625 c 4,896,897
 393.51953125 -66.1728515625 393.51953125 -66.1728515625 394.188476562 -76.2568359375 c 4,898,899
 394.520507812 -81.275390625 394.520507812 -81.275390625 394.890625 -83.7109375 c 132,-1,900
 395.256835938 -86.119140625 395.256835938 -86.119140625 395.995117188 -87.2626953125 c 132,-1,901
 396.848632812 -88.587890625 396.848632812 -88.587890625 398.284179688 -89.103515625 c 4,902,903
 400.723632812 -89.982421875 400.723632812 -89.982421875 402.692382812 -88.2724609375 c 4,904,905
 403.6015625 -87.484375 403.6015625 -87.484375 404.071289062 -86.251953125 c 132,-1,906
 404.5 -85.123046875 404.5 -85.123046875 404.797851562 -82.701171875 c 4,907,908
 406.6796875 -67.419921875 406.6796875 -67.419921875 408.8984375 76.4111328125 c 4,909,910
 409.155273438 93.060546875 409.155273438 93.060546875 409.325195312 103.770507812 c 5,911,912
 411.163085938 -21.515625 411.163085938 -21.515625 411.875976562 -48.306640625 c 4,913,914
 412.475585938 -70.8095703125 412.475585938 -70.8095703125 413.14453125 -81.2138671875 c 4,915,916
 413.477539062 -86.3837890625 413.477539062 -86.3837890625 413.844726562 -88.861328125 c 4,917,918
 414.688476562 -94.521484375 414.688476562 -94.521484375 418.723632812 -94.521484375 c 4,919,920
 420.415039062 -94.521484375 420.415039062 -94.521484375 421.684570312 -93.3857421875 c 4,921,922
 422.577148438 -92.5888671875 422.577148438 -92.5888671875 423.03125 -91.353515625 c 132,-1,923
 423.450195312 -90.216796875 423.450195312 -90.216796875 423.739257812 -87.7470703125 c 4,924,925
 425.586914062 -72.0146484375 425.586914062 -72.0146484375 427.461914062 76.119140625 c 5,926,927
 427.465820312 75.923828125 427.465820312 75.923828125 427.690429688 75.53515625 c 132,-1,928
 427.9140625 75.14453125 427.9140625 75.14453125 427.916992188 74.9501953125 c 4,929,930
 428.950195312 -0.005859375 428.950195312 -0.005859375 429.567382812 -30.1220703125 c 4,931,932
 430.26953125 -64.234375 430.26953125 -64.234375 431.043945312 -79.828125 c 4,933,934
 431.434570312 -87.728515625 431.434570312 -87.728515625 431.870117188 -91.4228515625 c 132,-1,935
 432.303710938 -95.119140625 432.303710938 -95.119140625 433.3359375 -96.4716796875 c 4,936,937
 434.696289062 -98.25390625 434.696289062 -98.25390625 436.89453125 -98.25390625 c 4,938,939
 438.604492188 -98.25390625 438.604492188 -98.25390625 439.881835938 -97.09375 c 4,940,941
 440.760742188 -96.2958984375 440.760742188 -96.2958984375 441.208007812 -95.064453125 c 132,-1,942
 441.624023438 -93.91796875 441.624023438 -93.91796875 441.918945312 -91.416015625 c 4,943,944
 443.813476562 -75.345703125 443.813476562 -75.345703125 446.094726562 75.958984375 c 4,945,946
 446.383789062 95.18359375 446.383789062 95.18359375 446.567382812 106.97265625 c 5,947,948
 446.743164062 94.662109375 446.743164062 94.662109375 447 75.76953125 c 4,949,950
 449.069335938 -76.03515625 449.069335938 -76.03515625 450.944335938 -92.1884765625 c 4,951,952
 451.235351562 -94.697265625 451.235351562 -94.697265625 451.6484375 -95.8466796875 c 132,-1,953
 452.086914062 -97.068359375 452.086914062 -97.068359375 452.946289062 -97.865234375 c 4,954,955
 454.202148438 -99.029296875 454.202148438 -99.029296875 455.96875 -99.056640625 c 132,-1,956
 457.68359375 -99.056640625 457.68359375 -99.056640625 458.961914062 -97.890625 c 4,957,958
 459.83984375 -97.0908203125 459.83984375 -97.0908203125 460.28515625 -95.857421875 c 132,-1,959
 460.700195312 -94.7109375 460.700195312 -94.7109375 460.9921875 -92.197265625 c 4,960,961
 462.870117188 -76.0546875 462.870117188 -76.0546875 464.969726562 75.8994140625 c 4,962,963
 464.969726562 75.9423828125 464.969726562 75.9423828125 465.317382812 76.02734375 c 132,-1,964
 465.666992188 76.111328125 465.666992188 76.111328125 465.666992188 76.154296875 c 5,965,966
 467.735351562 -75.37109375 467.735351562 -75.37109375 469.609375 -91.466796875 c 4,967,968
 469.901367188 -93.97265625 469.901367188 -93.97265625 470.315429688 -95.119140625 c 132,-1,969
 470.760742188 -96.3515625 470.760742188 -96.3515625 471.639648438 -97.15234375 c 4,970,971
 473.086914062 -98.470703125 473.086914062 -98.470703125 475.024414062 -98.298828125 c 132,-1,972
 476.961914062 -98.1259765625 476.961914062 -98.1259765625 478.176757812 -96.548828125 c 4,973,974
 479.227539062 -95.18359375 479.227539062 -95.18359375 479.653320312 -91.4111328125 c 4,975,976
 481.471679688 -75.2861328125 481.471679688 -75.2861328125 483.01171875 75.03515625 c 5,977,-1
 483.081054688 75.1337890625 l 5,978,979
 485.145507812 -74.193359375 485.145507812 -74.193359375 487.015625 -90.052734375 c 4,980,981
 487.307617188 -92.53515625 487.307617188 -92.53515625 487.725585938 -93.67578125 c 132,-1,982
 488.176757812 -94.908203125 488.176757812 -94.908203125 489.063476562 -95.7060546875 c 4,983,984
 490.721679688 -97.197265625 490.721679688 -97.197265625 492.89453125 -96.767578125 c 4,985,986
 496.176757812 -96.1181640625 496.176757812 -96.1181640625 496.911132812 -91.1953125 c 4,987,988
 497.282226562 -88.7060546875 497.282226562 -88.7060546875 497.618164062 -83.501953125 c 4,989,990
 498.295898438 -73.029296875 498.295898438 -73.029296875 498.911132812 -50.31640625 c 4,991,992
 499.780273438 -18.3046875 499.780273438 -18.3046875 501.137695312 73.9951171875 c 5,993,994
 503.069335938 -62.09375 503.069335938 -62.09375 505.856445312 -85.14453125 c 4,995,996
 506.151367188 -87.58203125 506.151367188 -87.58203125 506.575195312 -88.71484375 c 132,-1,997
 507.040039062 -89.94921875 507.040039062 -89.94921875 507.942382812 -90.740234375 c 4,998,999
 509.829101562 -92.3935546875 509.829101562 -92.3935546875 512.204101562 -91.6435546875 c 4,1000,1001
 513.727539062 -91.1611328125 513.727539062 -91.1611328125 514.633789062 -89.78125 c 4,1002,1003
 515.390625 -88.6318359375 515.390625 -88.6318359375 515.758789062 -86.193359375 c 132,-1,1004
 516.129882812 -83.7412109375 516.129882812 -83.7412109375 516.463867188 -78.6689453125 c 4,1005,1006
 517.135742188 -68.46875 517.135742188 -68.46875 517.7421875 -46.4755859375 c 4,1007,1008
 518.59765625 -15.4453125 518.59765625 -15.4453125 519.915039062 73.71484375 c 5,1009,1010
 521.840820312 -56.4951171875 521.840820312 -56.4951171875 524.5546875 -78.0654296875 c 4,1011,1012
 524.854492188 -80.44140625 524.854492188 -80.44140625 525.290039062 -81.55859375 c 132,-1,1013
 525.772460938 -82.7919921875 525.772460938 -82.7919921875 526.700195312 -83.57421875 c 4,1014,1015
 527.948242188 -84.6240234375 527.948242188 -84.6240234375 529.565429688 -84.6240234375 c 4,1016,1017
 530.522460938 -84.6240234375 530.522460938 -84.6240234375 531.390625 -84.23046875 c 4,1018,1019
 532.639648438 -83.666015625 532.639648438 -83.666015625 533.39453125 -82.4599609375 c 132,-1,1020
 534.100585938 -81.33203125 534.100585938 -81.33203125 534.46484375 -78.99609375 c 132,-1,1021
 534.838867188 -76.6064453125 534.838867188 -76.6064453125 535.178710938 -71.73046875 c 4,1022,1023
 535.860351562 -61.939453125 535.860351562 -61.939453125 536.489257812 -40.9677734375 c 4,1024,1025
 537.211914062 -16.8955078125 537.211914062 -16.8955078125 539.276367188 102.171875 c 5,1026,1027
 539.440429688 92.0966796875 539.440429688 92.0966796875 539.680664062 76.83984375 c 4,1028,1029
 541.737304688 -53.96484375 541.737304688 -53.96484375 543.594726562 -67.8857421875 c 4,1030,1031
 543.899414062 -70.173828125 543.899414062 -70.173828125 544.358398438 -71.2763671875 c 132,-1,1032
 544.868164062 -72.5078125 544.868164062 -72.5078125 545.83203125 -73.2734375 c 4,1033,1034
 547.051757812 -74.2412109375 547.051757812 -74.2412109375 548.598632812 -74.2412109375 c 4,1035,1036
 551.887695312 -74.2412109375 551.887695312 -74.2412109375 553.034179688 -70.771484375 c 4,1037,1038
 553.301757812 -69.9609375 553.301757812 -69.9609375 553.514648438 -68.658203125 c 4,1039,1040
 553.889648438 -66.35546875 553.889648438 -66.35546875 554.231445312 -61.75390625 c 4,1041,1042
 554.918945312 -52.53125 554.918945312 -52.53125 555.5546875 -32.9697265625 c 4,1043,1044
 556.25390625 -11.474609375 556.25390625 -11.474609375 558.424804688 101.974609375 c 5,1045,1046
 558.590820312 92.724609375 558.590820312 92.724609375 558.842773438 78.08203125 c 4,1047,1048
 560.893554688 -41.330078125 560.893554688 -41.330078125 562.745117188 -54.0625 c 4,1049,1050
 563.249023438 -57.5302734375 563.249023438 -57.5302734375 564.612304688 -58.8583984375 c 132,-1,1051
 565.92578125 -60.13671875 565.92578125 -60.13671875 567.735351562 -60.13671875 c 132,-1,1052
 569.358398438 -60.13671875 569.358398438 -60.13671875 570.612304688 -59.0830078125 c 132,-1,1053
 571.688476562 -58.177734375 571.688476562 -58.177734375 572.202148438 -56.62109375 c 4,1054,1055
 572.463867188 -55.828125 572.463867188 -55.828125 572.670898438 -54.595703125 c 4,1056,1057
 573.036132812 -52.4150390625 573.036132812 -52.4150390625 573.354492188 -48.1875 c 4,1058,1059
 573.989257812 -39.75390625 573.989257812 -39.75390625 574.512695312 -22.1162109375 c 4,1060,1061
 575.249023438 2.6875 575.249023438 2.6875 576.229492188 73.1943359375 c 5,1062,1063
 578.149414062 -25.4013671875 578.149414062 -25.4013671875 580.20703125 -37.884765625 c 4,1064,1065
 580.752929688 -41.1953125 580.752929688 -41.1953125 582.256835938 -42.4873046875 c 4,1066,1067
 583.524414062 -43.576171875 583.524414062 -43.576171875 585.178710938 -43.576171875 c 4,1068,1069
 588.477539062 -43.576171875 588.477539062 -43.576171875 589.6796875 -40.0322265625 c 4,1070,1071
 590.352539062 -38.046875 590.352539062 -38.046875 590.860351562 -32.4013671875 c 4,1072,1073
 591.5234375 -25 591.5234375 -25 592.110351562 -9.869140625 c 4,1074,1075
 592.936523438 11.40234375 592.936523438 11.40234375 594.176757812 71.25390625 c 5,1076,1077
 594.430664062 60.8408203125 594.430664062 60.8408203125 595.301757812 43.21484375 c 132,-1,1078
 596.174804688 25.5888671875 596.174804688 25.5888671875 596.352539062 20.650390625 c 4,1079,1080
 596.883789062 5.748046875 596.883789062 5.748046875 597.450195312 -2.6357421875 c 4,1081,1082
 597.8984375 -9.291015625 597.8984375 -9.291015625 598.405273438 -12.4228515625 c 4,1083,1084
 598.997070312 -16.080078125 598.997070312 -16.080078125 600.551757812 -17.427734375 c 4,1085,1086
 601.834960938 -18.5390625 601.834960938 -18.5390625 603.510742188 -18.5390625 c 4,1087,1088
 606.090820312 -18.5390625 606.090820312 -18.5390625 607.487304688 -16.2080078125 c 4,1089,1090
 608.149414062 -15.1044921875 608.149414062 -15.1044921875 608.577148438 -13.0859375 c 4,1091,1092
 608.956054688 -11.296875 608.956054688 -11.296875 609.299804688 -8.2900390625 c 4,1093,1094
 609.9765625 -2.3671875 609.9765625 -2.3671875 610.6015625 9.052734375 c 4,1095,1096
 611.475585938 25.044921875 611.475585938 25.044921875 612.868164062 68.92578125 c 4,1097,1098
 612.952148438 71.5498046875 612.952148438 71.5498046875 613.278320312 76.669921875 c 132,-1,1099
 613.604492188 81.7890625 613.604492188 81.7890625 613.688476562 84.255859375 c 5,1100,1101
 614.627929688 60.4892578125 614.627929688 60.4892578125 615.161132812 51.1484375 c 4,1102,1103
 615.768554688 40.4921875 615.768554688 40.4921875 616.420898438 35.60546875 c 4,1104,1105
 616.875976562 32.1923828125 616.875976562 32.1923828125 617.512695312 30.6923828125 c 132,-1,1106
 618.100585938 29.310546875 618.100585938 29.310546875 619.153320312 28.5009765625 c 132,-1,1107
 620.387695312 27.552734375 620.387695312 27.552734375 621.9296875 27.552734375 c 4,1108,1109
 624.303710938 27.552734375 624.303710938 27.552734375 625.747070312 29.583984375 c 4,1110,1111
 626.526367188 30.6796875 626.526367188 30.6796875 627.049804688 32.78515625 c 4,1112,1113
 632.078125 52.9990234375 632.078125 52.9990234375 632.078125 100.243164062 c 4,85,86
EndSplineSet
Fore
SplineSet
246.243164062 260.958984375 m 0,0,1
 210.924804688 260.958984375 210.924804688 260.958984375 177.946289062 246.9765625 c 128,-1,2
 144.969726562 232.994140625 144.969726562 232.994140625 119.166992188 208.241210938 c 0,3,4
 98.5732421875 188.486328125 98.5732421875 188.486328125 84.6708984375 163.6796875 c 128,-1,5
 70.7685546875 138.873046875 70.7685546875 138.873046875 65.548828125 111.182617188 c 0,6,7
 61.5029296875 92.900390625 61.5029296875 92.900390625 61.5029296875 73.826171875 c 0,8,9
 61.5029296875 44.62109375 61.5029296875 44.62109375 70.6904296875 16.482421875 c 128,-1,10
 79.8779296875 -11.65625 79.8779296875 -11.65625 96.9150390625 -35.689453125 c 0,11,12
 125.356445312 -75.810546875 125.356445312 -75.810546875 168.014648438 -95.5634765625 c 0,13,14
 205.446289062 -113.973632812 205.446289062 -113.973632812 248.71875 -113.973632812 c 0,15,16
 304.571289062 -113.973632812 304.571289062 -113.973632812 350.096679688 -84.6650390625 c 1,17,18
 394.883789062 -113.833984375 394.883789062 -113.833984375 450.920898438 -113.833984375 c 0,19,20
 484.899414062 -113.833984375 484.899414062 -113.833984375 516.833007812 -102.278320312 c 128,-1,21
 548.766601562 -90.72265625 548.766601562 -90.72265625 573.77734375 -68.30859375 c 0,22,23
 604.965820312 -42.212890625 604.965820312 -42.212890625 621.731445312 -4.31640625 c 128,-1,24
 638.497070312 33.580078125 638.497070312 33.580078125 638.497070312 74.6181640625 c 0,25,26
 638.497070312 122.751953125 638.497070312 122.751953125 615.946289062 162.809570312 c 0,27,28
 595.084960938 202.711914062 595.084960938 202.711914062 555.932617188 228.802734375 c 0,29,30
 507.41796875 261.129882812 507.41796875 261.129882812 450.2890625 261.129882812 c 0,31,32
 426.055664062 261.129882812 426.055664062 261.129882812 403.282226562 254.7421875 c 0,33,34
 374.942382812 247.28125 374.942382812 247.28125 350.172851562 231.458984375 c 1,35,36
 303.889648438 261.07421875 303.889648438 261.07421875 249.096679688 260.935546875 c 0,37,38
 248.620117188 260.935546875 248.620117188 260.935546875 247.668945312 260.947265625 c 128,-1,39
 246.71875 260.958984375 246.71875 260.958984375 246.243164062 260.958984375 c 0,0,1
248.059570312 227.564453125 m 1,40,41
 248.333007812 227.5625 248.333007812 227.5625 248.51953125 227.5625 c 0,42,43
 251.61328125 227.5625 251.61328125 227.5625 254.66796875 227.454101562 c 1,44,45
 253.211914062 191.095703125 253.211914062 191.095703125 251.696289062 73.95703125 c 0,46,47
 251.696289062 73.9541015625 251.696289062 73.9541015625 251.420898438 73.947265625 c 128,-1,48
 251.147460938 73.9404296875 251.147460938 73.9404296875 251.147460938 73.9375 c 1,49,50
 249.543945312 191.432617188 249.543945312 191.432617188 248.059570312 227.564453125 c 1,40,41
236.296875 227.2265625 m 1,51,52
 234.836914062 190.998046875 234.836914062 190.998046875 233.305664062 74.568359375 c 1,53,54
 231.706054688 190.361328125 231.706054688 190.361328125 229.747070312 226.598632812 c 0,55,56
 233.012695312 226.990234375 233.012695312 226.990234375 236.296875 227.2265625 c 1,51,52
217.765625 224.623046875 m 1,57,58
 217.32421875 214.846679688 217.32421875 214.846679688 216.911132812 199.48046875 c 0,59,60
 216.047851562 167.396484375 216.047851562 167.396484375 214.70703125 74.9013671875 c 1,61,62
 213.106445312 187.884765625 213.106445312 187.884765625 210.948242188 223.01171875 c 0,63,64
 214.34765625 223.904296875 214.34765625 223.904296875 217.765625 224.623046875 c 1,57,58
198.975585938 219.305664062 m 1,65,66
 198.561523438 209.94921875 198.561523438 209.94921875 198.180664062 195.54296875 c 0,67,68
 197.360351562 164.50390625 197.360351562 164.50390625 196.140625 75.1943359375 c 1,69,70
 194.532226562 184.146484375 194.532226562 184.146484375 192.543945312 216.84375 c 0,71,72
 195.750976562 218.154296875 195.750976562 218.154296875 198.975585938 219.305664062 c 1,65,66
180.516601562 211.342773438 m 1,73,74
 180.116210938 202.754882812 180.116210938 202.754882812 179.734375 190.119140625 c 0,75,76
 179.016601562 166.376953125 179.016601562 166.376953125 176.891601562 45.634765625 c 1,77,78
 176.729492188 55.5458984375 176.729492188 55.5458984375 176.471679688 71.9453125 c 0,79,80
 174.803710938 178.185546875 174.803710938 178.185546875 173.265625 207.423828125 c 0,81,82
 176.83203125 209.47265625 176.83203125 209.47265625 180.516601562 211.342773438 c 1,73,74
161.26171875 199.791015625 m 1,83,84
 160.8984375 192.299804688 160.8984375 192.299804688 160.543945312 181.880859375 c 0,85,86
 159.889648438 162.576171875 159.889648438 162.576171875 157.368164062 41.796875 c 1,87,88
 157.16796875 52.904296875 157.16796875 52.904296875 156.870117188 70.318359375 c 0,89,90
 155.20703125 167.384765625 155.20703125 167.384765625 153.672851562 194.125976562 c 0,91,92
 157.389648438 197.077148438 157.389648438 197.077148438 161.26171875 199.791015625 c 1,83,84
141.622070312 183.536132812 m 1,93,94
 141.387695312 177.916992188 141.387695312 177.916992188 141.170898438 170.801757812 c 0,95,96
 140.411132812 145.923828125 140.411132812 145.923828125 139.3671875 75.267578125 c 1,97,98
 137.836914062 153.969726562 137.836914062 153.969726562 136.11328125 177.954101562 c 0,99,100
 138.780273438 180.783203125 138.780273438 180.783203125 141.622070312 183.536132812 c 1,93,94
123.461914062 162.7734375 m 1,101,102
 123.364257812 160.661132812 123.364257812 160.661132812 123.266601562 158.37109375 c 0,103,104
 122.364257812 137.11328125 122.364257812 137.11328125 120.899414062 77.1513671875 c 0,105,106
 120.864257812 75.771484375 120.864257812 75.771484375 120.395507812 73.017578125 c 128,-1,107
 119.924804688 70.263671875 119.924804688 70.263671875 119.891601562 68.890625 c 1,108,109
 118.879882812 110.802734375 118.879882812 110.802734375 118.28515625 127.487304688 c 0,110,111
 117.750976562 142.455078125 117.750976562 142.455078125 117.184570312 150.881835938 c 0,112,113
 117.102539062 152.099609375 117.102539062 152.099609375 117.018554688 153.201171875 c 0,114,115
 120.028320312 158.078125 120.028320312 158.078125 123.461914062 162.7734375 c 1,101,102
103.559570312 124.727539062 m 1,116,117
 102.961914062 107.796875 102.961914062 107.796875 102.215820312 78.751953125 c 1,118,119
 102.045898438 82.986328125 102.045898438 82.986328125 101.305664062 90.1904296875 c 128,-1,120
 100.567382812 97.3935546875 100.567382812 97.3935546875 100.420898438 100.029296875 c 0,121,122
 100.049804688 106.672851562 100.049804688 106.672851562 99.6611328125 111.15234375 c 0,123,124
 101.288085938 118.079101562 101.288085938 118.079101562 103.559570312 124.727539062 c 1,116,117
108.422851562 11.265625 m 0,125,126
 108.952148438 18.2529296875 108.952148438 18.2529296875 109.426757812 30.384765625 c 0,127,128
 109.963867188 44.07421875 109.963867188 44.07421875 110.848632812 78.525390625 c 1,129,130
 110.889648438 76.904296875 110.889648438 76.904296875 111.053710938 73.619140625 c 128,-1,131
 111.217773438 70.3359375 111.217773438 70.3359375 111.256835938 68.677734375 c 0,132,133
 112.389648438 21.70703125 112.389648438 21.70703125 113.176757812 1.4521484375 c 1,134,135
 110.63671875 6.26953125 110.63671875 6.26953125 108.422851562 11.265625 c 0,125,126
126.317382812 -19.388671875 m 0,136,137
 126.411132812 -18.0830078125 126.411132812 -18.0830078125 126.502929688 -16.6279296875 c 0,138,139
 127.108398438 -6.9921875 127.108398438 -6.9921875 127.702148438 10.09375 c 0,140,141
 128.168945312 23.533203125 128.168945312 23.533203125 130.004882812 96.005859375 c 1,142,143
 132.043945312 -2.087890625 132.043945312 -2.087890625 132.645507812 -18.689453125 c 0,144,145
 132.82421875 -23.630859375 132.82421875 -23.630859375 133.008789062 -27.806640625 c 1,146,147
 129.557617188 -23.7529296875 129.557617188 -23.7529296875 126.317382812 -19.388671875 c 0,136,137
145.233398438 -40.5771484375 m 0,148,149
 146.665039062 -15.3818359375 146.665039062 -15.3818359375 148.002929688 75.1376953125 c 1,150,151
 148.016601562 74.3095703125 148.016601562 74.3095703125 148.118164062 72.65234375 c 128,-1,152
 148.219726562 70.99609375 148.219726562 70.99609375 148.234375 70.16796875 c 0,153,154
 149.522460938 -4.9541015625 149.522460938 -4.9541015625 150.364257812 -31.2705078125 c 0,155,156
 150.622070312 -39.3251953125 150.622070312 -39.3251953125 150.891601562 -45.5546875 c 1,157,158
 148.006835938 -43.1484375 148.006835938 -43.1484375 145.233398438 -40.5771484375 c 0,148,149
163.071289062 -54.6484375 m 0,159,160
 164.688476562 -25.5908203125 164.688476562 -25.5908203125 166.678710938 75.083984375 c 0,161,162
 167.059570312 94.287109375 167.059570312 94.287109375 167.29296875 105.59375 c 1,163,164
 169.360351562 -18.25390625 169.360351562 -18.25390625 169.967773438 -38.876953125 c 0,165,166
 170.328125 -51.080078125 170.328125 -51.080078125 170.711914062 -59.3896484375 c 1,167,168
 166.811523438 -57.13671875 166.811523438 -57.13671875 163.071289062 -54.6484375 c 0,159,160
182.565429688 -65.5205078125 m 0,169,170
 184.166992188 -35.4912109375 184.166992188 -35.4912109375 186.040039062 75.388671875 c 0,171,172
 186.317382812 91.875 186.317382812 91.875 186.512695312 103.0703125 c 1,173,174
 188.416992188 -20.11328125 188.416992188 -20.11328125 189.1015625 -44.7412109375 c 0,175,176
 189.512695312 -59.5380859375 189.512695312 -59.5380859375 189.95703125 -68.904296875 c 1,177,178
 186.2265625 -67.3203125 186.2265625 -67.3203125 182.565429688 -65.5205078125 c 0,169,170
201.640625 -73.287109375 m 0,179,180
 203.174804688 -42.1318359375 203.174804688 -42.1318359375 204.776367188 75.07421875 c 1,181,182
 204.780273438 74.744140625 204.780273438 74.744140625 205.045898438 74.083984375 c 128,-1,183
 205.311523438 73.423828125 205.311523438 73.423828125 205.31640625 73.09375 c 0,184,185
 206.606445312 -17.9697265625 206.606445312 -17.9697265625 207.452148438 -49.572265625 c 0,186,187
 207.875976562 -65.4560546875 207.875976562 -65.4560546875 208.334960938 -75.2958984375 c 1,188,189
 204.961914062 -74.3720703125 204.961914062 -74.3720703125 201.640625 -73.287109375 c 0,179,180
220.051757812 -77.990234375 m 0,190,191
 221.610351562 -44.7734375 221.610351562 -44.7734375 223.342773438 74.7744140625 c 1,192,193
 223.344726562 74.599609375 223.344726562 74.599609375 223.719726562 74.251953125 c 128,-1,194
 224.094726562 73.904296875 224.094726562 73.904296875 224.09765625 73.73046875 c 0,195,196
 225.129882812 -1.07421875 225.129882812 -1.07421875 225.75 -31.1298828125 c 0,197,198
 226.415039062 -63.4775390625 226.415039062 -63.4775390625 227.147460938 -79.1416015625 c 1,199,200
 223.573242188 -78.6494140625 223.573242188 -78.6494140625 220.051757812 -77.990234375 c 0,190,191
238.856445312 -80.298828125 m 0,201,202
 240.360351562 -45.744140625 240.360351562 -45.744140625 241.94140625 74.4521484375 c 1,203,204
 241.942382812 74.345703125 241.942382812 74.345703125 242.2265625 74.134765625 c 128,-1,205
 242.510742188 73.9228515625 242.510742188 73.9228515625 242.51171875 73.8173828125 c 0,206,207
 244.129882812 -44.8095703125 244.129882812 -44.8095703125 245.62890625 -80.5673828125 c 1,208,209
 242.219726562 -80.5029296875 242.219726562 -80.5029296875 238.856445312 -80.298828125 c 0,201,202
257.329101562 -80.36328125 m 1,210,211
 258.799804688 -44.4658203125 258.799804688 -44.4658203125 260.331054688 73.84375 c 0,212,213
 260.331054688 73.849609375 260.331054688 73.849609375 260.60546875 73.8623046875 c 128,-1,214
 260.879882812 73.875 260.879882812 73.875 260.879882812 73.880859375 c 1,215,216
 262.484375 -43.78515625 262.484375 -43.78515625 263.971679688 -79.86328125 c 0,217,218
 260.661132812 -80.18359375 260.661132812 -80.18359375 257.329101562 -80.36328125 c 1,210,211
275.764648438 -78.26953125 m 1,219,220
 277.176757812 -41.3642578125 277.176757812 -41.3642578125 278.602539062 73.2490234375 c 1,221,222
 280.163085938 -39.876953125 280.163085938 -39.876953125 281.959960938 -77.0615234375 c 0,223,224
 278.87109375 -77.728515625 278.87109375 -77.728515625 275.764648438 -78.26953125 c 1,219,220
294.204101562 -73.9052734375 m 1,225,226
 294.586914062 -64.9345703125 294.586914062 -64.9345703125 294.959960938 -52.0361328125 c 0,227,228
 295.668945312 -27.40625 295.668945312 -27.40625 298.0234375 109.171875 c 1,229,230
 298.217773438 96.0986328125 298.217773438 96.0986328125 298.516601562 74.88671875 c 0,231,232
 300.081054688 -35.8056640625 300.081054688 -35.8056640625 301.532226562 -71.5126953125 c 0,233,234
 299.368164062 -72.2783203125 299.368164062 -72.2783203125 297.166992188 -72.9853515625 c 0,235,236
 295.6875 -73.4599609375 295.6875 -73.4599609375 294.204101562 -73.9052734375 c 1,225,226
313.713867188 -66.599609375 m 1,237,238
 314.022460938 -58.619140625 314.022460938 -58.619140625 314.313476562 -47.798828125 c 0,239,240
 315.155273438 -16.62109375 315.155273438 -16.62109375 316.434570312 73.1201171875 c 1,241,242
 317.911132812 -27.4580078125 317.911132812 -27.4580078125 319.790039062 -63.66015625 c 0,243,244
 316.793945312 -65.1962890625 316.793945312 -65.1962890625 313.713867188 -66.599609375 c 1,237,238
332.422851562 -56.3525390625 m 1,245,246
 332.639648438 -50.2373046875 332.639648438 -50.2373046875 332.846679688 -42.6806640625 c 0,247,248
 333.661132812 -12.908203125 333.661132812 -12.908203125 334.8671875 72.525390625 c 1,249,250
 336.270507812 -17.7958984375 336.270507812 -17.7958984375 337.963867188 -52.5693359375 c 0,251,252
 335.235351562 -54.52734375 335.235351562 -54.52734375 332.422851562 -56.3525390625 c 1,245,246
350.8515625 -43.896484375 m 2,253,254
 350.977539062 -40.0654296875 350.977539062 -40.0654296875 351.098632812 -35.7314453125 c 0,255,256
 351.877929688 -7.880859375 351.877929688 -7.880859375 352.975585938 71.7451171875 c 1,257,258
 353.838867188 20.02734375 353.838867188 20.02734375 355.452148438 -31.64453125 c 0,259,260
 355.7421875 -40.921875 355.7421875 -40.921875 356.047851562 -47.83984375 c 1,261,-1
 350.8515625 -43.896484375 l 2,253,254
368.075195312 -56.55078125 m 0,262,263
 369.5703125 -27.8173828125 369.5703125 -27.8173828125 371.116210938 74.6103515625 c 1,264,265
 371.125976562 74.013671875 371.125976562 74.013671875 371.375976562 72.8193359375 c 128,-1,266
 371.625976562 71.625 371.625976562 71.625 371.635742188 71.02734375 c 0,267,268
 372.922851562 -11.95703125 372.922851562 -11.95703125 373.766601562 -40.9169921875 c 0,269,270
 374.102539062 -52.4111328125 374.102539062 -52.4111328125 374.458007812 -60.4873046875 c 1,271,272
 371.211914062 -58.60546875 371.211914062 -58.60546875 368.075195312 -56.55078125 c 0,262,263
386.42578125 -66.6708984375 m 0,273,274
 388.00390625 -35.4189453125 388.00390625 -35.4189453125 389.848632812 74.3818359375 c 0,275,276
 390.137695312 91.62890625 390.137695312 91.62890625 390.329101562 102.61328125 c 1,277,278
 392.235351562 -21.673828125 392.235351562 -21.673828125 392.918945312 -46.4619140625 c 0,279,280
 393.309570312 -60.5693359375 393.309570312 -60.5693359375 393.727539062 -69.7685546875 c 1,281,282
 390.016601562 -68.3134765625 390.016601562 -68.3134765625 386.42578125 -66.6708984375 c 0,273,274
405.543945312 -73.8369140625 m 0,283,284
 407.11328125 -41.34375 407.11328125 -41.34375 408.8984375 74.4111328125 c 0,285,286
 409.155273438 91.060546875 409.155273438 91.060546875 409.325195312 101.770507812 c 1,287,288
 411.163085938 -23.515625 411.163085938 -23.515625 411.875976562 -50.306640625 c 0,289,290
 412.293945312 -66.0009765625 412.293945312 -66.0009765625 412.74609375 -75.810546875 c 1,291,292
 409.129882812 -74.9111328125 409.129882812 -74.9111328125 405.543945312 -73.8369140625 c 0,283,284
424.475585938 -78.2568359375 m 0,293,294
 425.959960938 -44.5615234375 425.959960938 -44.5615234375 427.461914062 74.119140625 c 1,295,296
 427.465820312 73.923828125 427.465820312 73.923828125 427.690429688 73.53515625 c 128,-1,297
 427.9140625 73.14453125 427.9140625 73.14453125 427.916992188 72.9501953125 c 0,298,299
 428.950195312 -2.005859375 428.950195312 -2.005859375 429.567382812 -32.1220703125 c 0,300,301
 430.211914062 -63.498046875 430.211914062 -63.498046875 430.918945312 -79.20703125 c 1,302,303
 427.684570312 -78.798828125 427.684570312 -78.798828125 424.475585938 -78.2568359375 c 0,293,294
442.750976562 -80.2509765625 m 0,304,305
 444.303710938 -44.8095703125 444.303710938 -44.8095703125 446.094726562 73.958984375 c 0,306,307
 446.383789062 93.18359375 446.383789062 93.18359375 446.567382812 104.97265625 c 1,308,309
 446.743164062 92.662109375 446.743164062 92.662109375 447 73.76953125 c 0,310,311
 448.612304688 -44.5380859375 448.612304688 -44.5380859375 450.106445312 -80.455078125 c 1,312,313
 446.415039062 -80.4365234375 446.415039062 -80.4365234375 442.750976562 -80.2509765625 c 0,304,305
461.846679688 -80.08984375 m 1,314,315
 463.340820312 -43.91796875 463.340820312 -43.91796875 464.969726562 73.8994140625 c 0,316,317
 464.969726562 73.9423828125 464.969726562 73.9423828125 465.317382812 74.02734375 c 128,-1,318
 465.666992188 74.111328125 465.666992188 74.111328125 465.666992188 74.154296875 c 1,319,320
 467.272460938 -43.447265625 467.272460938 -43.447265625 468.760742188 -79.4716796875 c 0,321,322
 465.317382812 -79.85546875 465.317382812 -79.85546875 461.846679688 -80.08984375 c 1,314,315
480.518554688 -77.7060546875 m 1,323,324
 481.844726562 -40.84375 481.844726562 -40.84375 483.01171875 73.03515625 c 1,325,-1
 483.081054688 73.1337890625 l 1,326,327
 484.645507812 -40.03125 484.645507812 -40.03125 486.098632812 -76.5439453125 c 0,328,329
 483.317382812 -77.17578125 483.317382812 -77.17578125 480.518554688 -77.7060546875 c 1,323,324
498.227539062 -73.2744140625 m 1,330,331
 498.579101562 -64.5791015625 498.579101562 -64.5791015625 498.911132812 -52.31640625 c 0,332,333
 499.780273438 -20.3046875 499.780273438 -20.3046875 501.137695312 71.9951171875 c 1,334,335
 502.63671875 -33.5703125 502.63671875 -33.5703125 504.649414062 -71.1181640625 c 0,336,337
 501.452148438 -72.2666015625 501.452148438 -72.2666015625 498.227539062 -73.2744140625 c 1,330,331
517.1796875 -65.9775390625 m 1,338,339
 517.467773438 -58.435546875 517.467773438 -58.435546875 517.7421875 -48.4755859375 c 0,340,341
 518.59765625 -17.4453125 518.59765625 -17.4453125 519.915039062 71.71484375 c 1,342,343
 521.368164062 -26.5908203125 521.368164062 -26.5908203125 523.272460938 -62.97265625 c 0,344,345
 520.2734375 -64.541015625 520.2734375 -64.541015625 517.1796875 -65.9775390625 c 1,338,339
536.077148438 -55.3896484375 m 1,346,347
 536.286132812 -49.7666015625 536.286132812 -49.7666015625 536.489257812 -42.9677734375 c 0,348,349
 537.211914062 -18.8955078125 537.211914062 -18.8955078125 539.276367188 100.171875 c 1,350,351
 539.440429688 90.0966796875 539.440429688 90.0966796875 539.680664062 74.83984375 c 0,352,353
 541.1171875 -16.5341796875 541.1171875 -16.5341796875 542.45703125 -50.87109375 c 0,354,355
 539.33203125 -53.220703125 539.33203125 -53.220703125 536.077148438 -55.3896484375 c 1,346,347
555.379882812 -40.1044921875 m 1,356,357
 555.467773438 -37.6328125 555.467773438 -37.6328125 555.5546875 -34.9697265625 c 0,358,359
 556.25390625 -13.474609375 556.25390625 -13.474609375 558.424804688 99.974609375 c 1,360,361
 558.590820312 90.724609375 558.590820312 90.724609375 558.842773438 76.08203125 c 0,362,363
 560.180664062 -1.904296875 560.180664062 -1.904296875 561.436523438 -34.3896484375 c 0,364,365
 558.5 -37.330078125 558.5 -37.330078125 555.379882812 -40.1044921875 c 1,356,357
574.65234375 -19.068359375 m 1,366,367
 575.340820312 7.2919921875 575.340820312 7.2919921875 576.229492188 71.1943359375 c 1,368,369
 577.33203125 14.560546875 577.33203125 14.560546875 578.48046875 -13.6611328125 c 0,370,371
 576.624023438 -16.4169921875 576.624023438 -16.4169921875 574.65234375 -19.068359375 c 1,366,367
592.891601562 13.3427734375 m 1,372,373
 593.465820312 34.96875 593.465820312 34.96875 594.176757812 69.25390625 c 1,374,375
 594.430664062 58.8408203125 594.430664062 58.8408203125 595.301757812 41.21484375 c 0,376,377
 595.950195312 28.1279296875 595.950195312 28.1279296875 596.21484375 22.03515625 c 0,378,379
 594.684570312 17.6640625 594.684570312 17.6640625 592.891601562 13.3427734375 c 1,372,373
604.80859375 84.771484375 m 0,380,381
 604.540039062 76.7841796875 604.540039062 76.7841796875 604.235351562 67.2041015625 c 1,382,383
 604.1953125 68.859375 604.1953125 68.859375 603.809570312 72.19140625 c 128,-1,384
 603.422851562 75.5244140625 603.422851562 75.5244140625 603.381835938 77.197265625 c 0,385,386
 603.055664062 90.6943359375 603.055664062 90.6943359375 602.7578125 101.978515625 c 1,387,388
 604.260742188 93.5478515625 604.260742188 93.5478515625 604.80859375 84.771484375 c 0,380,381
587.434570312 145.3984375 m 0,389,390
 587.270507812 140.930664062 587.270507812 140.930664062 587.110351562 135.77734375 c 0,391,392
 586.524414062 116.845703125 586.524414062 116.845703125 585.541992188 69.435546875 c 1,393,394
 585.520507812 70.521484375 585.520507812 70.521484375 585.249023438 72.6953125 c 128,-1,395
 584.977539062 74.869140625 584.977539062 74.869140625 584.956054688 75.95703125 c 0,396,397
 583.946289062 127.66015625 583.946289062 127.66015625 583.208007812 153.041992188 c 1,398,399
 584.965820312 150.032226562 584.965820312 150.032226562 586.5859375 146.920898438 c 0,400,401
 587.015625 146.161132812 587.015625 146.161132812 587.434570312 145.3984375 c 0,389,390
569.639648438 172.374023438 m 0,402,403
 568.5703125 141.591796875 568.5703125 141.591796875 567.59375 71.31640625 c 1,404,405
 566.25 149.209960938 566.25 149.209960938 565.352539062 177.270507812 c 1,406,407
 567.555664062 174.8671875 567.555664062 174.8671875 569.639648438 172.374023438 c 0,402,403
552.163085938 189.948242188 m 0,408,409
 550.805664062 156.118164062 550.805664062 156.118164062 549.2578125 71.5625 c 0,410,411
 548.9765625 56.162109375 548.9765625 56.162109375 548.782226562 45.8916015625 c 1,412,413
 546.852539062 162.8203125 546.852539062 162.8203125 546.18359375 185.506835938 c 0,414,415
 546.032226562 190.59375 546.032226562 190.59375 545.87890625 195.002929688 c 1,416,417
 549.108398438 192.541015625 549.108398438 192.541015625 552.163085938 189.948242188 c 0,408,409
533.202148438 203.754882812 m 0,418,419
 531.774414062 168.850585938 531.774414062 168.850585938 530.153320312 71.55078125 c 0,420,421
 529.889648438 55.6318359375 529.889648438 55.6318359375 529.706054688 44.982421875 c 1,422,423
 527.829101562 166.578125 527.829101562 166.578125 527.133789062 191.5546875 c 0,424,425
 526.879882812 200.637695312 526.879882812 200.637695312 526.614257812 207.672851562 c 1,426,427
 529.930664062 205.80078125 529.930664062 205.80078125 533.202148438 203.754882812 c 0,418,419
514.3046875 213.94921875 m 0,428,429
 512.860351562 178.684570312 512.860351562 178.684570312 511.280273438 71.8447265625 c 1,430,431
 511.274414062 72.162109375 511.274414062 72.162109375 510.920898438 72.796875 c 128,-1,432
 510.56640625 73.431640625 510.56640625 73.431640625 510.561523438 73.7490234375 c 0,433,434
 509.270507812 164.623046875 509.270507812 164.623046875 508.426757812 196.165039062 c 0,435,436
 508.104492188 208.200195312 508.104492188 208.200195312 507.76171875 216.7578125 c 1,437,438
 511.053710938 215.43359375 511.053710938 215.43359375 514.3046875 213.94921875 c 0,428,429
495.665039062 221.043945312 m 0,439,440
 494.170898438 185.477539062 494.170898438 185.477539062 492.502929688 72.1240234375 c 1,441,442
 492.500976562 72.3125 492.500976562 72.3125 492.109375 72.689453125 c 128,-1,443
 491.71875 73.06640625 491.71875 73.06640625 491.715820312 73.2548828125 c 0,444,445
 490.682617188 147.927734375 490.682617188 147.927734375 490.063476562 177.93359375 c 0,446,447
 489.456054688 207.377929688 489.456054688 207.377929688 488.793945312 222.978515625 c 1,448,449
 492.250976562 222.09375 492.250976562 222.09375 495.665039062 221.043945312 c 0,439,440
476.938476562 225.510742188 m 0,450,451
 475.57421875 190.0390625 475.57421875 190.0390625 474.375976562 73.125 c 1,452,453
 472.79296875 189.038085938 472.79296875 189.038085938 471.290039062 226.373046875 c 1,454,455
 474.127929688 225.994140625 474.127929688 225.994140625 476.938476562 225.510742188 c 0,450,451
459.434570312 227.495117188 m 0,456,457
 457.950195312 191.040039062 457.950195312 191.040039062 456.333007812 74.021484375 c 0,458,459
 456.333007812 73.9990234375 456.333007812 73.9990234375 455.985351562 73.955078125 c 128,-1,460
 455.635742188 73.912109375 455.635742188 73.912109375 455.635742188 73.8896484375 c 1,461,462
 454.030273438 191.659179688 454.030273438 191.659179688 452.541992188 227.736328125 c 1,463,464
 456.0078125 227.689453125 456.0078125 227.689453125 459.434570312 227.495117188 c 0,456,457
440.758789062 227.443359375 m 1,465,466
 439.223632812 191.225585938 439.223632812 191.225585938 437.458007812 74.091796875 c 0,467,468
 437.170898438 55.017578125 437.170898438 55.017578125 436.977539062 42.6357421875 c 1,469,470
 436.805664062 54.6630859375 436.805664062 54.6630859375 436.551757812 73.0712890625 c 0,471,472
 434.907226562 192.319335938 434.907226562 192.319335938 433.389648438 226.76953125 c 0,473,474
 437.051757812 227.201171875 437.051757812 227.201171875 440.758789062 227.443359375 c 1,465,466
421.645507812 224.87109375 m 1,475,476
 421.204101562 214.938476562 421.204101562 214.938476562 420.8046875 198.995117188 c 0,477,478
 420.000976562 166.881835938 420.000976562 166.881835938 418.827148438 74.23046875 c 1,479,480
 417.206054688 189.100585938 417.206054688 189.100585938 415.305664062 223.40625 c 0,481,482
 418.458007812 224.213867188 418.458007812 224.213867188 421.645507812 224.87109375 c 1,475,476
403.3828125 219.985351562 m 1,483,484
 402.942382812 210.499023438 402.942382812 210.499023438 402.528320312 195.749023438 c 0,485,486
 401.649414062 164.48046875 401.649414062 164.48046875 400.262695312 74.546875 c 0,487,488
 400.256835938 74.158203125 400.256835938 74.158203125 399.840820312 73.37890625 c 128,-1,489
 399.426757812 72.6005859375 399.426757812 72.6005859375 399.420898438 72.2109375 c 1,490,491
 397.75 186.059570312 397.75 186.059570312 396.2109375 217.459960938 c 0,492,493
 399.754882812 218.805664062 399.754882812 218.805664062 403.3828125 219.985351562 c 1,483,484
384.37109375 212.383789062 m 1,494,495
 383.950195312 203.524414062 383.950195312 203.524414062 383.55078125 190.1796875 c 0,496,497
 382.833007812 166.255859375 382.833007812 166.255859375 380.696289062 44.21484375 c 1,498,499
 380.526367188 54.6640625 380.526367188 54.6640625 380.270507812 71.1640625 c 0,500,501
 378.590820312 179.358398438 378.590820312 179.358398438 377.043945312 208.622070312 c 0,502,503
 380.65625 210.602539062 380.65625 210.602539062 384.37109375 212.383789062 c 1,494,495
365.17578125 201.39453125 m 1,504,505
 364.825195312 193.5859375 364.825195312 193.5859375 364.500976562 182.485351562 c 0,506,507
 363.686523438 154.559570312 363.686523438 154.559570312 362.481445312 74.7431640625 c 1,508,509
 361.854492188 112.294921875 361.854492188 112.294921875 359.80859375 177.771484375 c 0,510,511
 359.450195312 189.224609375 359.450195312 189.224609375 359.067382812 197.07421875 c 1,512,-1
 360.012695312 197.767578125 l 2,513,514
 362.565429688 199.638671875 362.565429688 199.638671875 365.17578125 201.39453125 c 1,504,505
346.791992188 192.998046875 m 1,515,516
 345.547851562 159.469726562 345.547851562 159.469726562 344.340820312 71.8671875 c 1,517,518
 344.331054688 72.4609375 344.331054688 72.4609375 344.176757812 73.6494140625 c 128,-1,519
 344.024414062 74.837890625 344.024414062 74.837890625 344.014648438 75.431640625 c 0,520,521
 342.725585938 158.24609375 342.725585938 158.24609375 341.881835938 187.168945312 c 0,522,523
 341.73046875 192.350585938 341.73046875 192.350585938 341.57421875 196.836914062 c 1,524,-1
 346.791992188 192.998046875 l 1,515,516
328.942382812 205.416015625 m 0,525,526
 327.606445312 170.2109375 327.606445312 170.2109375 326.231445312 72.650390625 c 1,527,528
 326.223632812 73.0966796875 326.223632812 73.0966796875 325.973632812 73.990234375 c 128,-1,529
 325.723632812 74.8828125 325.723632812 74.8828125 325.717773438 75.330078125 c 0,530,531
 324.426757812 163.1328125 324.426757812 163.1328125 323.583007812 193.681640625 c 0,532,533
 323.348632812 202.129882812 323.348632812 202.129882812 323.10546875 208.815429688 c 1,534,535
 326.049804688 207.186523438 326.049804688 207.186523438 328.942382812 205.416015625 c 0,525,526
310.711914062 214.9453125 m 0,536,537
 309.305664062 178.848632812 309.305664062 178.848632812 307.799804688 73.2451171875 c 1,538,539
 307.795898438 73.5390625 307.795898438 73.5390625 307.4765625 74.1279296875 c 128,-1,540
 307.157226562 74.716796875 307.157226562 74.716796875 307.153320312 75.0107421875 c 0,541,542
 305.862304688 166.375 305.862304688 166.375 305.016601562 198.076171875 c 0,543,544
 304.715820312 209.317382812 304.715820312 209.317382812 304.399414062 217.538085938 c 1,545,546
 307.583007812 216.315429688 307.583007812 216.315429688 310.711914062 214.9453125 c 0,536,537
292.165039062 221.626953125 m 0,547,548
 290.625976562 185.041015625 290.625976562 185.041015625 288.78125 73.1171875 c 0,549,550
 288.426757812 51.5625 288.426757812 51.5625 288.192382812 37.9462890625 c 1,551,552
 286.411132812 160.526367188 286.411132812 160.526367188 286.03515625 178.837890625 c 0,553,554
 285.434570312 207.9296875 285.434570312 207.9296875 284.78515625 223.53515625 c 1,555,556
 288.5078125 222.672851562 288.5078125 222.672851562 292.165039062 221.626953125 c 0,547,548
272.846679688 225.798828125 m 0,557,558
 271.4140625 189.736328125 271.4140625 189.736328125 269.965820312 73.3583984375 c 1,559,560
 269.965820312 73.46484375 269.965820312 73.46484375 269.741210938 73.6796875 c 128,-1,561
 269.516601562 73.8935546875 269.516601562 73.8935546875 269.515625 74.0009765625 c 0,562,563
 267.936523438 189.770507812 267.936523438 189.770507812 266.469726562 226.615234375 c 1,564,565
 269.680664062 226.270507812 269.680664062 226.270507812 272.846679688 225.798828125 c 0,557,558
EndSplineSet
Validated: 527401
EndChar

